SplineFontDB: 3.0
FontName: Alegreya-Regular
FullName: Alegreya
FamilyName: Alegreya
Weight: Book
Copyright: Copyright (c) 2011, Juan Pablo del Peral (juan@huertatipografica.com.ar), with Reserved Font Names "Alegreya" "Alegreya SC"
Version: 1.003
ItalicAngle: 0
UnderlinePosition: -59
UnderlineWidth: 56
Ascent: 800
Descent: 200
sfntRevision: 0x000100c5
LayerCount: 2
Layer: 0 1 "Back"  1
Layer: 1 1 "Fore"  0
XUID: [1021 639 1470125195 9505069]
FSType: 0
OS2Version: 2
OS2_WeightWidthSlopeOnly: 0
OS2_UseTypoMetrics: 1
CreationTime: 1325707245
ModificationTime: 1325707762
PfmFamily: 17
TTFWeight: 400
TTFWidth: 5
LineGap: 0
VLineGap: 0
Panose: 2 0 5 3 5 0 0 2 0 4
OS2TypoAscent: 216
OS2TypoAOffset: 1
OS2TypoDescent: -145
OS2TypoDOffset: 1
OS2TypoLinegap: 0
OS2WinAscent: 71
OS2WinAOffset: 1
OS2WinDescent: 52
OS2WinDOffset: 1
HheadAscent: 71
HheadAOffset: 1
HheadDescent: -52
HheadDOffset: 1
OS2SubXSize: 700
OS2SubYSize: 650
OS2SubXOff: 0
OS2SubYOff: 140
OS2SupXSize: 700
OS2SupYSize: 650
OS2SupXOff: 0
OS2SupYOff: 477
OS2StrikeYSize: 50
OS2StrikeYPos: 250
OS2FamilyClass: 258
OS2Vendor: 'pyrs'
OS2CodePages: 20000093.00000000
OS2UnicodeRanges: a00000ef.4000204b.00000000.00000000
Lookup: 258 0 0 "'kern' Horizontal Kerning lookup 0"  {"'kern' Horizontal Kerning lookup 0 subtable"  } ['kern' ('DFLT' <'dflt' > ) ]
DEI: 91125
TtTable: prep
PUSHW_1
 511
SCANCTRL
PUSHB_1
 4
SCANTYPE
EndTTInstrs
ShortTable: maxp 16
  1
  0
  502
  85
  7
  0
  0
  2
  0
  1
  1
  0
  64
  0
  0
  0
EndShort
LangName: 1033 "" "" "" "FONTLAB:OTFEXPORT" "" "Version 1.003" "" "Alegreya is a trademark of Juan Pablo del Peral" "Juan Pablo del Peral" "Juan Pablo del Peral" "" "www.huertatipografica.com.ar" "www.huertatipografica.com.ar" "This Font Software is licensed under the SIL Open Font License, Version 1.1. This license is available with a FAQ at: http://scripts.sil.org/OFL" "http://scripts.sil.org/OFL" 
GaspTable: 1 65535 15 1
Encoding: UnicodeBmp
UnicodeInterp: none
NameList: Adobe Glyph List

StartChar: exclam
Encoding: 33 33 4
Width: 285
GlyphClass: 2
Flags: W
LayerCount: 2
Fore
SplineSet
162.5 6 m 128,-1,1
 145 -12 145 -12 117.5 -12 c 128,-1,2
 90 -12 90 -12 75.5 4.5 c 128,-1,3
 61 21 61 21 61 46 c 128,-1,4
 61 71 61 71 78 89 c 128,-1,5
 95 107 95 107 122.5 107 c 128,-1,6
 150 107 150 107 165 90.5 c 128,-1,7
 180 74 180 74 180 49 c 128,-1,0
 180 24 180 24 162.5 6 c 128,-1,1
106 210 m 1,8,-1
 98 666 l 1,9,-1
 105 676 l 1,10,-1
 188 694 l 1,11,-1
 197 683 l 1,12,-1
 145 209 l 1,13,-1
 117 202 l 1,14,-1
 106 210 l 1,8,-1
EndSplineSet
EndChar

StartChar: quotedbl
Encoding: 34 34 5
Width: 298
GlyphClass: 2
Flags: W
LayerCount: 2
Fore
SplineSet
65 417 m 1,0,1
 66 450 66 450 66 476 c 0,2,3
 66 544 66 544 59 635 c 1,4,-1
 129 649 l 1,5,-1
 136 641 l 1,6,7
 122 531 122 531 101 429 c 1,8,-1
 76 415 l 1,9,-1
 65 417 l 1,0,1
187 417 m 1,10,11
 188 450 188 450 188 476 c 0,12,13
 188 544 188 544 181 635 c 1,14,-1
 251 649 l 1,15,-1
 258 641 l 1,16,17
 244 531 244 531 223 429 c 1,18,-1
 198 415 l 1,19,-1
 187 417 l 1,10,11
EndSplineSet
EndChar

StartChar: numbersign
Encoding: 35 35 6
Width: 498
GlyphClass: 2
Flags: W
LayerCount: 2
Fore
SplineSet
51 362 m 1,0,-1
 48 372 l 1,1,-1
 63 409 l 1,2,-1
 170 408 l 1,3,-1
 207 568 l 1,4,-1
 247 573 l 1,5,-1
 255 567 l 1,6,-1
 216 407 l 1,7,-1
 269 407 l 1,8,-1
 322 406 l 1,9,-1
 359 568 l 1,10,-1
 399 573 l 1,11,-1
 407 567 l 1,12,-1
 368 406 l 1,13,-1
 476 406 l 1,14,-1
 480 397 l 1,15,-1
 461 361 l 1,16,-1
 357 362 l 1,17,-1
 332 252 l 1,18,-1
 439 252 l 1,19,-1
 443 243 l 1,20,-1
 424 207 l 1,21,-1
 322 208 l 1,22,-1
 286 43 l 1,23,-1
 247 35 l 1,24,-1
 240 41 l 1,25,-1
 277 209 l 1,26,-1
 207 210 l 1,27,-1
 171 209 l 1,28,-1
 134 43 l 1,29,-1
 95 35 l 1,30,-1
 88 41 l 1,31,-1
 125 209 l 1,32,-1
 14 208 l 1,33,-1
 11 218 l 1,34,-1
 26 255 l 1,35,-1
 135 254 l 1,36,-1
 160 363 l 1,37,-1
 51 362 l 1,0,-1
206 363 m 1,38,-1
 180 253 l 1,39,-1
 232 253 l 1,40,-1
 287 252 l 1,41,-1
 312 363 l 1,42,-1
 244 364 l 1,43,-1
 206 363 l 1,38,-1
EndSplineSet
EndChar

StartChar: dollar
Encoding: 36 36 7
Width: 459
GlyphClass: 2
Flags: W
LayerCount: 2
Fore
SplineSet
327 349 m 1,0,1
 329 364 329 364 329 391 c 0,2,3
 329 447 329 447 263 454 c 1,4,-1
 247 288 l 1,5,6
 248 287 248 287 264 280 c 128,-1,7
 280 273 280 273 293.5 266.5 c 128,-1,8
 307 260 307 260 332 244.5 c 128,-1,9
 357 229 357 229 368 216 c 0,10,11
 400 182 400 182 400 144 c 0,12,13
 400 82 400 82 350 40.5 c 128,-1,14
 300 -1 300 -1 219 -8 c 1,15,-1
 206 -151 l 1,16,-1
 180 -154 l 1,17,-1
 175 -147 l 1,18,-1
 188 -9 l 1,19,20
 153 -9 153 -9 120.5 -2 c 128,-1,21
 88 5 88 5 58 18 c 1,22,-1
 53 27 l 1,23,24
 64 90 64 90 64 162 c 1,25,-1
 109 166 l 1,26,27
 109 93 109 93 125.5 67.5 c 128,-1,28
 142 42 142 42 192 39 c 1,29,-1
 209 214 l 1,30,31
 154 236 154 236 104 275 c 0,32,33
 62 309 62 309 62 363.5 c 128,-1,34
 62 418 62 418 111 459 c 128,-1,35
 160 500 160 500 236 506 c 1,36,-1
 250 654 l 1,37,-1
 276 658 l 1,38,-1
 282 649 l 1,39,-1
 268 507 l 1,40,41
 335 505 335 505 387 488 c 1,42,-1
 391 481 l 1,43,44
 377 420 377 420 372 349 c 1,45,-1
 333 345 l 1,46,-1
 327 349 l 1,0,1
318 116 m 0,47,48
 318 160 318 160 239 199 c 1,49,-1
 224 39 l 1,50,51
 267 42 267 42 292.5 62.5 c 128,-1,52
 318 83 318 83 318 116 c 0,47,48
165 434 m 128,-1,54
 139 415 139 415 139 388 c 128,-1,55
 139 361 139 361 159 342 c 128,-1,56
 179 323 179 323 217 303 c 1,57,-1
 231 455 l 1,58,53
 191 453 191 453 165 434 c 128,-1,54
EndSplineSet
EndChar

StartChar: percent
Encoding: 37 37 8
Width: 671
GlyphClass: 2
Flags: W
LayerCount: 2
Fore
SplineSet
112.5 416.5 m 128,-1,1
 143 390 143 390 181 390 c 128,-1,2
 219 390 219 390 246 409.5 c 128,-1,3
 273 429 273 429 273 476 c 128,-1,4
 273 523 273 523 245 553 c 128,-1,5
 217 583 217 583 173 583 c 128,-1,6
 129 583 129 583 105.5 559 c 128,-1,7
 82 535 82 535 82 489 c 128,-1,0
 82 443 82 443 112.5 416.5 c 128,-1,1
279.5 377 m 128,-1,9
 239 326 239 326 173.5 326 c 128,-1,10
 108 326 108 326 71.5 369.5 c 128,-1,11
 35 413 35 413 35 483.5 c 128,-1,12
 35 554 35 554 77.5 601.5 c 128,-1,13
 120 649 120 649 185.5 649 c 128,-1,14
 251 649 251 649 285.5 605 c 128,-1,15
 320 561 320 561 320 494.5 c 128,-1,8
 320 428 320 428 279.5 377 c 128,-1,9
451.5 78.5 m 128,-1,17
 482 52 482 52 520 52 c 128,-1,18
 558 52 558 52 585 71.5 c 128,-1,19
 612 91 612 91 612 138 c 128,-1,20
 612 185 612 185 584 215 c 128,-1,21
 556 245 556 245 512 245 c 128,-1,22
 468 245 468 245 444.5 221 c 128,-1,23
 421 197 421 197 421 151 c 128,-1,16
 421 105 421 105 451.5 78.5 c 128,-1,17
618.5 39 m 128,-1,25
 578 -12 578 -12 512 -12 c 128,-1,26
 446 -12 446 -12 410 31.5 c 128,-1,27
 374 75 374 75 374 145.5 c 128,-1,28
 374 216 374 216 416.5 263.5 c 128,-1,29
 459 311 459 311 524.5 311 c 128,-1,30
 590 311 590 311 624.5 267 c 128,-1,31
 659 223 659 223 659 156.5 c 128,-1,24
 659 90 659 90 618.5 39 c 128,-1,25
587 659 m 1,32,-1
 592 645 l 1,33,34
 418 386 418 386 330 245 c 2,35,-1
 115 -95 l 1,36,-1
 77 -76 l 1,37,-1
 72 -64 l 1,38,39
 205 138 205 138 548 678 c 1,40,-1
 587 659 l 1,32,-1
EndSplineSet
EndChar

StartChar: ampersand
Encoding: 38 38 9
Width: 700
GlyphClass: 2
Flags: W
LayerCount: 2
Fore
SplineSet
426 367 m 0,0,1
 407 367 407 367 369 358 c 1,2,-1
 355 401 l 1,3,4
 376 417 376 417 408 419 c 2,5,-1
 614 431 l 1,6,7
 689 438 689 438 691 442 c 1,8,-1
 701 418 l 1,9,-1
 688 387 l 1,10,11
 681 374 681 374 669 370.5 c 128,-1,12
 657 367 657 367 618 367 c 2,13,-1
 518 367 l 1,14,-1
 515 361 l 1,15,16
 557 324 557 324 557 261.5 c 128,-1,17
 557 199 557 199 517 137 c 1,18,-1
 657 19 l 1,19,-1
 657 3 l 1,20,21
 610 -28 610 -28 595 -28 c 0,22,23
 586 -28 586 -28 468 78 c 1,24,25
 426 36 426 36 373 12 c 128,-1,26
 320 -12 320 -12 269 -12 c 0,27,28
 171 -12 171 -12 113 34.5 c 128,-1,29
 55 81 55 81 55 160 c 0,30,31
 55 192 55 192 68.5 221 c 128,-1,32
 82 250 82 250 102 268 c 1,33,34
 140 305 140 305 187 326 c 1,35,-1
 187 333 l 1,36,37
 105 419 105 419 105 488.5 c 128,-1,38
 105 558 105 558 162 603.5 c 128,-1,39
 219 649 219 649 304 649 c 0,40,41
 371 649 371 649 411 632 c 2,42,-1
 425 626 l 1,43,-1
 427 611 l 1,44,-1
 379 537 l 1,45,-1
 369 536 l 1,46,47
 334 568 334 568 312.5 579 c 128,-1,48
 291 590 291 590 257 590 c 128,-1,49
 223 590 223 590 199 569.5 c 128,-1,50
 175 549 175 549 175 507 c 128,-1,51
 175 465 175 465 206 421 c 128,-1,52
 237 377 237 377 326 301 c 2,53,-1
 486 163 l 1,54,55
 504 199 504 199 504 249 c 0,56,57
 504 367 504 367 426 367 c 0,0,1
130 180 m 0,58,59
 130 121 130 121 175.5 86 c 128,-1,60
 221 51 221 51 301.5 51 c 128,-1,61
 382 51 382 51 441 102 c 1,62,-1
 216 303 l 1,63,64
 177 285 177 285 153.5 251.5 c 128,-1,65
 130 218 130 218 130 180 c 0,58,59
EndSplineSet
EndChar

StartChar: quotesingle
Encoding: 39 39 10
Width: 176
GlyphClass: 2
Flags: W
LayerCount: 2
Fore
SplineSet
65 417 m 1,0,1
 66 450 66 450 66 476 c 0,2,3
 66 544 66 544 59 635 c 1,4,-1
 129 649 l 1,5,-1
 136 641 l 1,6,7
 122 531 122 531 101 429 c 1,8,-1
 76 415 l 1,9,-1
 65 417 l 1,0,1
EndSplineSet
EndChar

StartChar: parenleft
Encoding: 40 40 11
Width: 309
GlyphClass: 2
Flags: W
LayerCount: 2
Fore
SplineSet
84 163 m 2,0,-1
 84 336 l 2,1,2
 84 405 84 405 103.5 462.5 c 128,-1,3
 123 520 123 520 150 553 c 0,4,5
 207 621 207 621 252 640 c 1,6,-1
 272 649 l 1,7,-1
 276 649 l 1,8,-1
 289 620 l 1,9,-1
 288 616 l 1,10,11
 273 611 273 611 245 586 c 128,-1,12
 217 561 217 561 199 534 c 128,-1,13
 181 507 181 507 166 458 c 128,-1,14
 151 409 151 409 151 351 c 2,15,-1
 151 178 l 2,16,17
 151 116 151 116 165.5 62.5 c 128,-1,18
 180 9 180 9 201 -22 c 0,19,20
 244 -86 244 -86 280 -106 c 1,21,-1
 294 -115 l 1,22,-1
 294 -120 l 1,23,-1
 273 -146 l 1,24,-1
 269 -146 l 1,25,26
 260 -144 260 -144 236.5 -129.5 c 128,-1,27
 213 -115 213 -115 195.5 -100.5 c 128,-1,28
 178 -86 178 -86 157 -60 c 128,-1,29
 136 -34 136 -34 120 -4 c 0,30,31
 84 67 84 67 84 163 c 2,0,-1
EndSplineSet
EndChar

StartChar: parenright
Encoding: 41 41 12
Width: 309
GlyphClass: 2
Flags: W
LayerCount: 2
Fore
SplineSet
225 340 m 2,0,-1
 225 167 l 2,1,2
 225 98 225 98 205.5 40.5 c 128,-1,3
 186 -17 186 -17 158 -50 c 0,4,5
 102 -118 102 -118 56 -138 c 2,6,-1
 37 -146 l 1,7,-1
 33 -146 l 1,8,-1
 20 -117 l 1,9,-1
 21 -113 l 1,10,11
 36 -108 36 -108 64 -83 c 128,-1,12
 92 -58 92 -58 110 -31 c 128,-1,13
 128 -4 128 -4 143 45 c 128,-1,14
 158 94 158 94 158 152 c 2,15,-1
 158 325 l 2,16,17
 158 387 158 387 143.5 440.5 c 128,-1,18
 129 494 129 494 108 525 c 0,19,20
 65 589 65 589 30 610 c 1,21,-1
 15 618 l 1,22,-1
 15 623 l 1,23,-1
 36 649 l 1,24,-1
 40 649 l 1,25,26
 49 647 49 647 72.5 632.5 c 128,-1,27
 96 618 96 618 113.5 603.5 c 128,-1,28
 131 589 131 589 152 563 c 128,-1,29
 173 537 173 537 188 507 c 0,30,31
 225 436 225 436 225 340 c 2,0,-1
EndSplineSet
EndChar

StartChar: asterisk
Encoding: 42 42 13
Width: 456
GlyphClass: 2
Flags: W
LayerCount: 2
Fore
SplineSet
86 666 m 1,0,1
 141 637 141 637 186 603 c 1,2,-1
 180 570 l 1,3,-1
 174 565 l 1,4,-1
 68 594 l 1,5,6
 68 632 68 632 77 662 c 1,7,-1
 86 666 l 1,0,1
91 473 m 1,8,9
 135 517 135 517 182 549 c 1,10,-1
 211 533 l 1,11,-1
 214 526 l 1,12,13
 186 488 186 488 154 434 c 1,14,15
 118 446 118 446 92 464 c 1,16,-1
 91 473 l 1,8,9
276 418 m 1,17,18
 248 474 248 474 232 528 c 1,19,-1
 256 551 l 1,20,-1
 264 552 l 1,21,22
 292 512 292 512 332 466 c 1,23,24
 310 436 310 436 285 417 c 1,25,-1
 276 418 l 1,17,18
385 577 m 1,26,27
 334 570 334 570 304.5 570 c 128,-1,28
 275 570 275 570 267 570 c 1,29,-1
 253 599 l 1,30,-1
 254 607 l 1,31,32
 295 620 295 620 357 646 c 1,33,34
 379 615 379 615 389 586 c 1,35,-1
 385 577 l 1,26,27
268 730 m 1,36,37
 257 669 257 669 239 616 c 1,38,-1
 205 611 l 1,39,-1
 199 615 l 1,40,-1
 194 725 l 1,41,42
 230 737 230 737 261 737 c 1,43,-1
 268 730 l 1,36,37
EndSplineSet
EndChar

StartChar: plus
Encoding: 43 43 14
Width: 506
GlyphClass: 2
Flags: W
LayerCount: 2
Fore
SplineSet
274 500 m 1,0,-1
 284 494 l 1,1,2
 278 371 278 371 278 291 c 1,3,-1
 482 297 l 1,4,-1
 488 287 l 1,5,-1
 480 236 l 1,6,-1
 278 235 l 1,7,-1
 279 41 l 1,8,-1
 230 30 l 1,9,-1
 221 36 l 1,10,11
 222 147 222 147 222 235 c 1,12,-1
 24 234 l 1,13,-1
 18 243 l 1,14,-1
 29 292 l 1,15,16
 135 291 135 291 222 291 c 1,17,-1
 223 492 l 1,18,-1
 274 500 l 1,0,-1
EndSplineSet
EndChar

StartChar: comma
Encoding: 44 44 15
Width: 238
GlyphClass: 2
Flags: W
LayerCount: 2
Fore
SplineSet
64 73 m 1,0,1
 98 99 98 99 121 99 c 128,-1,2
 144 99 144 99 158.5 78.5 c 128,-1,3
 173 58 173 58 173 13.5 c 128,-1,4
 173 -31 173 -31 131 -77.5 c 128,-1,5
 89 -124 89 -124 33 -157 c 1,6,-1
 15 -142 l 1,7,-1
 15 -132 l 1,8,9
 50 -108 50 -108 72 -75 c 128,-1,10
 94 -42 94 -42 94 -6.5 c 128,-1,11
 94 29 94 29 62 59 c 1,12,-1
 64 73 l 1,0,1
EndSplineSet
EndChar

StartChar: hyphen
Encoding: 45 45 16
Width: 324
GlyphClass: 2
Flags: W
LayerCount: 2
Fore
SplineSet
281 299 m 1,0,-1
 288 290 l 1,1,-1
 283 236 l 1,2,-1
 43 210 l 1,3,-1
 36 218 l 1,4,-1
 42 270 l 1,5,-1
 216 290 l 1,6,-1
 281 299 l 1,0,-1
EndSplineSet
EndChar

StartChar: period
Encoding: 46 46 17
Width: 238
GlyphClass: 2
Flags: W
LayerCount: 2
Fore
SplineSet
161.5 6 m 128,-1,1
 144 -12 144 -12 116.5 -12 c 128,-1,2
 89 -12 89 -12 74.5 4.5 c 128,-1,3
 60 21 60 21 60 46 c 128,-1,4
 60 71 60 71 77 89 c 128,-1,5
 94 107 94 107 121.5 107 c 128,-1,6
 149 107 149 107 164 90.5 c 128,-1,7
 179 74 179 74 179 49 c 128,-1,0
 179 24 179 24 161.5 6 c 128,-1,1
EndSplineSet
EndChar

StartChar: slash
Encoding: 47 47 18
Width: 329
GlyphClass: 2
Flags: W
LayerCount: 2
Fore
SplineSet
287 675 m 1,0,-1
 295 665 l 1,1,2
 196 306 196 306 89 -110 c 1,3,-1
 41 -110 l 1,4,-1
 34 -102 l 1,5,6
 87 74 87 74 126 226 c 2,7,-1
 241 675 l 1,8,-1
 287 675 l 1,0,-1
EndSplineSet
EndChar

StartChar: zero
Encoding: 48 48 19
Width: 533
GlyphClass: 2
Flags: W
LayerCount: 2
Fore
SplineSet
426.5 66 m 128,-1,1
 358 -12 358 -12 257 -12 c 128,-1,2
 156 -12 156 -12 97 56 c 128,-1,3
 38 124 38 124 38 238 c 128,-1,4
 38 352 38 352 107 428.5 c 128,-1,5
 176 505 176 505 276 505 c 128,-1,6
 376 505 376 505 435.5 437.5 c 128,-1,7
 495 370 495 370 495 257 c 128,-1,0
 495 144 495 144 426.5 66 c 128,-1,1
143 115.5 m 128,-1,9
 192 64 192 64 269 64 c 128,-1,10
 346 64 346 64 392.5 111.5 c 128,-1,11
 439 159 439 159 439 238.5 c 128,-1,12
 439 318 439 318 389 371 c 128,-1,13
 339 424 339 424 262 424 c 128,-1,14
 185 424 185 424 139.5 376.5 c 128,-1,15
 94 329 94 329 94 248 c 128,-1,8
 94 167 94 167 143 115.5 c 128,-1,9
EndSplineSet
EndChar

StartChar: one
Encoding: 49 49 20
Width: 354
GlyphClass: 2
Flags: W
LayerCount: 2
Fore
SplineSet
213 112 m 0,0,1
 213 72 213 72 223 58 c 128,-1,2
 233 44 233 44 262 44 c 1,3,-1
 315 47 l 1,4,-1
 317 43 l 1,5,-1
 308 -3 l 1,6,7
 224 0 224 0 188 0 c 0,8,9
 129 0 129 0 49 -12 c 1,10,-1
 55 34 l 1,11,12
 111 39 111 39 128 60.5 c 128,-1,13
 145 82 145 82 145 148 c 2,14,-1
 145 376 l 2,15,16
 145 411 145 411 132.5 422 c 128,-1,17
 120 433 120 433 91 433 c 1,18,-1
 38 427 l 1,19,-1
 35 430 l 1,20,-1
 39 472 l 1,21,22
 185 489 185 489 248 505 c 1,23,-1
 250 505 l 1,24,-1
 256 488 l 1,25,26
 236 471 236 471 228.5 454.5 c 128,-1,27
 221 438 221 438 219 404 c 0,28,29
 213 245 213 245 213 112 c 0,0,1
EndSplineSet
EndChar

StartChar: two
Encoding: 50 50 21
Width: 475
GlyphClass: 2
Flags: W
LayerCount: 2
Fore
SplineSet
269 362 m 0,0,1
 269 398 269 398 249 418 c 128,-1,2
 229 438 229 438 194.5 438 c 128,-1,3
 160 438 160 438 127 414 c 128,-1,4
 94 390 94 390 71 349 c 1,5,-1
 62 349 l 1,6,-1
 51 394 l 1,7,8
 76 442 76 442 124 473.5 c 128,-1,9
 172 505 172 505 227 505 c 128,-1,10
 282 505 282 505 319.5 472 c 128,-1,11
 357 439 357 439 357 389.5 c 128,-1,12
 357 340 357 340 312 273.5 c 128,-1,13
 267 207 267 207 144 68 c 1,14,-1
 148 61 l 1,15,-1
 301 61 l 2,16,17
 356 61 356 61 377 78 c 128,-1,18
 398 95 398 95 413 152 c 1,19,-1
 453 157 l 1,20,21
 432 73 432 73 424 0 c 1,22,-1
 412 -7 l 1,23,24
 177 0 177 0 91 0 c 1,25,-1
 37 -12 l 1,26,-1
 27 6 l 1,27,-1
 106 94 l 1,28,29
 269 279 269 279 269 362 c 0,0,1
EndSplineSet
EndChar

StartChar: three
Encoding: 51 51 22
Width: 415
GlyphClass: 2
Flags: W
LayerCount: 2
Fore
SplineSet
105 -35 m 0,0,1
 180 -35 180 -35 231 3 c 128,-1,2
 282 41 282 41 282 98 c 0,3,4
 282 198 282 198 103 199 c 1,5,-1
 98 204 l 1,6,-1
 93 239 l 1,7,-1
 158 255 l 1,8,9
 198 274 198 274 223.5 306.5 c 128,-1,10
 249 339 249 339 249 371 c 128,-1,11
 249 403 249 403 226.5 422.5 c 128,-1,12
 204 442 204 442 173.5 442 c 128,-1,13
 143 442 143 442 111.5 428 c 128,-1,14
 80 414 80 414 57 391 c 1,15,-1
 47 391 l 1,16,-1
 37 433 l 1,17,18
 70 460 70 460 119.5 482.5 c 128,-1,19
 169 505 169 505 202 505 c 0,20,21
 261 505 261 505 296.5 474.5 c 128,-1,22
 332 444 332 444 332 398.5 c 128,-1,23
 332 353 332 353 302 315 c 128,-1,24
 272 277 272 277 222 251 c 1,25,-1
 222 246 l 1,26,27
 357 214 357 214 357 122 c 0,28,29
 357 42 357 42 268.5 -31.5 c 128,-1,30
 180 -105 180 -105 84 -105 c 0,31,32
 50 -105 50 -105 35.5 -88 c 128,-1,33
 21 -71 21 -71 20 -32 c 1,34,-1
 25 -26 l 1,35,36
 67 -35 67 -35 105 -35 c 0,0,1
EndSplineSet
EndChar

StartChar: four
Encoding: 52 52 23
Width: 447
GlyphClass: 2
Flags: W
LayerCount: 2
Fore
SplineSet
320 143 m 1,0,-1
 413 143 l 1,1,-1
 419 135 l 1,2,-1
 411 80 l 1,3,4
 374 81 374 81 320 83 c 1,5,-1
 327 -86 l 1,6,-1
 322 -93 l 1,7,-1
 251 -105 l 1,8,-1
 245 -96 l 1,9,10
 250 7 250 7 251 85 c 1,11,12
 97 89 97 89 4 89 c 1,13,-1
 8 126 l 1,14,-1
 284 504 l 1,15,-1
 288 505 l 1,16,-1
 320 495 l 1,17,-1
 320 143 l 1,0,-1
251 143 m 1,18,-1
 251 367 l 1,19,-1
 242 367 l 1,20,-1
 81 143 l 1,21,-1
 251 143 l 1,18,-1
EndSplineSet
EndChar

StartChar: five
Encoding: 53 53 24
Width: 430
GlyphClass: 2
Flags: W
LayerCount: 2
Fore
SplineSet
301.5 231.5 m 128,-1,1
 364 194 364 194 364 132 c 128,-1,2
 364 70 364 70 317.5 14.5 c 128,-1,3
 271 -41 271 -41 205 -73 c 128,-1,4
 139 -105 139 -105 79 -105 c 0,5,6
 48 -105 48 -105 33 -89.5 c 128,-1,7
 18 -74 18 -74 16 -32 c 1,8,-1
 21 -26 l 1,9,10
 63 -35 63 -35 102 -35 c 0,11,12
 182 -35 182 -35 235 2 c 128,-1,13
 288 39 288 39 288 93 c 128,-1,14
 288 147 288 147 242 175.5 c 128,-1,15
 196 204 196 204 79 224 c 1,16,-1
 70 235 l 1,17,-1
 87 479 l 1,18,-1
 95 487 l 1,19,-1
 284 495 l 2,20,21
 314 497 314 497 326.5 504.5 c 128,-1,22
 339 512 339 512 347 534 c 1,23,-1
 380 538 l 1,24,-1
 356 420 l 1,25,-1
 350 414 l 1,26,27
 247 422 247 422 131 422 c 1,28,-1
 124 296 l 1,29,0
 239 269 239 269 301.5 231.5 c 128,-1,1
EndSplineSet
EndChar

StartChar: six
Encoding: 54 54 25
Width: 455
GlyphClass: 2
Flags: W
LayerCount: 2
Fore
SplineSet
246 344 m 0,0,1
 327 344 327 344 373 293.5 c 128,-1,2
 419 243 419 243 419 180 c 0,3,4
 419 100 419 100 363 44 c 128,-1,5
 307 -12 307 -12 222.5 -12 c 128,-1,6
 138 -12 138 -12 89 47.5 c 128,-1,7
 40 107 40 107 40 197 c 0,8,9
 40 258 40 258 58.5 313.5 c 128,-1,10
 77 369 77 369 106 408.5 c 128,-1,11
 135 448 135 448 170.5 481 c 128,-1,12
 206 514 206 514 242 535 c 0,13,14
 319 581 319 581 354 592 c 2,15,-1
 372 598 l 1,16,-1
 379 593 l 1,17,-1
 390 563 l 1,18,19
 358 551 358 551 317 526 c 128,-1,20
 276 501 276 501 244 473 c 128,-1,21
 212 445 212 445 179 397 c 128,-1,22
 146 349 146 349 131 294 c 1,23,-1
 135 292 l 1,24,25
 216 344 216 344 246 344 c 0,0,1
310.5 246.5 m 128,-1,27
 276 285 276 285 224.5 285 c 128,-1,28
 173 285 173 285 123 248 c 1,29,30
 120 226 120 226 120 203 c 0,31,32
 120 127 120 127 152 81.5 c 128,-1,33
 184 36 184 36 236 36 c 128,-1,34
 288 36 288 36 316.5 68 c 128,-1,35
 345 100 345 100 345 154 c 128,-1,26
 345 208 345 208 310.5 246.5 c 128,-1,27
EndSplineSet
EndChar

StartChar: seven
Encoding: 55 55 26
Width: 420
GlyphClass: 2
Flags: W
LayerCount: 2
Fore
SplineSet
185 493 m 2,0,-1
 396 493 l 1,1,-1
 418 465 l 1,2,3
 315 258 315 258 194 -19 c 1,4,-1
 169 -105 l 1,5,-1
 162 -105 l 1,6,-1
 102 -87 l 1,7,-1
 92 -65 l 1,8,-1
 342 425 l 1,9,-1
 169 418 l 2,10,11
 120 416 120 416 103.5 398 c 128,-1,12
 87 380 87 380 77 325 c 1,13,-1
 38 319 l 1,14,15
 52 416 52 416 57 492 c 1,16,-1
 63 497 l 1,17,18
 123 493 123 493 185 493 c 2,0,-1
EndSplineSet
EndChar

StartChar: eight
Encoding: 56 56 27
Width: 485
GlyphClass: 2
Flags: W
LayerCount: 2
Fore
SplineSet
56 124 m 0,0,1
 56 229 56 229 185 289 c 1,2,3
 133 317 133 317 103.5 350.5 c 128,-1,4
 74 384 74 384 74 442 c 128,-1,5
 74 500 74 500 125.5 549 c 128,-1,6
 177 598 177 598 247 598 c 128,-1,7
 317 598 317 598 363.5 563 c 128,-1,8
 410 528 410 528 410 464 c 0,9,10
 410 372 410 372 311 319 c 1,11,12
 368 289 368 289 399.5 254 c 128,-1,13
 431 219 431 219 431 166 c 0,14,15
 431 92 431 92 372 40 c 128,-1,16
 313 -12 313 -12 234.5 -12 c 128,-1,17
 156 -12 156 -12 106 24.5 c 128,-1,18
 56 61 56 61 56 124 c 0,0,1
164 66 m 128,-1,20
 199 31 199 31 247.5 31 c 128,-1,21
 296 31 296 31 329 61.5 c 128,-1,22
 362 92 362 92 362 129.5 c 128,-1,23
 362 167 362 167 339.5 193.5 c 128,-1,24
 317 220 317 220 298.5 230.5 c 128,-1,25
 280 241 280 241 220 271 c 1,26,27
 129 232 129 232 129 148 c 0,28,19
 129 101 129 101 164 66 c 128,-1,20
144 465 m 0,29,30
 144 414 144 414 201 378 c 0,31,32
 224 364 224 364 234.5 358.5 c 128,-1,33
 245 353 245 353 275 337 c 1,34,35
 335 373 335 373 335 443 c 0,36,37
 335 495 335 495 307.5 523.5 c 128,-1,38
 280 552 280 552 238 552 c 128,-1,39
 196 552 196 552 170 526 c 128,-1,40
 144 500 144 500 144 465 c 0,29,30
EndSplineSet
EndChar

StartChar: nine
Encoding: 57 57 28
Width: 455
GlyphClass: 2
Flags: W
LayerCount: 2
Fore
SplineSet
209 149 m 0,0,1
 128 149 128 149 82 199.5 c 128,-1,2
 36 250 36 250 36 313 c 0,3,4
 36 393 36 393 92 449 c 128,-1,5
 148 505 148 505 232.5 505 c 128,-1,6
 317 505 317 505 366 445.5 c 128,-1,7
 415 386 415 386 415 296 c 0,8,9
 415 235 415 235 396.5 179.5 c 128,-1,10
 378 124 378 124 349 84.5 c 128,-1,11
 320 45 320 45 284.5 12 c 128,-1,12
 249 -21 249 -21 214 -42 c 0,13,14
 136 -88 136 -88 102 -99 c 2,15,-1
 83 -105 l 1,16,-1
 76 -100 l 1,17,-1
 65 -70 l 1,18,19
 97 -58 97 -58 138 -33.5 c 128,-1,20
 179 -9 179 -9 211 19 c 128,-1,21
 243 47 243 47 276 95 c 128,-1,22
 309 143 309 143 323 198 c 1,23,-1
 320 201 l 1,24,25
 239 149 239 149 209 149 c 0,0,1
144 246 m 128,-1,27
 178 208 178 208 228 208 c 128,-1,28
 278 208 278 208 332 245 c 1,29,30
 335 266 335 266 335 290 c 0,31,32
 335 366 335 366 302.5 411.5 c 128,-1,33
 270 457 270 457 218.5 457 c 128,-1,34
 167 457 167 457 138.5 425 c 128,-1,35
 110 393 110 393 110 338.5 c 128,-1,26
 110 284 110 284 144 246 c 128,-1,27
EndSplineSet
EndChar

StartChar: colon
Encoding: 58 58 29
Width: 238
GlyphClass: 2
Flags: W
LayerCount: 2
Fore
SplineSet
157.5 6 m 128,-1,1
 140 -12 140 -12 112.5 -12 c 128,-1,2
 85 -12 85 -12 70.5 4.5 c 128,-1,3
 56 21 56 21 56 46 c 128,-1,4
 56 71 56 71 73 89 c 128,-1,5
 90 107 90 107 117.5 107 c 128,-1,6
 145 107 145 107 160 90.5 c 128,-1,7
 175 74 175 74 175 49 c 128,-1,0
 175 24 175 24 157.5 6 c 128,-1,1
157.5 286 m 128,-1,9
 140 268 140 268 112.5 268 c 128,-1,10
 85 268 85 268 70.5 284.5 c 128,-1,11
 56 301 56 301 56 326 c 128,-1,12
 56 351 56 351 73 369 c 128,-1,13
 90 387 90 387 117.5 387 c 128,-1,14
 145 387 145 387 160 370.5 c 128,-1,15
 175 354 175 354 175 329 c 128,-1,8
 175 304 175 304 157.5 286 c 128,-1,9
EndSplineSet
EndChar

StartChar: semicolon
Encoding: 59 59 30
Width: 238
GlyphClass: 2
Flags: W
LayerCount: 2
Fore
SplineSet
64 73 m 1,0,1
 98 99 98 99 121 99 c 128,-1,2
 144 99 144 99 158.5 78.5 c 128,-1,3
 173 58 173 58 173 13.5 c 128,-1,4
 173 -31 173 -31 131 -77.5 c 128,-1,5
 89 -124 89 -124 33 -157 c 1,6,-1
 15 -142 l 1,7,-1
 15 -132 l 1,8,9
 50 -108 50 -108 72 -75 c 128,-1,10
 94 -42 94 -42 94 -6.5 c 128,-1,11
 94 29 94 29 62 59 c 1,12,-1
 64 73 l 1,0,1
157.5 286 m 128,-1,14
 140 268 140 268 112.5 268 c 128,-1,15
 85 268 85 268 70.5 284.5 c 128,-1,16
 56 301 56 301 56 326 c 128,-1,17
 56 351 56 351 73 369 c 128,-1,18
 90 387 90 387 117.5 387 c 128,-1,19
 145 387 145 387 160 370.5 c 128,-1,20
 175 354 175 354 175 329 c 128,-1,13
 175 304 175 304 157.5 286 c 128,-1,14
EndSplineSet
EndChar

StartChar: less
Encoding: 60 60 31
Width: 506
GlyphClass: 2
Flags: W
LayerCount: 2
Fore
SplineSet
39 239 m 1,0,-1
 31 250 l 1,1,-1
 33 297 l 1,2,-1
 236 383 l 1,3,-1
 437 464 l 1,4,-1
 446 459 l 1,5,-1
 453 409 l 1,6,7
 341 370 341 370 259 336 c 1,8,-1
 105 276 l 1,9,-1
 105 270 l 1,10,-1
 273 200 l 1,11,-1
 454 121 l 1,12,-1
 455 110 l 1,13,-1
 425 70 l 1,14,15
 315 122 315 122 39 239 c 1,0,-1
EndSplineSet
EndChar

StartChar: equal
Encoding: 61 61 32
Width: 506
GlyphClass: 2
Flags: W
LayerCount: 2
Fore
SplineSet
482 220 m 1,0,-1
 488 210 l 1,1,-1
 480 159 l 1,2,-1
 24 157 l 1,3,-1
 18 166 l 1,4,-1
 29 215 l 1,5,6
 179 214 179 214 268 214 c 1,7,-1
 482 220 l 1,0,-1
482 377 m 1,8,-1
 488 367 l 1,9,-1
 480 316 l 1,10,-1
 24 314 l 1,11,-1
 18 323 l 1,12,-1
 29 372 l 1,13,14
 179 371 179 371 268 371 c 1,15,-1
 482 377 l 1,8,-1
EndSplineSet
EndChar

StartChar: greater
Encoding: 62 62 33
Width: 506
GlyphClass: 2
Flags: W
LayerCount: 2
Fore
SplineSet
467 295 m 1,0,-1
 475 284 l 1,1,-1
 473 237 l 1,2,-1
 270 151 l 1,3,-1
 69 70 l 1,4,-1
 60 75 l 1,5,-1
 53 125 l 1,6,7
 165 164 165 164 247 198 c 1,8,-1
 401 258 l 1,9,-1
 401 264 l 1,10,-1
 233 334 l 1,11,-1
 52 413 l 1,12,-1
 51 424 l 1,13,-1
 81 464 l 1,14,15
 191 412 191 412 467 295 c 1,0,-1
EndSplineSet
EndChar

StartChar: question
Encoding: 63 63 34
Width: 360
GlyphClass: 2
Flags: W
LayerCount: 2
Fore
SplineSet
263 499 m 0,0,1
 263 614 263 614 60 626 c 1,2,-1
 58 637 l 1,3,-1
 91 690 l 1,4,-1
 105 694 l 1,5,6
 198 691 198 691 263.5 643.5 c 128,-1,7
 329 596 329 596 329 529 c 0,8,9
 329 465 329 465 290 424 c 0,10,11
 270 403 270 403 255 391 c 128,-1,12
 240 379 240 379 208 358 c 128,-1,13
 176 337 176 337 163 328 c 1,14,-1
 160 319 l 1,15,-1
 181 224 l 1,16,-1
 178 216 l 1,17,-1
 117 199 l 1,18,-1
 108 203 l 1,19,-1
 84 323 l 1,20,-1
 87 337 l 1,21,-1
 206 413 l 1,22,23
 263 452 263 452 263 499 c 0,0,1
188.5 6 m 128,-1,25
 171 -12 171 -12 143.5 -12 c 128,-1,26
 116 -12 116 -12 101.5 4.5 c 128,-1,27
 87 21 87 21 87 46 c 128,-1,28
 87 71 87 71 104 89 c 128,-1,29
 121 107 121 107 148.5 107 c 128,-1,30
 176 107 176 107 191 90.5 c 128,-1,31
 206 74 206 74 206 49 c 128,-1,24
 206 24 206 24 188.5 6 c 128,-1,25
EndSplineSet
EndChar

StartChar: at
Encoding: 64 64 35
Width: 832
GlyphClass: 2
Flags: W
LayerCount: 2
Fore
SplineSet
477 -12 m 0,0,1
 441 -12 441 -12 441 17 c 0,2,3
 441 37 441 37 484 225 c 1,4,-1
 478 227 l 1,5,6
 388 56 388 56 291 -12 c 1,7,8
 252 -12 252 -12 231.5 25 c 128,-1,9
 211 62 211 62 211 134 c 128,-1,10
 211 206 211 206 246 285 c 128,-1,11
 281 364 281 364 334 412 c 128,-1,12
 387 460 387 460 440 460 c 1,13,-1
 540 444 l 1,14,-1
 549 469 l 1,15,-1
 554 470 l 1,16,-1
 585 455 l 1,17,-1
 593 443 l 1,18,19
 535 244 535 244 509 58 c 1,20,-1
 513 54 l 1,21,22
 619 54 619 54 674.5 115 c 128,-1,23
 730 176 730 176 730 280 c 0,24,25
 730 410 730 410 650 483.5 c 128,-1,26
 570 557 570 557 428.5 557 c 128,-1,27
 287 557 287 557 195.5 454.5 c 128,-1,28
 104 352 104 352 104 201.5 c 128,-1,29
 104 51 104 51 192.5 -52.5 c 128,-1,30
 281 -156 281 -156 457 -166 c 1,31,-1
 457 -173 l 1,32,-1
 431 -209 l 1,33,34
 243 -200 243 -200 138 -88 c 128,-1,35
 33 24 33 24 33 188 c 0,36,37
 33 270 33 270 63.5 346.5 c 128,-1,38
 94 423 94 423 148 482.5 c 128,-1,39
 202 542 202 542 283.5 577.5 c 128,-1,40
 365 613 365 613 460 613 c 0,41,42
 609 613 609 613 704 524.5 c 128,-1,43
 799 436 799 436 799 305 c 128,-1,44
 799 174 799 174 713.5 81 c 128,-1,45
 628 -12 628 -12 477 -12 c 0,0,1
310 69 m 0,46,47
 337 69 337 69 395.5 156 c 128,-1,48
 454 243 454 243 510 373 c 1,49,50
 456 406 456 406 408.5 406 c 128,-1,51
 361 406 361 406 321 335 c 128,-1,52
 281 264 281 264 281 173 c 0,53,54
 281 131 281 131 289.5 100 c 128,-1,55
 298 69 298 69 310 69 c 0,46,47
EndSplineSet
EndChar

StartChar: A
Encoding: 65 65 36
Width: 578
GlyphClass: 2
Flags: W
LayerCount: 2
Fore
SplineSet
329 -10 m 1,0,-1
 326 -3 l 1,1,-1
 330 36 l 1,2,3
 381 40 381 40 400 48 c 128,-1,4
 419 56 419 56 419 75 c 128,-1,5
 419 94 419 94 410 122 c 2,6,-1
 377 231 l 1,7,8
 353 232 353 232 289 232 c 128,-1,9
 225 232 225 232 164 224 c 1,10,-1
 127 120 l 2,11,12
 118 93 118 93 118 81 c 0,13,14
 118 40 118 40 178 40 c 2,15,-1
 235 40 l 1,16,-1
 237 36 l 1,17,-1
 231 -7 l 1,18,19
 158 0 158 0 92 0 c 1,20,-1
 -18 -3 l 1,21,-1
 -10 44 l 1,22,23
 18 47 18 47 35 63.5 c 128,-1,24
 52 80 52 80 68 121 c 2,25,-1
 263 632 l 1,26,-1
 326 649 l 1,27,-1
 334 649 l 1,28,29
 418 338 418 338 493 113 c 0,30,31
 505 76 505 76 525 61 c 128,-1,32
 545 46 545 46 589 42 c 1,33,-1
 591 38 l 1,34,-1
 584 -3 l 1,35,36
 512 0 512 0 460.5 0 c 128,-1,37
 409 0 409 0 329 -10 c 1,0,-1
270 273 m 2,38,39
 306 273 306 273 363 278 c 1,40,-1
 284 540 l 1,41,-1
 277 540 l 1,42,-1
 182 273 l 1,43,-1
 270 273 l 2,38,39
EndSplineSet
EndChar

StartChar: B
Encoding: 66 66 37
Width: 597
GlyphClass: 2
Flags: W
LayerCount: 2
Fore
SplineSet
242 -5 m 128,-1,1
 198 0 198 0 174 0 c 0,2,3
 128 0 128 0 58 -12 c 1,4,-1
 64 34 l 1,5,6
 110 43 110 43 126 60.5 c 128,-1,7
 142 78 142 78 142 120 c 2,8,-1
 143 540 l 2,9,10
 143 572 143 572 135.5 583 c 128,-1,11
 128 594 128 594 106 594 c 1,12,-1
 72 592 l 1,13,-1
 70 596 l 1,14,-1
 77 640 l 1,15,16
 150 637 150 637 188 637 c 1,17,-1
 306 641 l 1,18,19
 401 641 401 641 452 601.5 c 128,-1,20
 503 562 503 562 503 489 c 0,21,22
 503 439 503 439 472.5 399 c 128,-1,23
 442 359 442 359 387 335 c 1,24,25
 460 319 460 319 501 279 c 128,-1,26
 542 239 542 239 542 183 c 0,27,28
 542 105 542 105 472 47.5 c 128,-1,29
 402 -10 402 -10 307 -10 c 0,30,0
 286 -10 286 -10 242 -5 c 128,-1,1
239 57 m 128,-1,32
 265 41 265 41 326 41 c 128,-1,33
 387 41 387 41 421.5 74.5 c 128,-1,34
 456 108 456 108 456 165 c 0,35,36
 456 276 456 276 321 300 c 1,37,-1
 217 298 l 1,38,-1
 213 111 l 2,39,31
 213 73 213 73 239 57 c 128,-1,32
422 472 m 0,40,41
 422 536 422 536 379 567 c 128,-1,42
 336 598 336 598 246 598 c 0,43,44
 236 598 236 598 232 594 c 0,45,46
 224 583 224 583 219 351 c 1,47,48
 313 343 313 343 322.5 343.5 c 128,-1,49
 332 344 332 344 338 346 c 128,-1,50
 344 348 344 348 360.5 357.5 c 128,-1,51
 377 367 377 367 389.5 380 c 128,-1,52
 402 393 402 393 412 417.5 c 128,-1,53
 422 442 422 442 422 472 c 0,40,41
EndSplineSet
EndChar

StartChar: C
Encoding: 67 67 38
Width: 629
GlyphClass: 2
Flags: W
LayerCount: 2
Fore
SplineSet
544 28 m 1,0,1
 458 -12 458 -12 330 -12 c 128,-1,2
 202 -12 202 -12 121 71.5 c 128,-1,3
 40 155 40 155 40 302 c 128,-1,4
 40 449 40 449 139 549 c 128,-1,5
 238 649 238 649 389 649 c 0,6,7
 463 649 463 649 563 625 c 1,8,-1
 567 619 l 1,9,10
 548 544 548 544 542 452 c 1,11,-1
 494 448 l 1,12,13
 497 475 497 475 497 497 c 0,14,15
 497 590 497 590 350 590 c 0,16,17
 249 590 249 590 189.5 519.5 c 128,-1,18
 130 449 130 449 130 323.5 c 128,-1,19
 130 198 130 198 192.5 118 c 128,-1,20
 255 38 255 38 359 38 c 0,21,22
 427 38 427 38 468.5 76.5 c 128,-1,23
 510 115 510 115 529 196 c 1,24,-1
 577 200 l 1,25,26
 557 109 557 109 550 37 c 1,27,-1
 544 28 l 1,0,1
EndSplineSet
EndChar

StartChar: D
Encoding: 68 68 39
Width: 703
GlyphClass: 2
Flags: W
LayerCount: 2
Fore
SplineSet
317 -12 m 1,0,1
 224 0 224 0 188 0 c 0,2,3
 128 0 128 0 58 -12 c 1,4,-1
 64 34 l 1,5,6
 110 43 110 43 126 60.5 c 128,-1,7
 142 78 142 78 142 120 c 2,8,-1
 143 540 l 2,9,10
 143 572 143 572 135.5 583 c 128,-1,11
 128 594 128 594 106 594 c 1,12,-1
 72 592 l 1,13,-1
 70 596 l 1,14,-1
 77 640 l 1,15,16
 144 637 144 637 182 637 c 2,17,-1
 334 641 l 1,18,19
 480 641 480 641 571.5 558 c 128,-1,20
 663 475 663 475 663 334 c 128,-1,21
 663 193 663 193 563 90.5 c 128,-1,22
 463 -12 463 -12 317 -12 c 1,0,1
265 592 m 0,23,24
 244 592 244 592 237 587.5 c 128,-1,25
 230 583 230 583 229 570 c 0,26,27
 214 185 214 185 214 130.5 c 128,-1,28
 214 76 214 76 239 57.5 c 128,-1,29
 264 39 264 39 340 39 c 0,30,31
 448 39 448 39 510 113.5 c 128,-1,32
 572 188 572 188 572 319 c 128,-1,33
 572 450 572 450 492.5 521 c 128,-1,34
 413 592 413 592 265 592 c 0,23,24
EndSplineSet
EndChar

StartChar: E
Encoding: 69 69 40
Width: 591
GlyphClass: 2
Flags: W
LayerCount: 2
Fore
SplineSet
219 354 m 1,0,-1
 322 353 l 1,1,-1
 444 364 l 1,2,-1
 448 359 l 1,3,-1
 434 300 l 1,4,5
 348 303 348 303 302.5 303 c 128,-1,6
 257 303 257 303 217 296 c 1,7,8
 213 152 213 152 213 108 c 128,-1,9
 213 64 213 64 225.5 54.5 c 128,-1,10
 238 45 238 45 307 45 c 128,-1,11
 376 45 376 45 411 53.5 c 128,-1,12
 446 62 446 62 461.5 85.5 c 128,-1,13
 477 109 477 109 485 167 c 1,14,-1
 529 172 l 1,15,-1
 532 167 l 1,16,17
 514 84 514 84 505 -1 c 1,18,-1
 500 -7 l 1,19,20
 292 0 292 0 228 0 c 0,21,22
 130 0 130 0 58 -10 c 1,23,-1
 64 36 l 1,24,25
 109 42 109 42 125.5 59.5 c 128,-1,26
 142 77 142 77 142 120 c 2,27,-1
 143 540 l 2,28,29
 143 572 143 572 135.5 583 c 128,-1,30
 128 594 128 594 106 594 c 1,31,-1
 72 592 l 1,32,-1
 70 596 l 1,33,-1
 77 640 l 1,34,35
 156 637 156 637 292 637 c 128,-1,36
 428 637 428 637 516 649 c 1,37,-1
 519 643 l 1,38,39
 502 569 502 569 496 477 c 1,40,-1
 448 473 l 1,41,42
 450 502 450 502 450 516 c 0,43,44
 450 565 450 565 426.5 576 c 128,-1,45
 403 587 403 587 325.5 587 c 128,-1,46
 248 587 248 587 238 581.5 c 128,-1,47
 228 576 228 576 227 548 c 2,48,-1
 219 354 l 1,0,-1
EndSplineSet
EndChar

StartChar: F
Encoding: 70 70 41
Width: 512
GlyphClass: 2
Flags: W
LayerCount: 2
Fore
SplineSet
321 -4 m 1,0,1
 226 0 226 0 188 0 c 0,2,3
 128 0 128 0 58 -12 c 1,4,-1
 64 34 l 1,5,6
 110 43 110 43 126 60.5 c 128,-1,7
 142 78 142 78 142 120 c 2,8,-1
 143 540 l 2,9,10
 143 572 143 572 135.5 583 c 128,-1,11
 128 594 128 594 106 594 c 1,12,-1
 72 592 l 1,13,-1
 70 596 l 1,14,-1
 77 640 l 1,15,16
 156 637 156 637 284.5 637 c 128,-1,17
 413 637 413 637 497 649 c 1,18,-1
 500 643 l 1,19,20
 483 566 483 566 477 474 c 1,21,-1
 429 470 l 1,22,23
 431 502 431 502 431 516 c 0,24,25
 431 565 431 565 410 576 c 128,-1,26
 389 587 389 587 318.5 587 c 128,-1,27
 248 587 248 587 238 581.5 c 128,-1,28
 228 576 228 576 227 548 c 2,29,-1
 219 337 l 1,30,-1
 322 336 l 1,31,-1
 427 347 l 1,32,-1
 431 342 l 1,33,-1
 417 282 l 1,34,35
 341 285 341 285 299 285 c 128,-1,36
 257 285 257 285 217 278 c 1,37,-1
 213 112 l 2,38,39
 213 71 213 71 222 57.5 c 128,-1,40
 231 44 231 44 257 44 c 1,41,-1
 328 47 l 1,42,-1
 330 43 l 1,43,-1
 321 -4 l 1,0,1
EndSplineSet
EndChar

StartChar: G
Encoding: 71 71 42
Width: 667
GlyphClass: 2
Flags: W
LayerCount: 2
Fore
SplineSet
567.5 237.5 m 128,-1,1
 561 205 561 205 561 139 c 128,-1,2
 561 73 561 73 568 43 c 1,3,-1
 562 34 l 1,4,5
 519 16 519 16 453.5 2 c 128,-1,6
 388 -12 388 -12 332 -12 c 0,7,8
 198 -12 198 -12 119 71.5 c 128,-1,9
 40 155 40 155 40 304.5 c 128,-1,10
 40 454 40 454 137 551.5 c 128,-1,11
 234 649 234 649 391 649 c 0,12,13
 465 649 465 649 585 625 c 1,14,-1
 589 619 l 1,15,16
 569 544 569 544 563 452 c 1,17,-1
 516 448 l 1,18,19
 519 475 519 475 519 502 c 0,20,21
 519 548 519 548 483.5 569 c 128,-1,22
 448 590 448 590 368 590 c 0,23,24
 254 590 254 590 190.5 521.5 c 128,-1,25
 127 453 127 453 127 325 c 128,-1,26
 127 197 127 197 189.5 117.5 c 128,-1,27
 252 38 252 38 355 38 c 0,28,29
 391 38 391 38 425 47.5 c 128,-1,30
 459 57 459 57 492 76 c 1,31,-1
 492 198 l 2,32,33
 492 232 492 232 481.5 242 c 128,-1,34
 471 252 471 252 437 252 c 2,35,-1
 368 252 l 1,36,-1
 366 256 l 1,37,-1
 375 306 l 1,38,39
 443 302 443 302 502 302 c 1,40,-1
 588 307 l 1,41,-1
 592 285 l 1,42,0
 574 270 574 270 567.5 237.5 c 128,-1,1
EndSplineSet
EndChar

StartChar: H
Encoding: 72 72 43
Width: 754
GlyphClass: 2
Flags: W
LayerCount: 2
Fore
SplineSet
606 112 m 0,0,1
 606 71 606 71 615 57.5 c 128,-1,2
 624 44 624 44 650 44 c 1,3,-1
 695 47 l 1,4,-1
 697 43 l 1,5,-1
 688 -3 l 1,6,7
 609 0 609 0 565 0 c 2,8,-1
 450 -2 l 1,9,-1
 459 43 l 1,10,11
 506 44 506 44 520.5 64 c 128,-1,12
 535 84 535 84 535 150 c 2,13,-1
 535 301 l 1,14,15
 429 302 429 302 383 302 c 1,16,-1
 217 291 l 1,17,-1
 213 112 l 2,18,19
 213 71 213 71 222 57.5 c 128,-1,20
 231 44 231 44 257 44 c 1,21,-1
 302 47 l 1,22,-1
 304 43 l 1,23,-1
 295 -3 l 2,24,25
 295 0 295 0 230.5 0 c 128,-1,26
 166 0 166 0 112.5 -4 c 128,-1,27
 59 -8 59 -8 58 -12 c 2,28,-1
 64 34 l 1,29,30
 110 43 110 43 126 60.5 c 128,-1,31
 142 78 142 78 142 120 c 2,32,-1
 143 540 l 2,33,34
 143 572 143 572 135.5 583 c 128,-1,35
 128 594 128 594 106 594 c 1,36,-1
 72 592 l 1,37,-1
 70 596 l 1,38,-1
 77 640 l 1,39,40
 150 637 150 637 178 637 c 0,41,42
 219 637 219 637 295 646 c 1,43,-1
 291 601 l 1,44,45
 248 594 248 594 237.5 579.5 c 128,-1,46
 227 565 227 565 225 511 c 2,47,-1
 219 349 l 1,48,-1
 387 348 l 2,49,50
 451 348 451 348 535 358 c 1,51,-1
 536 540 l 2,52,53
 536 572 536 572 528.5 583 c 128,-1,54
 521 594 521 594 499 594 c 1,55,-1
 465 592 l 1,56,-1
 463 596 l 1,57,-1
 470 640 l 2,58,59
 470 637 470 637 530 637 c 0,60,61
 600 637 600 637 688 646 c 1,62,-1
 684 601 l 1,63,64
 647 596 647 596 634.5 584.5 c 128,-1,65
 622 573 622 573 620 544 c 0,66,67
 606 252 606 252 606 112 c 0,0,1
EndSplineSet
EndChar

StartChar: I
Encoding: 73 73 44
Width: 361
GlyphClass: 2
Flags: W
LayerCount: 2
Fore
SplineSet
213 112 m 0,0,1
 213 71 213 71 222 57.5 c 128,-1,2
 231 44 231 44 257 44 c 1,3,-1
 310 47 l 1,4,-1
 312 43 l 1,5,-1
 303 -3 l 1,6,7
 219 0 219 0 184 0 c 0,8,9
 126 0 126 0 56 -12 c 1,10,-1
 62 34 l 1,11,12
 109 43 109 43 125.5 60.5 c 128,-1,13
 142 78 142 78 142 120 c 2,14,-1
 143 540 l 2,15,16
 143 572 143 572 135.5 583 c 128,-1,17
 128 594 128 594 106 594 c 1,18,-1
 64 592 l 1,19,-1
 62 596 l 1,20,-1
 69 640 l 1,21,22
 147 637 147 637 178 637 c 0,23,24
 220 637 220 637 303 646 c 1,25,-1
 299 601 l 1,26,27
 257 596 257 596 243 584.5 c 128,-1,28
 229 573 229 573 227 544 c 0,29,30
 213 254 213 254 213 112 c 0,0,1
EndSplineSet
EndChar

StartChar: J
Encoding: 74 74 45
Width: 327
GlyphClass: 2
Flags: W
LayerCount: 2
Fore
SplineSet
131 115 m 2,0,-1
 132 540 l 2,1,2
 132 572 132 572 125 582.5 c 128,-1,3
 118 593 118 593 95 593 c 1,4,-1
 48 589 l 1,5,-1
 46 593 l 1,6,-1
 53 637 l 1,7,-1
 161 637 l 1,8,-1
 277 646 l 1,9,-1
 273 601 l 1,10,11
 238 596 238 596 228 586 c 128,-1,12
 218 576 218 576 216 544 c 0,13,14
 205 306 205 306 203 116 c 0,15,16
 202 14 202 14 163.5 -47.5 c 128,-1,17
 125 -109 125 -109 40 -144 c 1,18,-1
 23 -111 l 1,19,-1
 26 -103 l 1,20,21
 87 -66 87 -66 109 -20.5 c 128,-1,22
 131 25 131 25 131 115 c 2,0,-1
EndSplineSet
EndChar

StartChar: K
Encoding: 75 75 46
Width: 628
GlyphClass: 2
Flags: W
LayerCount: 2
Fore
SplineSet
77 640 m 1,0,1
 150 637 150 637 178 637 c 0,2,3
 219 637 219 637 295 646 c 1,4,-1
 291 601 l 1,5,6
 254 595 254 595 240 582.5 c 128,-1,7
 226 570 226 570 225 541 c 0,8,9
 213 108 213 108 213 89.5 c 128,-1,10
 213 71 213 71 221.5 57.5 c 128,-1,11
 230 44 230 44 257 44 c 1,12,-1
 302 47 l 1,13,-1
 304 43 l 1,14,-1
 295 -3 l 1,15,16
 216 0 216 0 172 0 c 2,17,-1
 57 -1 l 1,18,-1
 67 44 l 1,19,20
 114 49 114 49 128 63 c 128,-1,21
 142 77 142 77 142 120 c 2,22,-1
 143 540 l 2,23,24
 143 572 143 572 135.5 583 c 128,-1,25
 128 594 128 594 106 594 c 1,26,-1
 72 592 l 1,27,-1
 70 596 l 1,28,-1
 77 640 l 1,0,1
453 567 m 0,29,30
 453 593 453 593 390 597 c 1,31,-1
 388 601 l 1,32,-1
 395 644 l 1,33,34
 468 637 468 637 505 637 c 1,35,-1
 597 641 l 1,36,-1
 601 634 l 1,37,-1
 594 593 l 1,38,39
 568 588 568 588 546 572 c 128,-1,40
 524 556 524 556 479 509 c 2,41,-1
 318 340 l 1,42,-1
 486 121 l 2,43,44
 522 74 522 74 550.5 55 c 128,-1,45
 579 36 579 36 614 36 c 1,46,-1
 618 32 l 1,47,-1
 612 -2 l 1,48,49
 540 -14 540 -14 529 -14 c 0,50,51
 479 -14 479 -14 417 72 c 2,52,-1
 242 315 l 1,53,-1
 243 329 l 1,54,-1
 422 515 l 2,55,56
 453 546 453 546 453 567 c 0,29,30
EndSplineSet
EndChar

StartChar: L
Encoding: 76 76 47
Width: 507
GlyphClass: 2
Flags: W
LayerCount: 2
Fore
SplineSet
471 -9 m 1,0,1
 297 0 297 0 233 0 c 0,2,3
 136 0 136 0 68 -10 c 1,4,-1
 74 36 l 1,5,6
 113 42 113 42 127.5 59.5 c 128,-1,7
 142 77 142 77 142 120 c 2,8,-1
 143 540 l 2,9,10
 143 572 143 572 135.5 583 c 128,-1,11
 128 594 128 594 106 594 c 1,12,-1
 72 592 l 1,13,-1
 70 596 l 1,14,-1
 77 640 l 1,15,16
 151 637 151 637 180 637 c 0,17,18
 220 637 220 637 296 646 c 1,19,-1
 292 601 l 1,20,21
 281 599 281 599 272.5 597.5 c 128,-1,22
 264 596 264 596 257.5 593 c 128,-1,23
 251 590 251 590 246.5 588.5 c 128,-1,24
 242 587 242 587 238.5 580.5 c 128,-1,25
 235 574 235 574 233.5 571.5 c 128,-1,26
 232 569 232 569 230.5 559.5 c 128,-1,27
 229 550 229 550 228 546 c 0,28,29
 226 526 226 526 226 508 c 1,30,31
 214 341 214 341 214 122 c 0,32,33
 214 71 214 71 228.5 58 c 128,-1,34
 243 45 243 45 314.5 45 c 128,-1,35
 386 45 386 45 413.5 70 c 128,-1,36
 441 95 441 95 458 187 c 1,37,-1
 502 192 l 1,38,-1
 505 187 l 1,39,40
 487 96 487 96 476 -3 c 1,41,-1
 471 -9 l 1,0,1
EndSplineSet
EndChar

StartChar: M
Encoding: 77 77 48
Width: 847
GlyphClass: 2
Flags: W
LayerCount: 2
Fore
SplineSet
198 520 m 1,0,1
 164 101 164 101 164 72.5 c 128,-1,2
 164 44 164 44 195 44 c 2,3,-1
 236 45 l 1,4,-1
 238 41 l 1,5,-1
 229 -4 l 1,6,7
 165 0 165 0 140 0 c 0,8,9
 96 0 96 0 46 -8 c 1,10,-1
 51 38 l 1,11,12
 83 42 83 42 97 58.5 c 128,-1,13
 111 75 111 75 115 115 c 0,14,15
 159 516 159 516 159 544.5 c 128,-1,16
 159 573 159 573 138.5 586 c 128,-1,17
 118 599 118 599 72 602 c 1,18,-1
 69 607 l 1,19,-1
 77 642 l 1,20,21
 154 637 154 637 186 637 c 1,22,-1
 254 641 l 1,23,24
 339 368 339 368 423 145 c 1,25,-1
 428 145 l 1,26,27
 506 353 506 353 601 639 c 1,28,29
 649 637 649 637 667 637 c 2,30,-1
 775 643 l 1,31,-1
 777 639 l 1,32,-1
 772 602 l 1,33,34
 729 597 729 597 711 584.5 c 128,-1,35
 693 572 693 572 693 547 c 0,36,37
 693 470 693 470 719 139 c 1,38,39
 726 80 726 80 735 62 c 128,-1,40
 744 44 744 44 768 44 c 1,41,-1
 796 46 l 1,42,-1
 798 42 l 1,43,-1
 789 -3 l 1,44,45
 730 0 730 0 694 0 c 1,46,-1
 590 -8 l 1,47,-1
 594 38 l 1,48,49
 653 45 653 45 653 88 c 1,50,-1
 619 520 l 1,51,-1
 614 520 l 1,52,-1
 421 -12 l 1,53,-1
 397 -19 l 1,54,-1
 203 520 l 1,55,-1
 198 520 l 1,0,1
EndSplineSet
EndChar

StartChar: N
Encoding: 78 78 49
Width: 719
GlyphClass: 2
Flags: W
LayerCount: 2
Fore
SplineSet
556 145 m 1,0,-1
 556 550 l 2,1,2
 556 593 556 593 523 593 c 2,3,-1
 485 592 l 1,4,-1
 483 596 l 1,5,-1
 492 641 l 1,6,7
 553 637 553 637 580 637 c 0,8,9
 624 637 624 637 686 645 c 1,10,-1
 681 599 l 1,11,12
 646 594 646 594 630 579.5 c 128,-1,13
 614 565 614 565 613 536 c 2,14,-1
 599 -26 l 1,15,-1
 570 -40 l 1,16,17
 389 241 389 241 198 511 c 1,18,-1
 193 511 l 1,19,-1
 188 84 l 2,20,21
 188 62 188 62 195 53 c 128,-1,22
 202 44 202 44 219 44 c 2,23,-1
 270 45 l 1,24,-1
 272 41 l 1,25,-1
 263 -4 l 1,26,27
 200 0 200 0 170 0 c 0,28,29
 122 0 122 0 64 -8 c 1,30,-1
 69 38 l 1,31,32
 130 45 130 45 131 101 c 2,33,-1
 144 538 l 2,34,35
 144 569 144 569 125.5 582 c 128,-1,36
 107 595 107 595 57 600 c 1,37,-1
 54 605 l 1,38,-1
 62 642 l 1,39,40
 120 637 120 637 148 637 c 1,41,-1
 215 641 l 1,42,43
 363 411 363 411 551 145 c 1,44,-1
 556 145 l 1,0,-1
EndSplineSet
EndChar

StartChar: O
Encoding: 79 79 50
Width: 692
GlyphClass: 2
Flags: W
LayerCount: 2
Fore
SplineSet
188 120 m 128,-1,1
 250 39 250 39 346.5 39 c 128,-1,2
 443 39 443 39 503 111.5 c 128,-1,3
 563 184 563 184 563 305.5 c 128,-1,4
 563 427 563 427 499.5 508 c 128,-1,5
 436 589 436 589 339 589 c 128,-1,6
 242 589 242 589 184 517 c 128,-1,7
 126 445 126 445 126 323 c 128,-1,0
 126 201 126 201 188 120 c 128,-1,1
317 -12 m 0,8,9
 194 -12 194 -12 117 74 c 128,-1,10
 40 160 40 160 40 302.5 c 128,-1,11
 40 445 40 445 135 547 c 128,-1,12
 230 649 230 649 362 649 c 128,-1,13
 494 649 494 649 573 563 c 128,-1,14
 652 477 652 477 652 334.5 c 128,-1,15
 652 192 652 192 555.5 90 c 128,-1,16
 459 -12 459 -12 317 -12 c 0,8,9
EndSplineSet
EndChar

StartChar: P
Encoding: 80 80 51
Width: 551
GlyphClass: 2
Flags: W
LayerCount: 2
Fore
SplineSet
473 595 m 128,-1,1
 528 549 528 549 528 463.5 c 128,-1,2
 528 378 528 378 458 311 c 128,-1,3
 388 244 388 244 299 244 c 2,4,-1
 215 244 l 1,5,-1
 213 146 l 1,6,7
 213 78 213 78 220.5 61 c 128,-1,8
 228 44 228 44 257 44 c 1,9,-1
 311 47 l 1,10,-1
 313 43 l 1,11,-1
 304 -3 l 2,12,13
 304 0 304 0 238 0 c 128,-1,14
 172 0 172 0 118.5 -3 c 128,-1,15
 65 -6 65 -6 63 -8 c 1,16,-1
 70 38 l 1,17,18
 114 46 114 46 128 61.5 c 128,-1,19
 142 77 142 77 142 120 c 2,20,-1
 143 540 l 2,21,22
 143 572 143 572 135.5 583 c 128,-1,23
 128 594 128 594 106 594 c 1,24,-1
 72 592 l 1,25,-1
 70 596 l 1,26,-1
 77 640 l 1,27,28
 150 637 150 637 188 637 c 1,29,-1
 314 641 l 1,30,0
 418 641 418 641 473 595 c 128,-1,1
444 444 m 0,31,32
 444 521 444 521 398.5 556.5 c 128,-1,33
 353 592 353 592 256 592 c 0,34,35
 238 592 238 592 234 590 c 128,-1,36
 230 588 230 588 229 578 c 0,37,38
 220 451 220 451 217 303 c 1,39,-1
 323 288 l 1,40,41
 444 308 444 308 444 444 c 0,31,32
EndSplineSet
EndChar

StartChar: Q
Encoding: 81 81 52
Width: 697
GlyphClass: 2
Flags: W
LayerCount: 2
Fore
SplineSet
407 -5 m 1,0,1
 601 -137 601 -137 705 -137 c 0,2,3
 756 -137 756 -137 794 -127 c 1,4,-1
 798 -130 l 1,5,-1
 804 -148 l 1,6,7
 729 -216 729 -216 709 -216 c 0,8,9
 638 -216 638 -216 566.5 -179 c 128,-1,10
 495 -142 495 -142 317 -12 c 1,11,12
 194 -12 194 -12 117 74 c 128,-1,13
 40 160 40 160 40 302.5 c 128,-1,14
 40 445 40 445 135 547 c 128,-1,15
 230 649 230 649 362 649 c 128,-1,16
 494 649 494 649 573 563 c 128,-1,17
 652 477 652 477 652 347.5 c 128,-1,18
 652 218 652 218 583.5 124 c 128,-1,19
 515 30 515 30 407 0 c 1,20,-1
 407 -5 l 1,0,1
188 120 m 128,-1,22
 250 39 250 39 346.5 39 c 128,-1,23
 443 39 443 39 503 111.5 c 128,-1,24
 563 184 563 184 563 305.5 c 128,-1,25
 563 427 563 427 499.5 508 c 128,-1,26
 436 589 436 589 339 589 c 128,-1,27
 242 589 242 589 184 517 c 128,-1,28
 126 445 126 445 126 323 c 128,-1,21
 126 201 126 201 188 120 c 128,-1,22
EndSplineSet
EndChar

StartChar: R
Encoding: 82 82 53
Width: 611
GlyphClass: 2
Flags: W
LayerCount: 2
Fore
SplineSet
458 599 m 128,-1,1
 512 557 512 557 512 490 c 0,2,3
 512 359 512 359 365 292 c 1,4,-1
 475 118 l 1,5,6
 504 70 504 70 531.5 51.5 c 128,-1,7
 559 33 559 33 599 33 c 1,8,-1
 603 29 l 1,9,-1
 597 -5 l 1,10,-1
 512 -16 l 1,11,12
 487 -16 487 -16 458.5 9.5 c 128,-1,13
 430 35 430 35 406 79 c 2,14,-1
 299 273 l 1,15,-1
 216 273 l 1,16,-1
 213 124 l 1,17,18
 213 70 213 70 225 56 c 128,-1,19
 237 42 237 42 285 42 c 1,20,-1
 287 38 l 1,21,-1
 278 -4 l 2,22,23
 278 -3 278 -3 172 -1 c 1,24,-1
 57 -4 l 1,25,-1
 66 41 l 1,26,27
 113 46 113 46 127.5 61.5 c 128,-1,28
 142 77 142 77 142 120 c 2,29,-1
 143 540 l 2,30,31
 143 572 143 572 135.5 583 c 128,-1,32
 128 594 128 594 106 594 c 1,33,-1
 72 592 l 1,34,-1
 70 596 l 1,35,-1
 77 640 l 1,36,37
 150 637 150 637 188 637 c 1,38,-1
 311 641 l 1,39,0
 404 641 404 641 458 599 c 128,-1,1
429 466 m 0,40,41
 429 598 429 598 246 598 c 0,42,43
 236 598 236 598 232.5 593.5 c 128,-1,44
 229 589 229 589 228 575 c 0,45,46
 219 422 219 422 218 329 c 1,47,-1
 321 319 l 1,48,49
 358 328 358 328 392 363 c 0,50,51
 406 378 406 378 417.5 405.5 c 128,-1,52
 429 433 429 433 429 466 c 0,40,41
EndSplineSet
EndChar

StartChar: S
Encoding: 83 83 54
Width: 530
GlyphClass: 2
Flags: W
LayerCount: 2
Fore
SplineSet
219 -12 m 0,0,1
 177 -12 177 -12 138 -3.5 c 128,-1,2
 99 5 99 5 62 22 c 1,3,-1
 57 32 l 1,4,5
 69 109 69 109 69 206 c 1,6,-1
 114 211 l 1,7,8
 114 103 114 103 138.5 70 c 128,-1,9
 163 37 163 37 235 37 c 128,-1,10
 307 37 307 37 345 66.5 c 128,-1,11
 383 96 383 96 383 147 c 0,12,13
 383 191 383 191 338 225 c 0,14,15
 305 250 305 250 272 267 c 128,-1,16
 239 284 239 284 237.5 284.5 c 128,-1,17
 236 285 236 285 234.5 286 c 128,-1,18
 233 287 233 287 213 297.5 c 128,-1,19
 193 308 193 308 170.5 321.5 c 128,-1,20
 148 335 148 335 121 358 c 0,21,22
 68 402 68 402 68 463 c 0,23,24
 68 542 68 542 134.5 595.5 c 128,-1,25
 201 649 201 649 298 649 c 0,26,27
 374 649 374 649 451 624 c 1,28,-1
 454 618 l 1,29,30
 438 541 438 541 432 449 c 1,31,-1
 393 445 l 1,32,-1
 387 450 l 1,33,34
 390 471 390 471 390 502 c 0,35,36
 390 555 390 555 364 575 c 128,-1,37
 338 595 338 595 277 595 c 128,-1,38
 216 595 216 595 180.5 567.5 c 128,-1,39
 145 540 145 540 145 499.5 c 128,-1,40
 145 459 145 459 179.5 429.5 c 128,-1,41
 214 400 214 400 297 357 c 128,-1,42
 380 314 380 314 412 286 c 0,43,44
 466 240 466 240 466 183 c 0,45,46
 466 97 466 97 397 42.5 c 128,-1,47
 328 -12 328 -12 219 -12 c 0,0,1
EndSplineSet
EndChar

StartChar: T
Encoding: 84 84 55
Width: 546
GlyphClass: 2
Flags: W
LayerCount: 2
Fore
SplineSet
233 162 m 2,0,-1
 233 598 l 1,1,2
 186 596 186 596 165.5 595 c 128,-1,3
 145 594 145 594 121.5 588 c 128,-1,4
 98 582 98 582 91.5 577 c 128,-1,5
 85 572 85 572 75.5 554.5 c 128,-1,6
 66 537 66 537 63.5 522 c 128,-1,7
 61 507 61 507 56 472 c 1,8,-1
 9 468 l 1,9,10
 21 556 21 556 24 641 c 1,11,-1
 33 649 l 1,12,-1
 116 638 l 1,13,-1
 426 638 l 1,14,-1
 511 649 l 1,15,-1
 520 641 l 1,16,17
 522 576 522 576 535 472 c 1,18,-1
 488 468 l 1,19,20
 482 503 482 503 479 519 c 128,-1,21
 476 535 476 535 467 553 c 128,-1,22
 458 571 458 571 451 576 c 128,-1,23
 444 581 444 581 422.5 587.5 c 128,-1,24
 401 594 401 594 381 595 c 128,-1,25
 361 596 361 596 319 598 c 1,26,27
 303 438 303 438 303 112 c 0,28,29
 303 75 303 75 316 59.5 c 128,-1,30
 329 44 329 44 360 44 c 1,31,-1
 415 47 l 1,32,-1
 418 43 l 1,33,-1
 409 -3 l 1,34,35
 309 0 309 0 262 0 c 1,36,-1
 125 -4 l 1,37,-1
 133 39 l 1,38,39
 203 45 203 45 218 63.5 c 128,-1,40
 233 82 233 82 233 162 c 2,0,-1
EndSplineSet
EndChar

StartChar: U
Encoding: 85 85 56
Width: 681
GlyphClass: 2
Flags: W
LayerCount: 2
Fore
SplineSet
227 98 m 128,-1,1
 270 45 270 45 351.5 45 c 128,-1,2
 433 45 433 45 476 88.5 c 128,-1,3
 519 132 519 132 519 214 c 1,4,-1
 513 540 l 1,5,6
 511 575 511 575 504.5 584.5 c 128,-1,7
 498 594 498 594 476 594 c 1,8,-1
 433 592 l 1,9,-1
 431 596 l 1,10,-1
 438 640 l 1,11,12
 513 637 513 637 542 637 c 0,13,14
 583 637 583 637 648 646 c 1,15,-1
 644 601 l 1,16,17
 600 595 600 595 587.5 585 c 128,-1,18
 575 575 575 575 575 544 c 2,19,-1
 575 208 l 2,20,21
 575 103 575 103 510 45.5 c 128,-1,22
 445 -12 445 -12 333.5 -12 c 128,-1,23
 222 -12 222 -12 165 45.5 c 128,-1,24
 108 103 108 103 108 209 c 2,25,-1
 108 540 l 2,26,27
 108 572 108 572 100.5 583 c 128,-1,28
 93 594 93 594 71 594 c 1,29,-1
 37 592 l 1,30,-1
 35 596 l 1,31,-1
 42 640 l 1,32,33
 117 637 117 637 146 637 c 0,34,35
 186 637 186 637 260 646 c 1,36,-1
 256 601 l 1,37,38
 219 596 219 596 206.5 584.5 c 128,-1,39
 194 573 194 573 192 544 c 1,40,-1
 184 250 l 1,41,0
 184 151 184 151 227 98 c 128,-1,1
EndSplineSet
EndChar

StartChar: V
Encoding: 86 86 57
Width: 610
GlyphClass: 2
Flags: W
LayerCount: 2
Fore
SplineSet
-2 640 m 1,0,1
 80 637 80 637 109 637 c 0,2,3
 170 637 170 637 264 648 c 1,4,-1
 267 641 l 1,5,-1
 263 602 l 1,6,7
 209 598 209 598 191.5 590 c 128,-1,8
 174 582 174 582 174 564 c 0,9,10
 174 531 174 531 300 97 c 1,11,-1
 309 97 l 1,12,13
 475 525 475 525 475 557 c 0,14,15
 475 597 475 597 406 597 c 2,16,-1
 354 597 l 1,17,-1
 352 601 l 1,18,-1
 358 644 l 1,19,20
 435 637 435 637 501 637 c 1,21,-1
 611 640 l 1,22,-1
 603 593 l 1,23,24
 572 592 572 592 560 583 c 128,-1,25
 548 574 548 574 537 545 c 2,26,-1
 322 5 l 1,27,-1
 258 -17 l 1,28,29
 169 276 169 276 85 536 c 0,30,31
 67 592 67 592 -7 593 c 1,32,-1
 -9 597 l 1,33,-1
 -2 640 l 1,0,1
EndSplineSet
EndChar

StartChar: W
Encoding: 87 87 58
Width: 932
GlyphClass: 2
Flags: W
LayerCount: 2
Fore
SplineSet
-6 593 m 1,0,-1
 -7 597 l 1,1,-1
 -1 640 l 1,2,3
 79 637 79 637 112 637 c 0,4,5
 182 637 182 637 257 648 c 1,6,-1
 260 641 l 1,7,-1
 256 602 l 1,8,9
 205 598 205 598 187.5 590 c 128,-1,10
 170 582 170 582 170 563 c 0,11,12
 170 524 170 524 293 97 c 1,13,-1
 299 97 l 1,14,-1
 440 481 l 1,15,-1
 422 536 l 2,16,17
 412 565 412 565 391 578 c 128,-1,18
 370 591 370 591 332 593 c 1,19,-1
 330 597 l 1,20,-1
 337 640 l 1,21,22
 417 637 417 637 447 637 c 0,23,24
 511 637 511 637 595 648 c 1,25,-1
 598 641 l 1,26,-1
 594 602 l 1,27,28
 542 598 542 598 524.5 590 c 128,-1,29
 507 582 507 582 507 564 c 0,30,31
 507 531 507 531 631 97 c 1,32,-1
 637 97 l 1,33,34
 799 534 799 534 799 562 c 0,35,36
 799 597 799 597 731 597 c 2,37,-1
 681 597 l 1,38,-1
 679 601 l 1,39,-1
 686 644 l 1,40,41
 761 637 761 637 825 637 c 1,42,-1
 931 640 l 1,43,-1
 924 593 l 1,44,45
 894 591 894 591 882 582.5 c 128,-1,46
 870 574 870 574 860 545 c 1,47,-1
 650 5 l 1,48,-1
 588 -17 l 1,49,50
 531 188 531 188 463 407 c 1,51,-1
 457 407 l 1,52,-1
 315 5 l 1,53,-1
 251 -17 l 1,54,55
 168 277 168 277 84 536 c 0,56,57
 66 592 66 592 -6 593 c 1,0,-1
EndSplineSet
EndChar

StartChar: X
Encoding: 88 88 59
Width: 656
GlyphClass: 2
Flags: W
LayerCount: 2
Fore
SplineSet
27 640 m 1,0,1
 125 637 125 637 166 637 c 0,2,3
 242 637 242 637 306 645 c 1,4,-1
 309 638 l 1,5,-1
 306 603 l 1,6,7
 228 597 228 597 228 567 c 0,8,9
 228 549 228 549 341 377 c 1,10,11
 351 391 351 391 371.5 417.5 c 128,-1,12
 392 444 392 444 407 464.5 c 128,-1,13
 422 485 422 485 438 508 c 0,14,15
 472 555 472 555 472 571 c 0,16,17
 472 595 472 595 414 601 c 1,18,-1
 412 605 l 1,19,-1
 418 644 l 1,20,21
 491 637 491 637 528 637 c 1,22,-1
 625 641 l 1,23,-1
 629 634 l 1,24,-1
 623 597 l 1,25,26
 580 588 580 588 556 568.5 c 128,-1,27
 532 549 532 549 487 493 c 2,28,-1
 366 340 l 1,29,-1
 512 127 l 2,30,31
 539 87 539 87 570.5 67.5 c 128,-1,32
 602 48 602 48 649 44 c 1,33,-1
 651 40 l 1,34,-1
 644 -3 l 1,35,36
 566 0 566 0 520 0 c 1,37,-1
 365 -8 l 1,38,-1
 362 -1 l 1,39,-1
 366 38 l 1,40,41
 444 42 444 42 444 73 c 0,42,43
 444 88 444 88 424 117 c 2,44,-1
 315 281 l 1,45,46
 192 118 192 118 182 101 c 128,-1,47
 172 84 172 84 172 70 c 0,48,49
 172 44 172 44 230 40 c 1,50,-1
 232 36 l 1,51,-1
 225 -7 l 1,52,53
 152 0 152 0 115 0 c 1,54,-1
 16 -4 l 1,55,-1
 12 3 l 1,56,-1
 19 44 l 1,57,58
 60 56 60 56 95 87.5 c 128,-1,59
 130 119 130 119 181 182 c 2,60,-1
 291 318 l 1,61,-1
 160 514 l 2,62,63
 112 585 112 585 23 597 c 1,64,-1
 21 601 l 1,65,-1
 27 640 l 1,0,1
EndSplineSet
EndChar

StartChar: Y
Encoding: 89 89 60
Width: 538
GlyphClass: 2
Flags: W
LayerCount: 2
Fore
SplineSet
178.5 591.5 m 128,-1,1
 163 584 163 584 163 569 c 128,-1,2
 163 554 163 554 191 489.5 c 128,-1,3
 219 425 219 425 246.5 367 c 128,-1,4
 274 309 274 309 275 309 c 2,5,-1
 280 309 l 1,6,-1
 394 521 l 2,7,8
 410 550 410 550 410 571 c 0,9,10
 410 597 410 597 347 601 c 1,11,-1
 345 605 l 1,12,-1
 351 644 l 1,13,14
 425 637 425 637 462 637 c 1,15,-1
 554 641 l 1,16,-1
 558 634 l 1,17,-1
 552 597 l 1,18,19
 506 588 506 588 486.5 569 c 128,-1,20
 467 550 467 550 431 485 c 0,21,22
 429 481 429 481 428 479 c 2,23,-1
 321 291 l 2,24,25
 304 260 304 260 301 204 c 0,26,27
 299 163 299 163 299 117.5 c 128,-1,28
 299 72 299 72 308 58 c 128,-1,29
 317 44 317 44 343 44 c 1,30,-1
 392 47 l 1,31,-1
 394 43 l 1,32,-1
 385 -3 l 1,33,34
 302 0 302 0 269 0 c 0,35,36
 214 0 214 0 144 -12 c 1,37,-1
 150 34 l 1,38,39
 202 44 202 44 215 64 c 128,-1,40
 228 84 228 84 228 142 c 2,41,-1
 228 186 l 2,42,43
 228 241 228 241 199 299 c 2,44,-1
 109 482 l 2,45,46
 75 552 75 552 61 567 c 0,47,48
 38 592 38 592 -17 597 c 1,49,-1
 -19 601 l 1,50,-1
 -13 640 l 1,51,52
 51 637 51 637 97 637 c 1,53,-1
 239 645 l 1,54,-1
 242 638 l 1,55,-1
 239 603 l 1,56,0
 194 599 194 599 178.5 591.5 c 128,-1,1
EndSplineSet
EndChar

StartChar: Z
Encoding: 90 90 61
Width: 568
GlyphClass: 2
Flags: W
LayerCount: 2
Fore
SplineSet
495 13 m 1,0,-1
 480 -3 l 1,1,-1
 118 3 l 1,2,-1
 48 -3 l 1,3,-1
 34 29 l 1,4,-1
 407 593 l 1,5,-1
 234 587 l 2,6,7
 165 584 165 584 136 554.5 c 128,-1,8
 107 525 107 525 99 449 c 1,9,-1
 52 445 l 1,10,11
 68 548 68 548 70 640 c 1,12,-1
 80 649 l 1,13,-1
 255 638 l 1,14,-1
 513 631 l 1,15,-1
 524 602 l 1,16,17
 333 348 333 348 138 40 c 1,18,-1
 341 47 l 2,19,20
 393 48 393 48 425 88 c 128,-1,21
 457 128 457 128 473 213 c 1,22,-1
 520 218 l 1,23,24
 500 109 500 109 495 13 c 1,0,-1
EndSplineSet
EndChar

StartChar: bracketleft
Encoding: 91 91 62
Width: 309
GlyphClass: 2
Flags: W
LayerCount: 2
Fore
SplineSet
278 -137 m 1,0,-1
 96 -126 l 1,1,2
 107 150 107 150 107 250 c 1,3,-1
 96 629 l 1,4,-1
 280 640 l 1,5,-1
 284 634 l 1,6,-1
 278 603 l 1,7,-1
 164 579 l 1,8,-1
 164 -76 l 1,9,-1
 280 -100 l 1,10,-1
 284 -107 l 1,11,-1
 278 -137 l 1,0,-1
EndSplineSet
EndChar

StartChar: backslash
Encoding: 92 92 63
Width: 329
GlyphClass: 2
Flags: W
LayerCount: 2
Fore
SplineSet
37 665 m 1,0,-1
 45 675 l 1,1,-1
 91 675 l 1,2,3
 228 141 228 141 248.5 67.5 c 128,-1,4
 269 -6 269 -6 298 -102 c 1,5,-1
 291 -110 l 1,6,-1
 243 -110 l 1,7,8
 201 50 201 50 159 215 c 1,9,-1
 37 665 l 1,0,-1
EndSplineSet
EndChar

StartChar: bracketright
Encoding: 93 93 64
Width: 309
GlyphClass: 2
Flags: W
LayerCount: 2
Fore
SplineSet
31 640 m 1,0,-1
 213 629 l 1,1,2
 202 353 202 353 202 253 c 1,3,-1
 213 -126 l 1,4,-1
 29 -137 l 1,5,-1
 25 -131 l 1,6,-1
 31 -100 l 1,7,-1
 145 -76 l 1,8,-1
 145 579 l 1,9,-1
 29 603 l 1,10,-1
 25 610 l 1,11,-1
 31 640 l 1,0,-1
EndSplineSet
EndChar

StartChar: asciicircum
Encoding: 94 94 65
Width: 506
GlyphClass: 2
Flags: W
LayerCount: 2
Fore
SplineSet
270 481 m 1,0,-1
 281 473 l 1,1,2
 333 348 333 348 365 275 c 2,3,-1
 450 87 l 1,4,-1
 410 57 l 1,5,-1
 399 58 l 1,6,7
 311 261 311 261 250 407 c 1,8,-1
 244 407 l 1,9,-1
 184 253 l 1,10,-1
 111 59 l 1,11,-1
 61 66 l 1,12,-1
 56 75 l 1,13,14
 94 174 94 174 223 479 c 1,15,-1
 270 481 l 1,0,-1
EndSplineSet
EndChar

StartChar: underscore
Encoding: 95 95 66
Width: 458
GlyphClass: 2
Flags: W
LayerCount: 2
Fore
SplineSet
456 -142 m 1,0,-1
 0 -144 l 1,1,-1
 -6 -135 l 1,2,-1
 5 -86 l 1,3,4
 155 -87 155 -87 235 -87 c 128,-1,5
 315 -87 315 -87 386.5 -84.5 c 128,-1,6
 458 -82 458 -82 458 -81 c 2,7,-1
 464 -91 l 1,8,-1
 456 -142 l 1,0,-1
EndSplineSet
EndChar

StartChar: grave
Encoding: 96 96 67
Width: 398
GlyphClass: 2
Flags: W
LayerCount: 2
Fore
SplineSet
72 660 m 1,0,-1
 71 671 l 1,1,-1
 109 712 l 1,2,-1
 119 714 l 1,3,4
 197 620 197 620 269 542 c 1,5,-1
 249 523 l 1,6,-1
 240 521 l 1,7,8
 173 583 173 583 72 660 c 1,0,-1
EndSplineSet
EndChar

StartChar: a
Encoding: 97 97 68
Width: 466
GlyphClass: 2
Flags: W
LayerCount: 2
Fore
SplineSet
262 370 m 128,-1,1
 239 398 239 398 203.5 398 c 128,-1,2
 168 398 168 398 138 385.5 c 128,-1,3
 108 373 108 373 92 360 c 2,4,-1
 77 348 l 1,5,-1
 72 351 l 1,6,-1
 60 394 l 1,7,8
 180 464 180 464 223 464 c 0,9,10
 288 464 288 464 325 430 c 128,-1,11
 362 396 362 396 362 335 c 0,12,13
 362 320 362 320 353 228.5 c 128,-1,14
 344 137 344 137 344 105 c 0,15,16
 344 59 344 59 385 59 c 0,17,18
 412 59 412 59 445 84 c 1,19,-1
 459 68 l 1,20,21
 445 44 445 44 419.5 20 c 128,-1,22
 394 -4 394 -4 372 -12 c 1,23,24
 290 -12 290 -12 283 69 c 1,25,-1
 279 70 l 1,26,27
 201 -8 201 -8 169 -8 c 0,28,29
 113 -8 113 -8 77 27 c 128,-1,30
 41 62 41 62 41 116 c 0,31,32
 41 145 41 145 55.5 167 c 128,-1,33
 70 189 70 189 94 196 c 2,34,-1
 283 248 l 1,35,-1
 285 292 l 1,36,0
 285 342 285 342 262 370 c 128,-1,1
146 169 m 2,37,38
 117 160 117 160 117 129 c 128,-1,39
 117 98 117 98 136.5 79 c 128,-1,40
 156 60 156 60 186 60 c 0,41,42
 229 60 229 60 277 108 c 1,43,-1
 281 210 l 1,44,-1
 146 169 l 2,37,38
EndSplineSet
EndChar

StartChar: b
Encoding: 98 98 69
Width: 508
GlyphClass: 2
Flags: W
LayerCount: 2
Fore
SplineSet
85 626 m 2,0,1
 85 680 85 680 48 680 c 1,2,-1
 26 677 l 1,3,-1
 23 680 l 1,4,-1
 27 713 l 1,5,6
 97 722 97 722 175 742 c 1,7,-1
 181 729 l 1,8,9
 166 706 166 706 158 394 c 1,10,11
 255 464 255 464 279 464 c 0,12,13
 365 464 365 464 418.5 404.5 c 128,-1,14
 472 345 472 345 472 243 c 128,-1,15
 472 141 472 141 399.5 64.5 c 128,-1,16
 327 -12 327 -12 223 -12 c 0,17,18
 164 -12 164 -12 94 0 c 1,19,-1
 85 8 l 1,20,-1
 85 626 l 2,0,1
153 64 m 1,21,22
 195 43 195 43 256.5 43 c 128,-1,23
 318 43 318 43 356.5 88.5 c 128,-1,24
 395 134 395 134 395 212 c 128,-1,25
 395 290 395 290 356.5 343 c 128,-1,26
 318 396 318 396 263 396 c 0,27,28
 243 396 243 396 212 380.5 c 128,-1,29
 181 365 181 365 156 342 c 1,30,-1
 153 64 l 1,21,22
EndSplineSet
EndChar

StartChar: c
Encoding: 99 99 70
Width: 424
GlyphClass: 2
Flags: W
LayerCount: 2
Fore
SplineSet
245 -12 m 0,0,1
 150 -12 150 -12 93 48 c 128,-1,2
 36 108 36 108 36 212.5 c 128,-1,3
 36 317 36 317 102.5 390.5 c 128,-1,4
 169 464 169 464 267 464 c 0,5,6
 321 464 321 464 384 445 c 1,7,-1
 387 438 l 1,8,9
 369 378 369 378 366 300 c 1,10,-1
 325 297 l 1,11,-1
 325 328 l 2,12,13
 325 365 325 365 302.5 387.5 c 128,-1,14
 280 410 280 410 243 410 c 0,15,16
 182 410 182 410 149 366.5 c 128,-1,17
 116 323 116 323 116 239.5 c 128,-1,18
 116 156 116 156 152.5 105.5 c 128,-1,19
 189 55 189 55 252 55 c 0,20,21
 299 55 299 55 349 80 c 2,22,-1
 365 88 l 1,23,-1
 371 86 l 1,24,-1
 382 55 l 1,25,26
 294 -12 294 -12 245 -12 c 0,0,1
EndSplineSet
EndChar

StartChar: d
Encoding: 100 100 71
Width: 537
GlyphClass: 2
Flags: W
LayerCount: 2
Fore
SplineSet
229 -9 m 0,0,1
 143 -9 143 -9 89.5 49.5 c 128,-1,2
 36 108 36 108 36 209 c 128,-1,3
 36 310 36 310 109 387 c 128,-1,4
 182 464 182 464 285 464 c 0,5,6
 317 464 317 464 354 460 c 1,7,-1
 354 626 l 2,8,9
 354 680 354 680 317 680 c 1,10,-1
 292 676 l 1,11,-1
 296 713 l 1,12,13
 366 722 366 722 444 742 c 1,14,-1
 450 729 l 1,15,16
 439 712 439 712 430.5 518 c 128,-1,17
 422 324 422 324 422 105 c 0,18,19
 422 59 422 59 463 59 c 0,20,21
 490 59 490 59 523 84 c 1,22,-1
 537 68 l 1,23,24
 523 44 523 44 497 19 c 128,-1,25
 471 -6 471 -6 450 -12 c 1,26,27
 372 -12 372 -12 361 59 c 1,28,-1
 354 62 l 1,29,30
 250 -9 250 -9 229 -9 c 0,0,1
354 383 m 1,31,32
 317 406 317 406 253.5 406 c 128,-1,33
 190 406 190 406 151.5 360.5 c 128,-1,34
 113 315 113 315 113 237.5 c 128,-1,35
 113 160 113 160 151 108 c 128,-1,36
 189 56 189 56 245 56 c 0,37,38
 266 56 266 56 293.5 69 c 128,-1,39
 321 82 321 82 354 109 c 1,40,-1
 354 383 l 1,31,32
EndSplineSet
EndChar

StartChar: e
Encoding: 101 101 72
Width: 448
GlyphClass: 2
Flags: W
LayerCount: 2
Fore
SplineSet
321 331 m 0,0,1
 321 371 321 371 299.5 392 c 128,-1,2
 278 413 278 413 234.5 413 c 128,-1,3
 191 413 191 413 157.5 381 c 128,-1,4
 124 349 124 349 115 295 c 1,5,-1
 296 304 l 1,6,7
 311 306 311 306 316 311 c 128,-1,8
 321 316 321 316 321 331 c 0,0,1
111 258 m 1,9,-1
 111 242 l 2,10,11
 111 158 111 158 151.5 107 c 128,-1,12
 192 56 192 56 259 56 c 0,13,14
 312 56 312 56 382 87 c 1,15,-1
 388 85 l 1,16,-1
 399 56 l 1,17,18
 372 35 372 35 322.5 11.5 c 128,-1,19
 273 -12 273 -12 246 -12 c 0,20,21
 152 -12 152 -12 94 49 c 128,-1,22
 36 110 36 110 36 211 c 128,-1,23
 36 312 36 312 102 388 c 128,-1,24
 168 464 168 464 257 464 c 0,25,26
 406 464 406 464 406 319 c 1,27,-1
 400 270 l 1,28,-1
 387 258 l 1,29,-1
 111 258 l 1,9,-1
EndSplineSet
EndChar

StartChar: f
Encoding: 102 102 73
Width: 330
GlyphClass: 2
Flags: W
LayerCount: 2
Fore
SplineSet
338 742 m 0,0,1
 395 742 395 742 452 723 c 1,2,-1
 454 714 l 1,3,4
 438 686 438 686 423 649 c 1,5,-1
 412 646 l 1,6,7
 362 683 362 683 297 683 c 0,8,9
 185 683 185 683 182 498 c 2,10,-1
 181 449 l 1,11,-1
 319 452 l 1,12,-1
 322 449 l 1,13,-1
 312 396 l 1,14,15
 250 399 250 399 180 399 c 1,16,-1
 176 98 l 2,17,18
 176 43 176 43 227 43 c 1,19,-1
 287 45 l 1,20,-1
 289 41 l 1,21,-1
 282 -2 l 1,22,23
 197 0 197 0 158 0 c 1,24,-1
 46 -4 l 1,25,-1
 51 35 l 1,26,27
 108 42 108 42 108 94 c 2,28,-1
 108 364 l 1,29,30
 107 388 107 388 94.5 395.5 c 128,-1,31
 82 403 82 403 45 405 c 1,32,-1
 41 411 l 1,33,-1
 48 445 l 1,34,-1
 108 456 l 1,35,-1
 108 460 l 1,36,37
 109 590 109 590 171 666 c 128,-1,38
 233 742 233 742 338 742 c 0,0,1
EndSplineSet
EndChar

StartChar: g
Encoding: 103 103 74
Width: 504
GlyphClass: 2
Flags: W
LayerCount: 2
Fore
SplineSet
228 130 m 0,0,1
 204 130 204 130 170 138 c 1,2,3
 128 115 128 115 128 94 c 0,4,5
 128 49 128 49 248 45 c 1,6,7
 364 39 364 39 412.5 14.5 c 128,-1,8
 461 -10 461 -10 461 -62 c 0,9,10
 461 -131 461 -131 384.5 -186.5 c 128,-1,11
 308 -242 308 -242 213 -242 c 0,12,13
 142 -242 142 -242 102 -207 c 128,-1,14
 62 -172 62 -172 62 -109 c 1,15,16
 93 -67 93 -67 144 -32 c 1,17,-1
 161 -19 l 1,18,-1
 161 -13 l 1,19,20
 114 -7 114 -7 83 21 c 128,-1,21
 52 49 52 49 52 85 c 1,22,23
 80 113 80 113 136 149 c 1,24,-1
 136 153 l 1,25,26
 62 192 62 192 62 286 c 0,27,28
 62 357 62 357 118 410.5 c 128,-1,29
 174 464 174 464 248 464 c 0,30,31
 268 464 268 464 301 458.5 c 128,-1,32
 334 453 334 453 346 453 c 1,33,34
 392 459 392 459 484 483 c 1,35,-1
 487 479 l 1,36,-1
 476 423 l 1,37,38
 432 417 432 417 390 414 c 1,39,-1
 386 409 l 1,40,41
 426 364 426 364 426 308 c 0,42,43
 426 233 426 233 368.5 181.5 c 128,-1,44
 311 130 311 130 228 130 c 0,0,1
168.5 209.5 m 128,-1,46
 200 174 200 174 249 174 c 128,-1,47
 298 174 298 174 324.5 203 c 128,-1,48
 351 232 351 232 351 286.5 c 128,-1,49
 351 341 351 341 319 377 c 128,-1,50
 287 413 287 413 238.5 413 c 128,-1,51
 190 413 190 413 163.5 383 c 128,-1,52
 137 353 137 353 137 299 c 128,-1,45
 137 245 137 245 168.5 209.5 c 128,-1,46
169 -171 m 128,-1,54
 198 -193 198 -193 253 -193 c 128,-1,55
 308 -193 308 -193 352.5 -163 c 128,-1,56
 397 -133 397 -133 397 -94 c 0,57,58
 397 -65 397 -65 359 -50.5 c 128,-1,59
 321 -36 321 -36 202 -20 c 1,60,61
 178 -37 178 -37 159 -64 c 128,-1,62
 140 -91 140 -91 140 -111 c 0,63,53
 140 -149 140 -149 169 -171 c 128,-1,54
EndSplineSet
EndChar

StartChar: h
Encoding: 104 104 75
Width: 534
GlyphClass: 2
Flags: W
LayerCount: 2
Fore
SplineSet
87 94 m 2,0,-1
 87 626 l 2,1,2
 87 678 87 678 50 678 c 2,3,-1
 29 678 l 1,4,-1
 25 681 l 1,5,-1
 29 713 l 1,6,7
 99 722 99 722 177 742 c 1,8,-1
 183 729 l 1,9,10
 168 706 168 706 159 386 c 1,11,12
 273 464 273 464 309 464 c 0,13,14
 374 464 374 464 410 430 c 128,-1,15
 446 396 446 396 446 335 c 0,16,17
 446 320 446 320 438 225 c 128,-1,18
 430 130 430 130 430 98 c 0,19,20
 430 42 430 42 465 42 c 1,21,-1
 500 44 l 1,22,-1
 502 40 l 1,23,-1
 494 -3 l 1,24,25
 442 0 442 0 414 0 c 0,26,27
 368 0 368 0 302 -12 c 1,28,-1
 306 29 l 1,29,30
 362 44 362 44 362 94 c 1,31,-1
 368 292 l 1,32,33
 368 342 368 342 346.5 369 c 128,-1,34
 325 396 325 396 285 396 c 0,35,36
 227 396 227 396 158 341 c 1,37,38
 155 226 155 226 155 98 c 0,39,40
 155 67 155 67 163 54.5 c 128,-1,41
 171 42 171 42 191 42 c 1,42,-1
 226 44 l 1,43,-1
 228 40 l 1,44,-1
 219 -3 l 1,45,46
 165 0 165 0 128 0 c 2,47,-1
 29 -2 l 1,48,-1
 35 39 l 1,49,50
 64 42 64 42 75.5 54 c 128,-1,51
 87 66 87 66 87 94 c 2,0,-1
EndSplineSet
EndChar

StartChar: i
Encoding: 105 105 76
Width: 282
GlyphClass: 2
Flags: W
LayerCount: 2
Fore
SplineSet
175 619 m 128,-1,1
 158 602 158 602 134.5 602 c 128,-1,2
 111 602 111 602 97.5 616 c 128,-1,3
 84 630 84 630 84 654 c 128,-1,4
 84 678 84 678 101 695 c 128,-1,5
 118 712 118 712 141 712 c 128,-1,6
 164 712 164 712 178 697.5 c 128,-1,7
 192 683 192 683 192 659.5 c 128,-1,0
 192 636 192 636 175 619 c 128,-1,1
104 94 m 2,8,-1
 104 348 l 2,9,10
 104 402 104 402 67 402 c 1,11,-1
 42 398 l 1,12,-1
 46 435 l 1,13,14
 96 442 96 442 190 464 c 1,15,-1
 195 452 l 1,16,17
 186 431 186 431 179 323.5 c 128,-1,18
 172 216 172 216 172 98 c 0,19,20
 172 42 172 42 207 42 c 1,21,-1
 242 44 l 1,22,-1
 244 40 l 1,23,-1
 236 -3 l 1,24,25
 184 0 184 0 156 0 c 0,26,27
 110 0 110 0 44 -12 c 1,28,-1
 48 29 l 1,29,30
 104 44 104 44 104 94 c 2,8,-1
EndSplineSet
EndChar

StartChar: j
Encoding: 106 106 77
Width: 250
GlyphClass: 2
Flags: W
LayerCount: 2
Fore
SplineSet
91 38 m 2,0,-1
 91 348 l 2,1,2
 91 379 91 379 82.5 390.5 c 128,-1,3
 74 402 74 402 51 402 c 1,4,-1
 24 399 l 1,5,-1
 28 436 l 1,6,7
 82 444 82 444 172 464 c 1,8,-1
 177 452 l 1,9,10
 160 423 160 423 160 -14 c 0,11,12
 160 -86 160 -86 127 -145 c 128,-1,13
 94 -204 94 -204 33 -241 c 1,14,-1
 15 -222 l 1,15,-1
 17 -214 l 1,16,17
 60 -171 60 -171 75.5 -118 c 128,-1,18
 91 -65 91 -65 91 38 c 2,0,-1
163 619 m 128,-1,20
 146 602 146 602 122.5 602 c 128,-1,21
 99 602 99 602 85.5 616 c 128,-1,22
 72 630 72 630 72 654 c 128,-1,23
 72 678 72 678 89 695 c 128,-1,24
 106 712 106 712 129 712 c 128,-1,25
 152 712 152 712 166 697.5 c 128,-1,26
 180 683 180 683 180 659.5 c 128,-1,19
 180 636 180 636 163 619 c 128,-1,20
EndSplineSet
EndChar

StartChar: k
Encoding: 107 107 78
Width: 497
GlyphClass: 2
Flags: W
LayerCount: 2
Fore
SplineSet
87 135 m 2,0,-1
 87 626 l 2,1,2
 87 680 87 680 50 680 c 1,3,-1
 25 676 l 1,4,-1
 29 713 l 1,5,6
 99 722 99 722 177 742 c 1,7,-1
 183 729 l 1,8,9
 172 712 172 712 163.5 517 c 128,-1,10
 155 322 155 322 155 98 c 0,11,12
 155 67 155 67 163 54.5 c 128,-1,13
 171 42 171 42 191 42 c 1,14,-1
 226 44 l 1,15,-1
 228 40 l 1,16,-1
 219 -3 l 1,17,18
 165 0 165 0 128 0 c 1,19,-1
 29 -6 l 1,20,-1
 34 35 l 1,21,22
 59 38 59 38 76 54 c 1,23,24
 85 61 85 61 86 85 c 128,-1,25
 87 109 87 109 87 135 c 2,0,-1
328 399 m 0,26,27
 328 420 328 420 273 420 c 1,28,-1
 270 425 l 1,29,-1
 279 454 l 1,30,31
 341 452 341 452 377 452 c 1,32,-1
 472 458 l 1,33,-1
 475 453 l 1,34,-1
 467 422 l 1,35,36
 426 410 426 410 389.5 379.5 c 128,-1,37
 353 349 353 349 338.5 336 c 128,-1,38
 324 323 324 323 254 253 c 1,39,-1
 359 118 l 2,40,41
 393 74 393 74 421 55 c 128,-1,42
 449 36 449 36 480 36 c 1,43,-1
 483 31 l 1,44,-1
 477 2 l 1,45,46
 418 -14 418 -14 403 -14 c 128,-1,47
 388 -14 388 -14 364 -1.5 c 128,-1,48
 340 11 340 11 298 71 c 2,49,-1
 180 238 l 1,50,-1
 182 252 l 1,51,-1
 304 364 l 2,52,53
 328 387 328 387 328 399 c 0,26,27
EndSplineSet
EndChar

StartChar: l
Encoding: 108 108 79
Width: 244
GlyphClass: 2
Flags: W
LayerCount: 2
Fore
SplineSet
87 135 m 2,0,-1
 87 626 l 2,1,2
 87 680 87 680 50 680 c 1,3,-1
 25 676 l 1,4,-1
 29 713 l 1,5,6
 99 722 99 722 177 742 c 1,7,-1
 183 729 l 1,8,9
 172 712 172 712 163.5 516 c 128,-1,10
 155 320 155 320 155 98 c 0,11,12
 155 68 155 68 163 55 c 128,-1,13
 171 42 171 42 190 42 c 1,14,-1
 225 44 l 1,15,-1
 227 40 l 1,16,-1
 219 -3 l 1,17,18
 167 0 167 0 139 0 c 0,19,20
 93 0 93 0 27 -12 c 1,21,-1
 31 29 l 1,22,23
 59 37 59 37 76 54 c 0,24,25
 84 62 84 62 85.5 85.5 c 128,-1,26
 87 109 87 109 87 135 c 2,0,-1
EndSplineSet
EndChar

StartChar: m
Encoding: 109 109 80
Width: 832
GlyphClass: 2
Flags: W
LayerCount: 2
Fore
SplineSet
385 292 m 1,0,1
 385 396 385 396 295 396 c 0,2,3
 248 396 248 396 179 344 c 1,4,5
 170 137 170 137 170 102 c 128,-1,6
 170 67 170 67 178 54.5 c 128,-1,7
 186 42 186 42 206 42 c 1,8,-1
 241 44 l 1,9,-1
 243 40 l 1,10,-1
 234 -3 l 1,11,12
 180 0 180 0 143 0 c 2,13,-1
 44 -2 l 1,14,-1
 50 39 l 1,15,16
 79 42 79 42 90.5 54 c 128,-1,17
 102 66 102 66 102 94 c 2,18,-1
 102 338 l 2,19,20
 102 372 102 372 91 385.5 c 128,-1,21
 80 399 80 399 53 399 c 2,22,-1
 42 399 l 1,23,-1
 39 403 l 1,24,-1
 42 436 l 1,25,-1
 182 465 l 1,26,-1
 188 457 l 1,27,28
 179 425 179 425 177 391 c 1,29,-1
 179 388 l 1,30,31
 291 464 291 464 326 464 c 0,32,33
 374 464 374 464 407 443.5 c 128,-1,34
 440 423 440 423 454 385 c 1,35,36
 566 464 566 464 605 464 c 0,37,38
 668 464 668 464 705 429 c 128,-1,39
 742 394 742 394 742 335 c 0,40,41
 742 320 742 320 735 225 c 128,-1,42
 728 130 728 130 728 98.5 c 128,-1,43
 728 67 728 67 736 54.5 c 128,-1,44
 744 42 744 42 764 42 c 1,45,-1
 799 44 l 1,46,-1
 801 40 l 1,47,-1
 792 -3 l 1,48,49
 738 0 738 0 701 0 c 1,50,-1
 602 -6 l 1,51,-1
 607 35 l 1,52,53
 636 40 636 40 648 53 c 128,-1,54
 660 66 660 66 660 94 c 2,55,-1
 664 292 l 1,56,57
 664 342 664 342 642.5 369 c 128,-1,58
 621 396 621 396 575 396 c 128,-1,59
 529 396 529 396 460 346 c 1,60,-1
 449 98 l 1,61,62
 449 42 449 42 484 42 c 1,63,-1
 519 44 l 1,64,-1
 521 40 l 1,65,-1
 513 -3 l 1,66,67
 461 0 461 0 433 0 c 0,68,69
 387 0 387 0 321 -12 c 1,70,-1
 325 29 l 1,71,72
 381 44 381 44 381 94 c 1,73,-1
 385 292 l 1,0,1
EndSplineSet
EndChar

StartChar: n
Encoding: 110 110 81
Width: 562
GlyphClass: 2
Flags: W
LayerCount: 2
Fore
SplineSet
385 292 m 1,0,1
 385 396 385 396 295 396 c 0,2,3
 248 396 248 396 179 344 c 1,4,5
 170 137 170 137 170 102 c 128,-1,6
 170 67 170 67 178 54.5 c 128,-1,7
 186 42 186 42 206 42 c 1,8,-1
 241 44 l 1,9,-1
 243 40 l 1,10,-1
 234 -3 l 1,11,12
 180 0 180 0 143 0 c 1,13,-1
 44 -6 l 1,14,-1
 49 35 l 1,15,16
 78 40 78 40 90 53 c 128,-1,17
 102 66 102 66 102 94 c 2,18,-1
 102 338 l 2,19,20
 102 372 102 372 91 385.5 c 128,-1,21
 80 399 80 399 53 399 c 2,22,-1
 42 399 l 1,23,-1
 39 403 l 1,24,-1
 42 436 l 1,25,-1
 182 465 l 1,26,-1
 188 457 l 1,27,28
 179 425 179 425 177 391 c 1,29,-1
 179 388 l 1,30,31
 293 464 293 464 326 464 c 0,32,33
 389 464 389 464 426 429 c 128,-1,34
 463 394 463 394 463 335 c 0,35,36
 463 320 463 320 456 225 c 128,-1,37
 449 130 449 130 449 98 c 0,38,39
 449 42 449 42 484 42 c 1,40,-1
 519 44 l 1,41,-1
 521 40 l 1,42,-1
 513 -3 l 1,43,44
 461 0 461 0 433 0 c 0,45,46
 387 0 387 0 321 -12 c 1,47,-1
 325 29 l 1,48,49
 381 44 381 44 381 94 c 1,50,-1
 385 292 l 1,0,1
EndSplineSet
EndChar

StartChar: o
Encoding: 111 111 82
Width: 498
GlyphClass: 2
Flags: W
LayerCount: 2
Fore
SplineSet
395 61.5 m 128,-1,1
 328 -12 328 -12 236 -12 c 128,-1,2
 144 -12 144 -12 90 50 c 128,-1,3
 36 112 36 112 36 214.5 c 128,-1,4
 36 317 36 317 103 390.5 c 128,-1,5
 170 464 170 464 262 464 c 128,-1,6
 354 464 354 464 408 402 c 128,-1,7
 462 340 462 340 462 237.5 c 128,-1,0
 462 135 462 135 395 61.5 c 128,-1,1
155.5 93 m 128,-1,9
 195 37 195 37 254.5 37 c 128,-1,10
 314 37 314 37 347 82.5 c 128,-1,11
 380 128 380 128 380 212 c 128,-1,12
 380 296 380 296 340.5 353 c 128,-1,13
 301 410 301 410 241.5 410 c 128,-1,14
 182 410 182 410 149 364 c 128,-1,15
 116 318 116 318 116 233.5 c 128,-1,8
 116 149 116 149 155.5 93 c 128,-1,9
EndSplineSet
EndChar

StartChar: p
Encoding: 112 112 83
Width: 528
GlyphClass: 2
Flags: W
LayerCount: 2
Fore
SplineSet
218 -190 m 2,0,-1
 252 -189 l 1,1,-1
 254 -192 l 1,2,-1
 246 -230 l 1,3,-1
 151 -230 l 2,4,5
 110 -230 110 -230 45 -237 c 1,6,-1
 50 -198 l 1,7,8
 82 -194 82 -194 91.5 -180.5 c 128,-1,9
 101 -167 101 -167 101 -126 c 2,10,-1
 103 40 l 1,11,-1
 103 338 l 2,12,13
 103 372 103 372 92 385.5 c 128,-1,14
 81 399 81 399 54 399 c 2,15,-1
 43 399 l 1,16,-1
 40 403 l 1,17,-1
 43 436 l 1,18,-1
 183 465 l 1,19,-1
 189 457 l 1,20,21
 182 429 182 429 179 403 c 1,22,-1
 183 396 l 1,23,24
 277 461 277 461 299 461 c 0,25,26
 385 461 385 461 438.5 402.5 c 128,-1,27
 492 344 492 344 492 243 c 128,-1,28
 492 142 492 142 418.5 65 c 128,-1,29
 345 -12 345 -12 243 -12 c 1,30,-1
 170 -8 l 1,31,-1
 171 -111 l 2,32,33
 171 -157 171 -157 180.5 -173.5 c 128,-1,34
 190 -190 190 -190 218 -190 c 2,0,-1
171 62 m 1,35,36
 216 43 216 43 277 43 c 128,-1,37
 338 43 338 43 376.5 88.5 c 128,-1,38
 415 134 415 134 415 211.5 c 128,-1,39
 415 289 415 289 377 341 c 128,-1,40
 339 393 339 393 288.5 393 c 128,-1,41
 238 393 238 393 179 344 c 1,42,43
 171 213 171 213 171 62 c 1,35,36
EndSplineSet
EndChar

StartChar: q
Encoding: 113 113 84
Width: 516
GlyphClass: 2
Flags: W
LayerCount: 2
Fore
SplineSet
229 -12 m 0,0,1
 143 -12 143 -12 89.5 47.5 c 128,-1,2
 36 107 36 107 36 208.5 c 128,-1,3
 36 310 36 310 109 387 c 128,-1,4
 182 464 182 464 285 464 c 0,5,6
 332 464 332 464 377 455 c 1,7,-1
 432 478 l 1,8,-1
 440 469 l 1,9,10
 421 422 421 422 421 -106 c 0,11,12
 421 -160 421 -160 427.5 -175 c 128,-1,13
 434 -190 434 -190 457 -190 c 2,14,-1
 483 -189 l 1,15,-1
 485 -191 l 1,16,-1
 478 -230 l 1,17,-1
 386 -230 l 1,18,-1
 279 -234 l 1,19,-1
 284 -196 l 1,20,21
 325 -194 325 -194 336.5 -183 c 128,-1,22
 348 -172 348 -172 350 -135 c 1,23,-1
 354 60 l 1,24,25
 250 -12 250 -12 229 -12 c 0,0,1
354 383 m 1,26,27
 317 406 317 406 253.5 406 c 128,-1,28
 190 406 190 406 151.5 360.5 c 128,-1,29
 113 315 113 315 113 237 c 128,-1,30
 113 159 113 159 151.5 106 c 128,-1,31
 190 53 190 53 245 53 c 0,32,33
 266 53 266 53 293.5 67 c 128,-1,34
 321 81 321 81 354 109 c 1,35,-1
 354 383 l 1,26,27
EndSplineSet
EndChar

StartChar: r
Encoding: 114 114 85
Width: 383
GlyphClass: 2
Flags: W
LayerCount: 2
Fore
SplineSet
190 459 m 1,0,1
 181 405 181 405 181 356 c 1,2,-1
 185 353 l 1,3,4
 215 400 215 400 255.5 430 c 128,-1,5
 296 460 296 460 326 460 c 1,6,-1
 357 456 l 1,7,-1
 360 452 l 1,8,9
 346 370 346 370 344 309 c 1,10,-1
 305 306 l 1,11,12
 305 347 305 347 299.5 360.5 c 128,-1,13
 294 374 294 374 275 374 c 128,-1,14
 256 374 256 374 231 355.5 c 128,-1,15
 206 337 206 337 185 306 c 1,16,17
 177 124 177 124 177 96 c 128,-1,18
 177 68 177 68 187 56 c 128,-1,19
 197 44 197 44 225 44 c 1,20,-1
 269 46 l 1,21,-1
 270 42 l 1,22,-1
 261 -2 l 1,23,24
 198 0 198 0 159 0 c 1,25,-1
 54 -4 l 1,26,-1
 59 36 l 1,27,28
 89 39 89 39 99 55.5 c 128,-1,29
 109 72 109 72 109 119 c 2,30,-1
 109 339 l 2,31,32
 109 372 109 372 100 386 c 128,-1,33
 91 400 91 400 71 400 c 1,34,-1
 50 397 l 1,35,-1
 45 404 l 1,36,-1
 48 435 l 1,37,-1
 183 465 l 1,38,-1
 190 459 l 1,0,1
EndSplineSet
EndChar

StartChar: s
Encoding: 115 115 86
Width: 402
GlyphClass: 2
Flags: W
LayerCount: 2
Fore
SplineSet
66 4 m 1,0,-1
 52 9 l 1,1,-1
 49 16 l 1,2,3
 58 66 58 66 61 150 c 1,4,-1
 96 155 l 1,5,6
 96 89 96 89 118 62 c 128,-1,7
 140 35 140 35 185.5 35 c 128,-1,8
 231 35 231 35 257 52 c 128,-1,9
 283 69 283 69 283 94 c 128,-1,10
 283 119 283 119 259.5 139.5 c 128,-1,11
 236 160 236 160 173 193 c 128,-1,12
 110 226 110 226 84 255.5 c 128,-1,13
 58 285 58 285 58 321 c 0,14,15
 58 382 58 382 110.5 423 c 128,-1,16
 163 464 163 464 242 464 c 0,17,18
 290 464 290 464 342 448 c 1,19,-1
 344 443 l 1,20,21
 330 387 330 387 325 321 c 1,22,-1
 288 318 l 1,23,24
 290 338 290 338 290 347 c 0,25,26
 290 383 290 383 270.5 399.5 c 128,-1,27
 251 416 251 416 212.5 416 c 128,-1,28
 174 416 174 416 150.5 400 c 128,-1,29
 127 384 127 384 127 361 c 0,30,31
 127 316 127 316 214 271 c 0,32,33
 295 228 295 228 324.5 199 c 128,-1,34
 354 170 354 170 354 132 c 0,35,36
 354 74 354 74 299 31 c 128,-1,37
 244 -12 244 -12 174 -12 c 128,-1,38
 104 -12 104 -12 66 4 c 1,0,-1
EndSplineSet
EndChar

StartChar: t
Encoding: 116 116 87
Width: 330
GlyphClass: 2
Flags: W
LayerCount: 2
Fore
SplineSet
82 109 m 2,0,-1
 82 355 l 2,1,2
 82 382 82 382 70 393 c 128,-1,3
 58 404 58 404 25 405 c 1,4,-1
 21 411 l 1,5,-1
 26 441 l 1,6,7
 82 468 82 468 134 516 c 1,8,-1
 150 532 l 1,9,-1
 170 524 l 1,10,11
 166 498 166 498 162 449 c 1,12,-1
 309 452 l 1,13,-1
 312 449 l 1,14,-1
 303 396 l 1,15,-1
 158 399 l 1,16,17
 151 289 151 289 151 149 c 0,18,19
 151 98 151 98 168.5 77 c 128,-1,20
 186 56 186 56 229 56 c 0,21,22
 259 56 259 56 297 74 c 1,23,-1
 307 48 l 1,24,25
 230 -12 230 -12 206 -12 c 0,26,27
 138 -12 138 -12 110 15.5 c 128,-1,28
 82 43 82 43 82 109 c 2,0,-1
EndSplineSet
EndChar

StartChar: u
Encoding: 117 117 88
Width: 541
GlyphClass: 2
Flags: W
LayerCount: 2
Fore
SplineSet
155 155 m 0,0,1
 155 57 155 57 235 57 c 0,2,3
 256 57 256 57 281.5 68 c 128,-1,4
 307 79 307 79 318 86.5 c 128,-1,5
 329 94 329 94 356 114 c 1,6,-1
 356 346 l 2,7,8
 356 376 356 376 345 388 c 128,-1,9
 334 400 334 400 306 400 c 1,10,-1
 282 399 l 1,11,-1
 286 435 l 1,12,-1
 440 464 l 1,13,-1
 446 452 l 1,14,15
 437 429 437 429 430.5 327 c 128,-1,16
 424 225 424 225 424 105 c 0,17,18
 424 59 424 59 465 59 c 0,19,20
 492 59 492 59 525 84 c 1,21,-1
 539 68 l 1,22,23
 517 34 517 34 492 11 c 128,-1,24
 467 -12 467 -12 452 -12 c 0,25,26
 370 -12 370 -12 363 69 c 1,27,-1
 358 71 l 1,28,29
 250 -12 250 -12 219 -12 c 0,30,31
 155 -12 155 -12 120.5 18 c 128,-1,32
 86 48 86 48 86 104 c 2,33,-1
 90 347 l 2,34,35
 90 401 90 401 53 401 c 1,36,-1
 28 397 l 1,37,-1
 32 434 l 1,38,-1
 175 464 l 1,39,-1
 181 452 l 1,40,41
 171 426 171 426 163 334 c 128,-1,42
 155 242 155 242 155 155 c 0,0,1
EndSplineSet
EndChar

StartChar: v
Encoding: 118 118 89
Width: 445
GlyphClass: 2
Flags: W
LayerCount: 2
Fore
SplineSet
346 395 m 0,0,1
 346 416 346 416 303 416 c 2,2,-1
 265 416 l 1,3,-1
 261 422 l 1,4,-1
 266 453 l 1,5,6
 321 452 321 452 370 452 c 2,7,-1
 452 453 l 1,8,-1
 445 416 l 1,9,10
 424 413 424 413 412 399 c 128,-1,11
 400 385 400 385 381 341 c 2,12,-1
 236 0 l 1,13,-1
 182 -17 l 1,14,15
 89 280 89 280 60 366 c 0,16,17
 43 414 43 414 -8 416 c 1,18,-1
 -10 420 l 1,19,-1
 -4 453 l 1,20,21
 56 452 56 452 81 452 c 0,22,23
 122 452 122 452 199 459 c 1,24,-1
 201 454 l 1,25,-1
 195 423 l 1,26,27
 161 422 161 422 148.5 416.5 c 128,-1,28
 136 411 136 411 136 398 c 0,29,30
 136 368 136 368 221 81 c 1,31,-1
 225 81 l 1,32,33
 332 340 332 340 339 362.5 c 128,-1,34
 346 385 346 385 346 395 c 0,0,1
EndSplineSet
EndChar

StartChar: w
Encoding: 119 119 90
Width: 705
GlyphClass: 2
Flags: W
LayerCount: 2
Fore
SplineSet
224 81 m 1,0,1
 314 306 314 306 330 350 c 1,2,3
 319 384 319 384 303.5 400 c 128,-1,4
 288 416 288 416 259 416 c 1,5,-1
 257 420 l 1,6,-1
 263 453 l 1,7,8
 321 452 321 452 343 452 c 2,9,-1
 460 457 l 1,10,-1
 462 452 l 1,11,-1
 456 421 l 1,12,13
 422 420 422 420 410.5 415 c 128,-1,14
 399 410 399 410 399 397 c 0,15,16
 399 371 399 371 481 81 c 1,17,-1
 485 81 l 1,18,19
 503 126 503 126 524.5 180.5 c 128,-1,20
 546 235 546 235 558 264.5 c 128,-1,21
 570 294 570 294 581 324 c 0,22,23
 602 381 602 381 602 392 c 0,24,25
 602 417 602 417 561 417 c 2,26,-1
 524 417 l 1,27,-1
 520 423 l 1,28,-1
 525 454 l 1,29,30
 576 452 576 452 624 452 c 2,31,-1
 706 453 l 1,32,-1
 699 416 l 1,33,34
 679 414 679 414 667 399.5 c 128,-1,35
 655 385 655 385 637 341 c 2,36,-1
 496 0 l 1,37,-1
 443 -17 l 1,38,39
 390 158 390 158 353 278 c 1,40,-1
 347 278 l 1,41,-1
 236 0 l 1,42,-1
 182 -17 l 1,43,44
 92 280 92 280 64 366 c 0,45,46
 47 415 47 415 -2 416 c 1,47,-1
 -4 420 l 1,48,-1
 2 453 l 1,49,50
 60 452 60 452 84 452 c 0,51,52
 124 452 124 452 199 459 c 1,53,-1
 201 454 l 1,54,-1
 195 423 l 1,55,56
 162 422 162 422 150 416.5 c 128,-1,57
 138 411 138 411 138 397 c 0,58,59
 138 369 138 369 220 81 c 1,60,-1
 224 81 l 1,0,1
EndSplineSet
EndChar

StartChar: x
Encoding: 120 120 91
Width: 475
GlyphClass: 2
Flags: W
LayerCount: 2
Fore
SplineSet
306 51 m 0,0,1
 306 64 306 64 289 88 c 2,2,-1
 216 190 l 1,3,4
 115 67 115 67 115 51 c 0,5,6
 115 41 115 41 123.5 38 c 128,-1,7
 132 35 132 35 159 33 c 1,8,-1
 161 29 l 1,9,-1
 155 -4 l 1,10,11
 95 0 95 0 72 0 c 1,12,-1
 12 -3 l 1,13,-1
 9 2 l 1,14,-1
 15 33 l 1,15,16
 37 44 37 44 48 56 c 0,17,18
 84 91 84 91 108 121 c 1,19,-1
 194 221 l 1,20,-1
 118 329 l 2,21,22
 84 378 84 378 64.5 394 c 128,-1,23
 45 410 45 410 10 416 c 1,24,-1
 8 420 l 1,25,-1
 14 454 l 1,26,27
 83 452 83 452 115 452 c 1,28,-1
 217 456 l 1,29,-1
 219 451 l 1,30,-1
 213 420 l 1,31,32
 168 420 168 420 168 401 c 0,33,34
 168 389 168 389 192 354 c 2,35,-1
 247 274 l 1,36,-1
 308 351 l 2,37,38
 339 389 339 389 339 402 c 128,-1,39
 339 415 339 415 296 415 c 1,40,-1
 294 419 l 1,41,-1
 299 452 l 1,42,-1
 372 452 l 1,43,-1
 443 455 l 1,44,-1
 446 450 l 1,45,-1
 440 418 l 1,46,47
 413 409 413 409 356 343 c 2,48,-1
 270 242 l 1,49,-1
 362 111 l 2,50,51
 410 41 410 41 463 36 c 1,52,-1
 465 32 l 1,53,-1
 459 -2 l 1,54,55
 400 0 400 0 368 0 c 1,56,-1
 256 -6 l 1,57,-1
 254 -1 l 1,58,-1
 260 30 l 1,59,60
 306 31 306 31 306 51 c 0,0,1
EndSplineSet
EndChar

StartChar: y
Encoding: 121 121 92
Width: 446
GlyphClass: 2
Flags: W
LayerCount: 2
Fore
SplineSet
230 91 m 1,0,1
 347 371 347 371 347 395 c 128,-1,2
 347 419 347 419 309 419 c 2,3,-1
 263 419 l 1,4,-1
 261 423 l 1,5,-1
 267 456 l 1,6,7
 319 452 319 452 368 452 c 2,8,-1
 453 453 l 1,9,-1
 446 416 l 1,10,11
 424 412 424 412 412.5 400.5 c 128,-1,12
 401 389 401 389 390 359 c 1,13,-1
 261 55 l 1,14,15
 180 -131 180 -131 140 -186 c 128,-1,16
 100 -241 100 -241 38 -241 c 0,17,18
 37 -241 37 -241 36 -241 c 0,19,20
 28 -241 28 -241 10 -217.5 c 128,-1,21
 -8 -194 -8 -194 -8 -184 c 1,22,-1
 -3 -177 l 1,23,24
 55 -177 55 -177 106.5 -130.5 c 128,-1,25
 158 -84 158 -84 192 -1 c 1,26,27
 129 197 129 197 61 368 c 1,28,29
 38 415 38 415 -7 416 c 1,30,-1
 -9 420 l 1,31,-1
 -3 453 l 1,32,33
 57 452 57 452 82 452 c 0,34,35
 121 452 121 452 200 459 c 1,36,-1
 202 454 l 1,37,-1
 196 423 l 1,38,39
 162 422 162 422 149.5 416.5 c 128,-1,40
 137 411 137 411 137 396 c 0,41,42
 137 368 137 368 226 91 c 1,43,-1
 230 91 l 1,0,1
EndSplineSet
EndChar

StartChar: z
Encoding: 122 122 93
Width: 460
GlyphClass: 2
Flags: W
LayerCount: 2
Fore
SplineSet
46 -2 m 1,0,-1
 36 23 l 1,1,-1
 308 414 l 1,2,-1
 183 408 l 2,3,4
 134 405 134 405 115.5 386.5 c 128,-1,5
 97 368 97 368 92 318 c 1,6,-1
 53 312 l 1,7,8
 63 393 63 393 64 457 c 1,9,-1
 70 462 l 1,10,-1
 198 454 l 1,11,-1
 408 449 l 1,12,-1
 416 428 l 1,13,14
 256 222 256 222 130 35 c 1,15,-1
 278 44 l 2,16,17
 318 47 318 47 340 75.5 c 128,-1,18
 362 104 362 104 372 166 c 1,19,-1
 412 171 l 1,20,21
 395 82 395 82 395 10 c 1,22,-1
 379 -6 l 1,23,-1
 98 3 l 1,24,-1
 46 -2 l 1,0,-1
EndSplineSet
EndChar

StartChar: braceleft
Encoding: 123 123 94
Width: 309
GlyphClass: 2
Flags: W
LayerCount: 2
Fore
SplineSet
116.5 300 m 128,-1,1
 143 321 143 321 143 346.5 c 128,-1,2
 143 372 143 372 122.5 437 c 128,-1,3
 102 502 102 502 102 533 c 0,4,5
 102 582 102 582 135.5 615.5 c 128,-1,6
 169 649 169 649 228 649 c 1,7,-1
 285 643 l 1,8,-1
 288 638 l 1,9,-1
 280 608 l 1,10,11
 251 613 251 613 227 613 c 128,-1,12
 203 613 203 613 188 593.5 c 128,-1,13
 173 574 173 574 173 548 c 128,-1,14
 173 522 173 522 186.5 456.5 c 128,-1,15
 200 391 200 391 200 365 c 0,16,17
 200 289 200 289 127 265 c 1,18,-1
 127 259 l 1,19,20
 200 232 200 232 200 154 c 0,21,22
 200 127 200 127 186.5 60 c 128,-1,23
 173 -7 173 -7 173 -33 c 128,-1,24
 173 -59 173 -59 188 -78 c 128,-1,25
 203 -97 203 -97 235 -97 c 1,26,-1
 285 -91 l 1,27,-1
 288 -97 l 1,28,-1
 280 -125 l 1,29,30
 256 -133 256 -133 226 -133 c 0,31,32
 169 -133 169 -133 135.5 -99.5 c 128,-1,33
 102 -66 102 -66 102 -17 c 0,34,35
 102 15 102 15 122.5 78 c 128,-1,36
 143 141 143 141 143 159 c 0,37,38
 143 225 143 225 46 247 c 1,39,-1
 50 268 l 1,40,0
 90 279 90 279 116.5 300 c 128,-1,1
EndSplineSet
EndChar

StartChar: bar
Encoding: 124 124 95
Width: 372
GlyphClass: 2
Flags: W
LayerCount: 2
Fore
SplineSet
214 807 m 1,0,-1
 225 801 l 1,1,2
 219 457 219 457 219 291 c 2,3,-1
 220 -258 l 1,4,-1
 161 -269 l 1,5,-1
 152 -263 l 1,6,7
 152 -244 152 -244 154 796 c 1,8,-1
 214 807 l 1,0,-1
EndSplineSet
EndChar

StartChar: braceright
Encoding: 125 125 96
Width: 309
GlyphClass: 2
Flags: W
LayerCount: 2
Fore
SplineSet
192.5 216 m 128,-1,1
 166 195 166 195 166 169.5 c 128,-1,2
 166 144 166 144 186.5 79 c 128,-1,3
 207 14 207 14 207 -17 c 0,4,5
 207 -66 207 -66 173.5 -99.5 c 128,-1,6
 140 -133 140 -133 81 -133 c 1,7,-1
 24 -127 l 1,8,-1
 21 -122 l 1,9,-1
 29 -92 l 1,10,11
 58 -97 58 -97 82 -97 c 128,-1,12
 106 -97 106 -97 121 -77.5 c 128,-1,13
 136 -58 136 -58 136 -32 c 128,-1,14
 136 -6 136 -6 122.5 59.5 c 128,-1,15
 109 125 109 125 109 151 c 0,16,17
 109 227 109 227 182 251 c 1,18,-1
 182 257 l 1,19,20
 109 284 109 284 109 362 c 0,21,22
 109 389 109 389 122.5 456 c 128,-1,23
 136 523 136 523 136 549 c 128,-1,24
 136 575 136 575 121 594 c 128,-1,25
 106 613 106 613 74 613 c 1,26,-1
 24 607 l 1,27,-1
 21 613 l 1,28,-1
 29 641 l 1,29,30
 53 649 53 649 83 649 c 0,31,32
 140 649 140 649 173.5 615.5 c 128,-1,33
 207 582 207 582 207 533 c 0,34,35
 207 501 207 501 186.5 438 c 128,-1,36
 166 375 166 375 166 357 c 0,37,38
 166 291 166 291 263 269 c 1,39,-1
 259 248 l 1,40,0
 219 237 219 237 192.5 216 c 128,-1,1
EndSplineSet
EndChar

StartChar: asciitilde
Encoding: 126 126 97
Width: 506
GlyphClass: 2
Flags: W
LayerCount: 2
Fore
SplineSet
258 299.5 m 128,-1,1
 353 278 353 278 370 278 c 0,2,3
 395 278 395 278 428 320 c 2,4,-1
 438 333 l 1,5,-1
 444 333 l 1,6,-1
 466 312 l 1,7,-1
 466 307 l 1,8,-1
 390 218 l 1,9,-1
 374 214 l 1,10,11
 346 214 346 214 251 235.5 c 128,-1,12
 156 257 156 257 140 257 c 0,13,14
 112 257 112 257 82 216 c 1,15,-1
 71 202 l 1,16,-1
 65 202 l 1,17,-1
 43 223 l 1,18,-1
 43 228 l 1,19,-1
 119 317 l 1,20,-1
 135 321 l 1,21,0
 163 321 163 321 258 299.5 c 128,-1,1
EndSplineSet
EndChar

StartChar: exclamdown
Encoding: 161 161 99
Width: 285
GlyphClass: 2
Flags: W
LayerCount: 2
Fore
SplineSet
122.5 446 m 128,-1,1
 140 464 140 464 167.5 464 c 128,-1,2
 195 464 195 464 209.5 447.5 c 128,-1,3
 224 431 224 431 224 406 c 128,-1,4
 224 381 224 381 207 363 c 128,-1,5
 190 345 190 345 162.5 345 c 128,-1,6
 135 345 135 345 120 361.5 c 128,-1,7
 105 378 105 378 105 403 c 128,-1,0
 105 428 105 428 122.5 446 c 128,-1,1
179 242 m 1,8,-1
 187 -214 l 1,9,-1
 180 -224 l 1,10,-1
 97 -242 l 1,11,-1
 88 -231 l 1,12,-1
 140 243 l 1,13,-1
 168 250 l 1,14,-1
 179 242 l 1,8,-1
EndSplineSet
EndChar

StartChar: cent
Encoding: 162 162 100
Width: 424
GlyphClass: 2
Flags: W
LayerCount: 2
Fore
SplineSet
245 -12 m 0,0,1
 234 -12 234 -12 229 -11 c 1,2,-1
 216 -151 l 1,3,-1
 190 -154 l 1,4,-1
 185 -147 l 1,5,-1
 198 -7 l 1,6,7
 123 7 123 7 79.5 64.5 c 128,-1,8
 36 122 36 122 36 215.5 c 128,-1,9
 36 309 36 309 94.5 380.5 c 128,-1,10
 153 452 153 452 242 462 c 1,11,-1
 260 654 l 1,12,-1
 286 658 l 1,13,-1
 292 649 l 1,14,-1
 274 464 l 1,15,16
 332 462 332 462 384 445 c 1,17,-1
 387 438 l 1,18,19
 369 378 369 378 366 300 c 1,20,-1
 325 297 l 1,21,-1
 325 328 l 2,22,23
 325 358 325 358 310 378.5 c 128,-1,24
 295 399 295 399 269 406 c 1,25,-1
 235 56 l 1,26,27
 241 55 241 55 259 55 c 128,-1,28
 277 55 277 55 305 63.5 c 128,-1,29
 333 72 333 72 365 88 c 1,30,-1
 371 86 l 1,31,-1
 382 55 l 1,32,33
 294 -12 294 -12 245 -12 c 0,0,1
147.5 364.5 m 128,-1,35
 116 321 116 321 116 247.5 c 128,-1,36
 116 174 116 174 139.5 127.5 c 128,-1,37
 163 81 163 81 204 64 c 1,38,-1
 237 410 l 1,39,34
 179 408 179 408 147.5 364.5 c 128,-1,35
EndSplineSet
EndChar

StartChar: sterling
Encoding: 163 163 101
Width: 525
GlyphClass: 2
Flags: W
LayerCount: 2
Fore
SplineSet
458 140 m 1,0,1
 471 110 471 110 471 76 c 128,-1,2
 471 42 471 42 449 15 c 128,-1,3
 427 -12 427 -12 393.5 -12 c 128,-1,4
 360 -12 360 -12 272 10.5 c 128,-1,5
 184 33 184 33 142 33 c 128,-1,6
 100 33 100 33 60 3 c 1,7,-1
 53 7 l 1,8,-1
 38 41 l 1,9,10
 142 110 142 110 142 204 c 2,11,-1
 142 252 l 1,12,13
 141 275 141 275 129 283 c 128,-1,14
 117 291 117 291 79 293 c 1,15,-1
 75 299 l 1,16,-1
 82 333 l 1,17,-1
 142 344 l 1,18,-1
 142 361 l 2,19,20
 142 468 142 468 195.5 533 c 128,-1,21
 249 598 249 598 337 598 c 0,22,23
 407 598 407 598 440 583 c 1,24,-1
 445 572 l 1,25,-1
 422 509 l 1,26,-1
 403 506 l 1,27,28
 342 539 342 539 300 539 c 0,29,30
 213 539 213 539 209 415 c 2,31,-1
 206 337 l 1,32,-1
 367 340 l 1,33,-1
 370 337 l 1,34,-1
 360 284 l 1,35,36
 281 287 281 287 204 287 c 1,37,-1
 202 208 l 1,38,39
 197 127 197 127 138 78 c 1,40,-1
 193 89 l 1,41,42
 223 89 223 89 282 78 c 128,-1,43
 341 67 341 67 365 67 c 0,44,45
 433 67 433 67 440 142 c 1,46,-1
 458 140 l 1,0,1
EndSplineSet
EndChar

StartChar: currency
Encoding: 164 164 102
Width: 444
GlyphClass: 2
Flags: W
LayerCount: 2
Fore
SplineSet
98 277 m 1,0,1
 73 313 73 313 73 359.5 c 128,-1,2
 73 406 73 406 100 444 c 1,3,-1
 30 513 l 1,4,-1
 32 525 l 1,5,-1
 71 551 l 1,6,7
 103 517 103 517 138 482 c 1,8,9
 175 506 175 506 219 506 c 128,-1,10
 263 506 263 506 300 482 c 1,11,-1
 368 557 l 1,12,-1
 381 554 l 1,13,-1
 408 514 l 1,14,-1
 338 445 l 1,15,16
 366 408 366 408 366 362.5 c 128,-1,17
 366 317 366 317 343 281 c 1,18,-1
 414 215 l 1,19,-1
 411 204 l 1,20,-1
 371 174 l 1,21,-1
 305 240 l 1,22,23
 267 213 267 213 219.5 213 c 128,-1,24
 172 213 172 213 134 240 c 1,25,-1
 67 173 l 1,26,-1
 56 176 l 1,27,-1
 33 215 l 1,28,29
 65 245 65 245 98 277 c 1,0,1
121 359 m 128,-1,31
 121 318 121 318 149.5 289.5 c 128,-1,32
 178 261 178 261 219 261 c 128,-1,33
 260 261 260 261 289 289.5 c 128,-1,34
 318 318 318 318 318 359 c 128,-1,35
 318 400 318 400 289 429 c 128,-1,36
 260 458 260 458 219 458 c 128,-1,37
 178 458 178 458 149.5 429 c 128,-1,30
 121 400 121 400 121 359 c 128,-1,31
EndSplineSet
EndChar

StartChar: yen
Encoding: 165 165 103
Width: 549
GlyphClass: 2
Flags: W
LayerCount: 2
Fore
SplineSet
194 279 m 1,0,-1
 62 278 l 1,1,-1
 57 285 l 1,2,-1
 62 314 l 1,3,-1
 174 314 l 1,4,5
 165 331 165 331 148.5 363 c 128,-1,6
 132 395 132 395 125.5 405.5 c 128,-1,7
 119 416 119 416 105 432 c 128,-1,8
 91 448 91 448 74.5 453.5 c 128,-1,9
 58 459 58 459 33 460 c 1,10,-1
 31 469 l 1,11,-1
 38 505 l 1,12,13
 96 502 96 502 126 502 c 0,14,15
 166 502 166 502 255 509 c 1,16,-1
 260 499 l 1,17,-1
 257 465 l 1,18,19
 217 461 217 461 205.5 456 c 128,-1,20
 194 451 194 451 194 440.5 c 128,-1,21
 194 430 194 430 206 405 c 1,22,-1
 205 405 l 1,23,-1
 285 248 l 1,24,-1
 378 407 l 2,25,26
 391 429 391 429 391 444 c 128,-1,27
 391 459 391 459 338 464 c 1,28,-1
 337 471 l 1,29,-1
 342 508 l 1,30,31
 404 502 404 502 440 502 c 1,32,-1
 520 505 l 1,33,-1
 525 498 l 1,34,-1
 519 461 l 1,35,36
 472 454 472 454 452 428 c 0,37,38
 435 406 435 406 380 316 c 1,39,-1
 495 318 l 1,40,-1
 501 309 l 1,41,-1
 498 279 l 1,42,-1
 357 279 l 1,43,-1
 322 222 l 1,44,45
 314 205 314 205 312 183 c 1,46,-1
 495 187 l 1,47,-1
 501 178 l 1,48,-1
 498 148 l 1,49,-1
 311 148 l 1,50,-1
 310 90 l 2,51,52
 310 62 310 62 316.5 52 c 128,-1,53
 323 42 323 42 342 42 c 2,54,-1
 388 44 l 1,55,-1
 390 36 l 1,56,-1
 381 -2 l 1,57,58
 309 0 309 0 281 0 c 0,59,60
 235 0 235 0 171 -10 c 1,61,-1
 176 33 l 1,62,63
 223 41 223 41 232.5 58 c 128,-1,64
 242 75 242 75 242 135 c 0,65,66
 242 143 242 143 242 148 c 1,67,-1
 62 147 l 1,68,-1
 57 154 l 1,69,-1
 62 183 l 1,70,-1
 239 183 l 1,71,72
 230 215 230 215 218 236 c 2,73,-1
 194 279 l 1,0,-1
EndSplineSet
EndChar

StartChar: brokenbar
Encoding: 166 166 104
Width: 372
GlyphClass: 2
Flags: W
LayerCount: 2
Fore
SplineSet
152 166 m 1,0,-1
 216 178 l 1,1,-1
 219 175 l 1,2,-1
 220 -258 l 1,3,-1
 161 -269 l 1,4,-1
 152 -263 l 1,5,-1
 152 166 l 1,0,-1
153 370 m 1,6,-1
 154 796 l 1,7,-1
 214 807 l 1,8,-1
 225 801 l 1,9,10
 220 552 220 552 219 376 c 1,11,-1
 157 367 l 1,12,-1
 153 370 l 1,6,-1
EndSplineSet
EndChar

StartChar: section
Encoding: 167 167 105
Width: 512
GlyphClass: 2
Flags: W
LayerCount: 2
Fore
SplineSet
62.5 264 m 128,-1,1
 35 304 35 304 35 349 c 128,-1,2
 35 394 35 394 66 437.5 c 128,-1,3
 97 481 97 481 151 513 c 1,4,5
 155 569 155 569 197.5 609 c 128,-1,6
 240 649 240 649 298 649 c 0,7,8
 337 649 337 649 367 634 c 128,-1,9
 397 619 397 619 397 600.5 c 128,-1,10
 397 582 397 582 390.5 555.5 c 128,-1,11
 384 529 384 529 378 522 c 1,12,-1
 364 522 l 1,13,14
 350 556 350 556 321 578 c 128,-1,15
 292 600 292 600 265 600 c 128,-1,16
 238 600 238 600 222 582.5 c 128,-1,17
 206 565 206 565 206 534.5 c 128,-1,18
 206 504 206 504 234 472 c 128,-1,19
 262 440 262 440 302 413 c 128,-1,20
 342 386 342 386 381.5 357 c 128,-1,21
 421 328 421 328 449 289.5 c 128,-1,22
 477 251 477 251 477 204.5 c 128,-1,23
 477 158 477 158 444 109.5 c 128,-1,24
 411 61 411 61 360 35 c 1,25,26
 358 -14 358 -14 308.5 -59.5 c 128,-1,27
 259 -105 259 -105 201.5 -105 c 128,-1,28
 144 -105 144 -105 110.5 -82 c 128,-1,29
 77 -59 77 -59 77 -25 c 0,30,31
 77 -3 77 -3 82 24.5 c 128,-1,32
 87 52 87 52 92 60 c 1,33,-1
 107 60 l 1,34,35
 117 7 117 7 149 -25.5 c 128,-1,36
 181 -58 181 -58 219 -58 c 128,-1,37
 257 -58 257 -58 279.5 -37 c 128,-1,38
 302 -16 302 -16 302 16 c 128,-1,39
 302 48 302 48 274.5 79.5 c 128,-1,40
 247 111 247 111 207.5 138.5 c 128,-1,41
 168 166 168 166 129 195 c 128,-1,0
 90 224 90 224 62.5 264 c 128,-1,1
91 383 m 0,42,43
 91 345 91 345 128 305 c 128,-1,44
 165 265 165 265 211 234 c 128,-1,45
 257 203 257 203 301 159 c 128,-1,46
 345 115 345 115 356 72 c 1,47,48
 419 112 419 112 419 173 c 0,49,50
 419 226 419 226 334 290 c 0,51,52
 298 318 298 318 260 346 c 0,53,54
 168 416 168 416 154 478 c 1,55,56
 91 440 91 440 91 383 c 0,42,43
EndSplineSet
EndChar

StartChar: dieresis
Encoding: 168 168 106
Width: 398
GlyphClass: 2
Flags: W
LayerCount: 2
Fore
SplineSet
312.5 580.5 m 128,-1,1
 298 566 298 566 278 566 c 128,-1,2
 258 566 258 566 247 579 c 128,-1,3
 236 592 236 592 236 611 c 128,-1,4
 236 630 236 630 250.5 644.5 c 128,-1,5
 265 659 265 659 285 659 c 128,-1,6
 305 659 305 659 316 646.5 c 128,-1,7
 327 634 327 634 327 614.5 c 128,-1,0
 327 595 327 595 312.5 580.5 c 128,-1,1
146.5 580.5 m 128,-1,9
 132 566 132 566 112 566 c 128,-1,10
 92 566 92 566 81 579 c 128,-1,11
 70 592 70 592 70 611 c 128,-1,12
 70 630 70 630 84.5 644.5 c 128,-1,13
 99 659 99 659 119 659 c 128,-1,14
 139 659 139 659 150 646.5 c 128,-1,15
 161 634 161 634 161 614.5 c 128,-1,8
 161 595 161 595 146.5 580.5 c 128,-1,9
EndSplineSet
EndChar

StartChar: copyright
Encoding: 169 169 107
Width: 693
GlyphClass: 2
Flags: W
LayerCount: 2
Fore
SplineSet
447 150 m 1,0,1
 402 131 402 131 334 131 c 128,-1,2
 266 131 266 131 227.5 175 c 128,-1,3
 189 219 189 219 189 291 c 128,-1,4
 189 363 189 363 236.5 413 c 128,-1,5
 284 463 284 463 362 463 c 0,6,7
 402 463 402 463 458 451 c 1,8,-1
 460 447 l 1,9,10
 450 408 450 408 447 357 c 1,11,-1
 414 355 l 1,12,13
 415 368 415 368 415 379 c 0,14,15
 415 423 415 423 351 423 c 0,16,17
 306 423 306 423 280.5 392.5 c 128,-1,18
 255 362 255 362 255 301 c 128,-1,19
 255 240 255 240 279.5 203.5 c 128,-1,20
 304 167 304 167 353 167 c 0,21,22
 387 167 387 167 405.5 185 c 128,-1,23
 424 203 424 203 432 242 c 1,24,-1
 464 244 l 1,25,26
 453 195 453 195 451 157 c 1,27,-1
 447 150 l 1,0,1
42 293 m 128,-1,29
 42 419 42 419 131 508.5 c 128,-1,30
 220 598 220 598 346.5 598 c 128,-1,31
 473 598 473 598 562 508.5 c 128,-1,32
 651 419 651 419 651 293 c 128,-1,33
 651 167 651 167 562 77.5 c 128,-1,34
 473 -12 473 -12 346.5 -12 c 128,-1,35
 220 -12 220 -12 131 77.5 c 128,-1,28
 42 167 42 167 42 293 c 128,-1,29
84 293 m 128,-1,37
 84 183 84 183 160.5 105.5 c 128,-1,38
 237 28 237 28 346 28 c 128,-1,39
 455 28 455 28 532 105.5 c 128,-1,40
 609 183 609 183 609 293 c 128,-1,41
 609 403 609 403 532 480.5 c 128,-1,42
 455 558 455 558 346 558 c 128,-1,43
 237 558 237 558 160.5 480.5 c 128,-1,36
 84 403 84 403 84 293 c 128,-1,37
EndSplineSet
EndChar

StartChar: ordfeminine
Encoding: 170 170 108
Width: 321
GlyphClass: 2
Flags: W
LayerCount: 2
Fore
SplineSet
266 400 m 0,0,1
 284 400 284 400 301 413 c 1,2,-1
 310 401 l 1,3,4
 282 353 282 353 251 343 c 1,5,6
 195 343 195 343 190 393 c 1,7,-1
 186 394 l 1,8,9
 136 346 136 346 115 346 c 0,10,11
 79 346 79 346 54.5 370.5 c 128,-1,12
 30 395 30 395 30 434.5 c 128,-1,13
 30 474 30 474 66 484 c 1,14,-1
 188 514 l 1,15,-1
 189 534 l 1,16,17
 189 563 189 563 174.5 579 c 128,-1,18
 160 595 160 595 138 595 c 0,19,20
 98 595 98 595 68 572 c 1,21,-1
 58 565 l 1,22,-1
 53 567 l 1,23,-1
 44 600 l 1,24,25
 126 647 126 647 155 647 c 0,26,27
 204 647 204 647 229 624 c 128,-1,28
 254 601 254 601 254 563 c 1,29,-1
 242 427 l 1,30,31
 242 400 242 400 266 400 c 0,0,1
111 462 m 2,32,33
 94 457 94 457 94 439.5 c 128,-1,34
 94 422 94 422 105.5 410.5 c 128,-1,35
 117 399 117 399 137 399 c 128,-1,36
 157 399 157 399 185 422 c 1,37,-1
 187 484 l 1,38,-1
 111 462 l 2,32,33
EndSplineSet
EndChar

StartChar: guillemotleft
Encoding: 171 171 109
Width: 427
GlyphClass: 2
Flags: W
LayerCount: 2
Fore
SplineSet
358 400 m 1,0,-1
 380 385 l 1,1,-1
 381 375 l 1,2,-1
 274 226 l 1,3,-1
 381 71 l 1,4,-1
 380 61 l 1,5,-1
 358 46 l 1,6,7
 290 116 290 116 186 212 c 1,8,-1
 186 227 l 1,9,10
 282 318 282 318 358 400 c 1,0,-1
192 400 m 1,11,-1
 214 385 l 1,12,-1
 215 375 l 1,13,-1
 108 226 l 1,14,-1
 215 71 l 1,15,-1
 214 61 l 1,16,-1
 192 46 l 1,17,18
 124 116 124 116 20 212 c 1,19,-1
 20 227 l 1,20,21
 116 318 116 318 192 400 c 1,11,-1
EndSplineSet
EndChar

StartChar: logicalnot
Encoding: 172 172 110
Width: 506
GlyphClass: 2
Flags: W
LayerCount: 2
Fore
SplineSet
452 297 m 1,0,-1
 458 287 l 1,1,2
 451 224 451 224 450 177 c 1,3,-1
 451 41 l 1,4,-1
 402 30 l 1,5,-1
 393 36 l 1,6,7
 394 148 394 148 394 236 c 1,8,-1
 24 234 l 1,9,-1
 18 243 l 1,10,-1
 29 292 l 1,11,12
 179 291 179 291 268 291 c 1,13,-1
 452 297 l 1,0,-1
EndSplineSet
EndChar

StartChar: registered
Encoding: 174 174 111
Width: 468
GlyphClass: 2
Flags: W
LayerCount: 2
Fore
SplineSet
30 507 m 128,-1,1
 30 592 30 592 89.5 651.5 c 128,-1,2
 149 711 149 711 234 711 c 128,-1,3
 319 711 319 711 378.5 651.5 c 128,-1,4
 438 592 438 592 438 507 c 128,-1,5
 438 422 438 422 378.5 362.5 c 128,-1,6
 319 303 319 303 234 303 c 128,-1,7
 149 303 149 303 89.5 362.5 c 128,-1,0
 30 422 30 422 30 507 c 128,-1,1
65 507 m 128,-1,9
 65 437 65 437 114.5 387.5 c 128,-1,10
 164 338 164 338 234 338 c 128,-1,11
 304 338 304 338 353.5 387.5 c 128,-1,12
 403 437 403 437 403 507 c 128,-1,13
 403 577 403 577 353.5 626.5 c 128,-1,14
 304 676 304 676 234 676 c 128,-1,15
 164 676 164 676 114.5 626.5 c 128,-1,8
 65 577 65 577 65 507 c 128,-1,9
167 470 m 2,16,-1
 167 581 l 2,17,18
 167 599 167 599 155 599 c 2,19,-1
 144 599 l 1,20,-1
 142 603 l 1,21,-1
 145 620 l 1,22,23
 175 619 175 619 188 619 c 2,24,-1
 199 619 l 1,25,-1
 230 621 l 1,26,27
 268 621 268 621 289.5 606.5 c 128,-1,28
 311 592 311 592 311 566 c 0,29,30
 311 525 311 525 263 503 c 1,31,-1
 292 460 l 2,32,33
 313 428 313 428 333 428 c 1,34,-1
 336 424 l 1,35,36
 336 412 336 412 328 409.5 c 128,-1,37
 320 407 320 407 298.5 407 c 128,-1,38
 277 407 277 407 260 439 c 2,39,-1
 231 494 l 1,40,-1
 206 494 l 1,41,42
 205 480 205 480 205 461 c 128,-1,43
 205 442 205 442 208.5 437.5 c 128,-1,44
 212 433 212 433 229 433 c 1,45,-1
 231 429 l 1,46,-1
 229 412 l 1,47,48
 211 413 211 413 197 413 c 2,49,-1
 185 413 l 1,50,-1
 140 411 l 1,51,-1
 142 432 l 1,52,53
 159 433 159 433 163 440 c 128,-1,54
 167 447 167 447 167 470 c 2,16,-1
207 520 m 1,55,-1
 236 517 l 1,56,57
 267 529 267 529 267 559 c 0,58,59
 267 597 267 597 215 597 c 0,60,61
 209 597 209 597 209 589 c 0,62,63
 207 543 207 543 207 520 c 1,55,-1
EndSplineSet
EndChar

StartChar: macron
Encoding: 175 175 112
Width: 398
GlyphClass: 2
Flags: W
LayerCount: 2
Fore
SplineSet
343 653 m 1,0,-1
 349 643 l 1,1,-1
 342 596 l 1,2,-1
 56 594 l 1,3,-1
 50 603 l 1,4,-1
 60 648 l 1,5,6
 155 647 155 647 214 647 c 1,7,-1
 343 653 l 1,0,-1
EndSplineSet
EndChar

StartChar: degree
Encoding: 176 176 113
Width: 302
GlyphClass: 2
Flags: W
LayerCount: 2
Fore
SplineSet
25 523 m 128,-1,1
 25 576 25 576 61.5 612.5 c 128,-1,2
 98 649 98 649 151 649 c 128,-1,3
 204 649 204 649 240.5 612.5 c 128,-1,4
 277 576 277 576 277 523 c 128,-1,5
 277 470 277 470 240.5 433.5 c 128,-1,6
 204 397 204 397 151 397 c 128,-1,7
 98 397 98 397 61.5 433.5 c 128,-1,0
 25 470 25 470 25 523 c 128,-1,1
67 523 m 128,-1,9
 67 488 67 488 91.5 463.5 c 128,-1,10
 116 439 116 439 151 439 c 128,-1,11
 186 439 186 439 210.5 463.5 c 128,-1,12
 235 488 235 488 235 523 c 128,-1,13
 235 558 235 558 210.5 582.5 c 128,-1,14
 186 607 186 607 151 607 c 128,-1,15
 116 607 116 607 91.5 582.5 c 128,-1,8
 67 558 67 558 67 523 c 128,-1,9
EndSplineSet
EndChar

StartChar: plusminus
Encoding: 177 177 114
Width: 506
GlyphClass: 2
Flags: W
LayerCount: 2
Fore
SplineSet
480 249 m 1,0,-1
 278 248 l 1,1,-1
 279 64 l 1,2,-1
 230 53 l 1,3,-1
 221 59 l 1,4,5
 222 162 222 162 222 248 c 1,6,-1
 24 247 l 1,7,-1
 18 256 l 1,8,-1
 29 305 l 1,9,10
 135 304 135 304 222 304 c 1,11,-1
 223 495 l 1,12,-1
 274 503 l 1,13,-1
 284 497 l 1,14,15
 278 384 278 384 278 304 c 1,16,-1
 482 310 l 1,17,-1
 488 300 l 1,18,-1
 480 249 l 1,0,-1
480 -73 m 1,19,-1
 24 -75 l 1,20,-1
 18 -66 l 1,21,-1
 29 -17 l 1,22,23
 179 -18 179 -18 259 -18 c 128,-1,24
 339 -18 339 -18 410.5 -15.5 c 128,-1,25
 482 -13 482 -13 482 -12 c 2,26,-1
 488 -22 l 1,27,-1
 480 -73 l 1,19,-1
EndSplineSet
EndChar

StartChar: two.sups
Encoding: 178 178 115
Width: 329
GlyphClass: 2
Flags: W
LayerCount: 2
Fore
SplineSet
188 623 m 0,0,1
 188 669 188 669 135 669 c 128,-1,2
 82 669 82 669 45 607 c 1,3,-1
 38 607 l 1,4,-1
 28 648 l 1,5,6
 48 682 48 682 84 705 c 128,-1,7
 120 728 120 728 162 728 c 128,-1,8
 204 728 204 728 233.5 704.5 c 128,-1,9
 263 681 263 681 263 643 c 128,-1,10
 263 605 263 605 231 552.5 c 128,-1,11
 199 500 199 500 119 407 c 1,12,-1
 122 402 l 1,13,-1
 204 402 l 2,14,15
 236 402 236 402 249 413 c 128,-1,16
 262 424 262 424 270 459 c 1,17,-1
 308 463 l 1,18,19
 294 401 294 401 289 352 c 1,20,-1
 280 346 l 1,21,22
 130 351 130 351 72 351 c 1,23,-1
 30 344 l 1,24,-1
 24 369 l 1,25,-1
 93 446 l 1,26,27
 188 563 188 563 188 623 c 0,0,1
EndSplineSet
EndChar

StartChar: three.sups
Encoding: 179 179 116
Width: 293
GlyphClass: 2
Flags: W
LayerCount: 2
Fore
SplineSet
37 407 m 1,0,1
 64 399 64 399 97.5 399 c 128,-1,2
 131 399 131 399 158.5 417.5 c 128,-1,3
 186 436 186 436 186 465 c 0,4,5
 186 523 186 523 82 523 c 1,6,-1
 77 528 l 1,7,-1
 73 560 l 1,8,-1
 115 569 l 1,9,10
 168 595 168 595 168 635 c 0,11,12
 168 654 168 654 156 665 c 128,-1,13
 144 676 144 676 124 676 c 0,14,15
 87 676 87 676 52 648 c 1,16,-1
 45 648 l 1,17,-1
 35 685 l 1,18,19
 49 696 49 696 83.5 712 c 128,-1,20
 118 728 118 728 152.5 728 c 128,-1,21
 187 728 187 728 212 707 c 128,-1,22
 237 686 237 686 237 656 c 0,23,24
 237 598 237 598 167 565 c 1,25,-1
 167 560 l 1,26,27
 254 536 254 536 254 472 c 0,28,29
 254 426 254 426 197.5 384.5 c 128,-1,30
 141 343 141 343 78 343 c 0,31,32
 53 343 53 343 42.5 356 c 128,-1,33
 32 369 32 369 31 400 c 1,34,-1
 37 407 l 1,0,1
EndSplineSet
EndChar

StartChar: acute
Encoding: 180 180 117
Width: 398
GlyphClass: 2
Flags: W
LayerCount: 2
Fore
SplineSet
327 672 m 1,0,-1
 326 661 l 1,1,2
 242 597 242 597 158 521 c 1,3,-1
 149 523 l 1,4,-1
 129 542 l 1,5,6
 202 621 202 621 279 715 c 1,7,-1
 289 713 l 1,8,-1
 327 672 l 1,0,-1
EndSplineSet
EndChar

StartChar: mu
Encoding: 181 181 118
AltUni2: 0003bc.ffffffff.0
Width: 520
GlyphClass: 2
Flags: W
LayerCount: 2
Fore
SplineSet
127 11 m 1,0,1
 123 -85 123 -85 123 -99 c 0,2,3
 123 -140 123 -140 131 -220 c 1,4,-1
 126 -227 l 1,5,-1
 60 -242 l 1,6,-1
 53 -230 l 1,7,8
 64 -88 64 -88 68 73 c 2,9,-1
 74 328 l 1,10,11
 74 382 74 382 67 438 c 1,12,-1
 72 445 l 1,13,-1
 159 464 l 1,14,-1
 165 452 l 1,15,16
 156 427 156 427 147.5 338 c 128,-1,17
 139 249 139 249 139 153 c 128,-1,18
 139 57 139 57 223 57 c 0,19,20
 247 57 247 57 275 71 c 128,-1,21
 303 85 303 85 335 113 c 1,22,-1
 335 346 l 1,23,-1
 328 439 l 1,24,-1
 333 446 l 1,25,-1
 419 464 l 1,26,-1
 425 452 l 1,27,28
 416 429 416 429 409.5 327.5 c 128,-1,29
 403 226 403 226 403 105 c 0,30,31
 403 59 403 59 444 59 c 0,32,33
 471 59 471 59 504 84 c 1,34,-1
 518 68 l 1,35,36
 496 34 496 34 471 11 c 128,-1,37
 446 -12 446 -12 431 -12 c 0,38,39
 347 -12 347 -12 342 65 c 1,40,-1
 336 67 l 1,41,42
 254 -2 254 -2 207 -12 c 1,43,44
 165 -12 165 -12 132 14 c 1,45,-1
 127 11 l 1,0,1
EndSplineSet
EndChar

StartChar: paragraph
Encoding: 182 182 119
Width: 561
GlyphClass: 2
Flags: W
LayerCount: 2
Fore
SplineSet
253 641 m 1,0,-1
 382 637 l 1,1,-1
 507 640 l 1,2,-1
 501 598 l 1,3,-1
 499 594 l 1,4,5
 491 594 491 594 471 594 c 128,-1,6
 451 594 451 594 436 585.5 c 128,-1,7
 421 577 421 577 419 549 c 1,8,9
 408 477 408 477 408 154 c 0,10,11
 408 51 408 51 392.5 5 c 128,-1,12
 377 -41 377 -41 357 -61 c 0,13,14
 313 -105 313 -105 225 -105 c 0,15,16
 169 -105 169 -105 130 -81 c 128,-1,17
 91 -57 91 -57 91 -11.5 c 128,-1,18
 91 34 91 34 129 78 c 1,19,-1
 144 78 l 1,20,21
 144 12 144 12 170 -23 c 128,-1,22
 196 -58 196 -58 240 -58 c 0,23,24
 301 -58 301 -58 321 -16.5 c 128,-1,25
 341 25 341 25 341 134 c 2,26,-1
 341 578 l 1,27,28
 340 588 340 588 336.5 590 c 128,-1,29
 333 592 333 592 314 592 c 0,30,31
 265 592 265 592 240.5 552 c 128,-1,32
 216 512 216 512 216 443 c 128,-1,33
 216 374 216 374 232 325.5 c 128,-1,34
 248 277 248 277 285 227 c 1,35,-1
 285 212 l 1,36,37
 180 221 180 221 111 279.5 c 128,-1,38
 42 338 42 338 42 445 c 0,39,40
 42 528 42 528 100 584.5 c 128,-1,41
 158 641 158 641 253 641 c 1,0,-1
EndSplineSet
EndChar

StartChar: periodcentered
Encoding: 183 183 120
Width: 238
GlyphClass: 2
Flags: W
LayerCount: 2
Fore
SplineSet
161.5 186 m 128,-1,1
 144 168 144 168 116.5 168 c 128,-1,2
 89 168 89 168 74.5 184.5 c 128,-1,3
 60 201 60 201 60 226 c 128,-1,4
 60 251 60 251 77 269 c 128,-1,5
 94 287 94 287 121.5 287 c 128,-1,6
 149 287 149 287 164 270.5 c 128,-1,7
 179 254 179 254 179 229 c 128,-1,0
 179 204 179 204 161.5 186 c 128,-1,1
EndSplineSet
EndChar

StartChar: cedilla
Encoding: 184 184 121
Width: 398
GlyphClass: 2
Flags: W
LayerCount: 2
Fore
SplineSet
287 -139 m 0,0,1
 287 -177 287 -177 248.5 -205 c 128,-1,2
 210 -233 210 -233 176 -233 c 128,-1,3
 142 -233 142 -233 120.5 -223 c 128,-1,4
 99 -213 99 -213 99 -197 c 128,-1,5
 99 -181 99 -181 124 -141 c 1,6,-1
 133 -141 l 1,7,8
 134 -168 134 -168 149 -183 c 128,-1,9
 164 -198 164 -198 186 -198 c 128,-1,10
 208 -198 208 -198 222 -187.5 c 128,-1,11
 236 -177 236 -177 236 -160 c 0,12,13
 236 -134 236 -134 151 -85 c 1,14,-1
 184 23 l 1,15,-1
 227 23 l 1,16,-1
 202 -50 l 1,17,18
 206 -53 206 -53 219.5 -62 c 128,-1,19
 233 -71 233 -71 239.5 -75.5 c 128,-1,20
 246 -80 246 -80 256.5 -89 c 128,-1,21
 267 -98 267 -98 272 -105 c 0,22,23
 287 -123 287 -123 287 -139 c 0,0,1
EndSplineSet
EndChar

StartChar: one.sups
Encoding: 185 185 122
Width: 249
GlyphClass: 2
Flags: W
LayerCount: 2
Fore
SplineSet
175 727 m 2,0,-1
 181 728 l 1,1,-1
 182 728 l 1,2,-1
 187 713 l 1,3,4
 167 695 167 695 163 662 c 1,5,6
 157 550 157 550 157 429 c 0,7,8
 157 405 157 405 163.5 395.5 c 128,-1,9
 170 386 170 386 187 386 c 1,10,-1
 219 388 l 1,11,-1
 221 385 l 1,12,-1
 214 349 l 1,13,14
 158 351 158 351 126 351 c 1,15,-1
 35 344 l 1,16,-1
 39 379 l 1,17,18
 70 381 70 381 83 392 c 128,-1,19
 96 403 96 403 96 430 c 2,20,-1
 96 639 l 2,21,22
 96 661 96 661 88.5 667.5 c 128,-1,23
 81 674 81 674 63 674 c 1,24,-1
 30 671 l 1,25,-1
 27 674 l 1,26,-1
 30 706 l 1,27,28
 83 713 83 713 98.5 715 c 128,-1,29
 114 717 114 717 123 718.5 c 128,-1,30
 132 720 132 720 139 721 c 128,-1,31
 146 722 146 722 152 723 c 128,-1,32
 158 724 158 724 162 724.5 c 128,-1,33
 166 725 166 725 169.5 726 c 128,-1,34
 173 727 173 727 175 727 c 2,0,-1
EndSplineSet
EndChar

StartChar: ordmasculine
Encoding: 186 186 123
Width: 338
GlyphClass: 2
Flags: W
LayerCount: 2
Fore
SplineSet
267.5 388.5 m 128,-1,1
 225 343 225 343 162.5 343 c 128,-1,2
 100 343 100 343 64 382.5 c 128,-1,3
 28 422 28 422 28 489 c 128,-1,4
 28 556 28 556 71 601.5 c 128,-1,5
 114 647 114 647 176.5 647 c 128,-1,6
 239 647 239 647 274.5 608 c 128,-1,7
 310 569 310 569 310 501.5 c 128,-1,0
 310 434 310 434 267.5 388.5 c 128,-1,1
118.5 416.5 m 128,-1,9
 139 384 139 384 172 384 c 0,10,11
 239 384 239 384 239 478 c 0,12,13
 239 536 239 536 218.5 568.5 c 128,-1,14
 198 601 198 601 165 601 c 0,15,16
 98 601 98 601 98 507 c 0,17,8
 98 449 98 449 118.5 416.5 c 128,-1,9
EndSplineSet
EndChar

StartChar: guillemotright
Encoding: 187 187 124
Width: 427
GlyphClass: 2
Flags: W
LayerCount: 2
Fore
SplineSet
235 46 m 1,0,-1
 213 61 l 1,1,-1
 212 71 l 1,2,-1
 319 220 l 1,3,-1
 212 375 l 1,4,-1
 213 385 l 1,5,-1
 235 400 l 1,6,7
 303 330 303 330 407 234 c 1,8,-1
 407 219 l 1,9,10
 311 128 311 128 235 46 c 1,0,-1
69 46 m 1,11,-1
 47 61 l 1,12,-1
 46 71 l 1,13,-1
 153 220 l 1,14,-1
 46 375 l 1,15,-1
 47 385 l 1,16,-1
 69 400 l 1,17,18
 137 330 137 330 241 234 c 1,19,-1
 241 219 l 1,20,21
 145 128 145 128 69 46 c 1,11,-1
EndSplineSet
EndChar

StartChar: onequarter
Encoding: 188 188 125
Width: 685
GlyphClass: 2
Flags: W
LayerCount: 2
Fore
SplineSet
175 643 m 2,0,-1
 181 644 l 1,1,-1
 182 644 l 1,2,-1
 187 629 l 1,3,4
 167 611 167 611 163 578 c 1,5,6
 157 466 157 466 157 345 c 0,7,8
 157 321 157 321 163.5 311.5 c 128,-1,9
 170 302 170 302 187 302 c 1,10,-1
 219 304 l 1,11,-1
 221 301 l 1,12,-1
 214 265 l 1,13,14
 158 267 158 267 126 267 c 1,15,-1
 35 260 l 1,16,-1
 39 295 l 1,17,18
 70 297 70 297 83 308 c 128,-1,19
 96 319 96 319 96 346 c 2,20,-1
 96 555 l 2,21,22
 96 577 96 577 88.5 583.5 c 128,-1,23
 81 590 81 590 63 590 c 1,24,-1
 30 587 l 1,25,-1
 27 590 l 1,26,-1
 30 622 l 1,27,28
 83 629 83 629 98.5 631 c 128,-1,29
 114 633 114 633 123 634.5 c 128,-1,30
 132 636 132 636 139 637 c 128,-1,31
 146 638 146 638 152 639 c 128,-1,32
 158 640 158 640 162 640.5 c 128,-1,33
 166 641 166 641 169.5 642 c 128,-1,34
 173 643 173 643 175 643 c 2,0,-1
583 659 m 1,35,-1
 588 645 l 1,36,37
 414 386 414 386 326 245 c 2,38,-1
 111 -95 l 1,39,-1
 73 -76 l 1,40,-1
 68 -64 l 1,41,42
 201 138 201 138 544 678 c 1,43,-1
 583 659 l 1,35,-1
600 152 m 1,44,-1
 655 152 l 1,45,-1
 660 145 l 1,46,-1
 654 101 l 1,47,-1
 600 103 l 1,48,-1
 604 6 l 1,49,-1
 600 0 l 1,50,-1
 539 -7 l 1,51,-1
 534 -1 l 1,52,53
 538 57 538 57 538 104 c 1,54,-1
 384 107 l 1,55,-1
 386 141 l 1,56,-1
 558 376 l 1,57,-1
 561 377 l 1,58,-1
 600 371 l 1,59,-1
 600 152 l 1,44,-1
538 152 m 1,60,-1
 538 277 l 1,61,-1
 532 277 l 1,62,-1
 442 152 l 1,63,-1
 538 152 l 1,60,-1
EndSplineSet
EndChar

StartChar: onehalf
Encoding: 189 189 126
Width: 713
GlyphClass: 2
Flags: W
LayerCount: 2
Fore
SplineSet
175 643 m 2,0,-1
 181 644 l 1,1,-1
 182 644 l 1,2,-1
 187 629 l 1,3,4
 167 611 167 611 163 578 c 1,5,6
 157 466 157 466 157 345 c 0,7,8
 157 321 157 321 163.5 311.5 c 128,-1,9
 170 302 170 302 187 302 c 1,10,-1
 219 304 l 1,11,-1
 221 301 l 1,12,-1
 214 265 l 1,13,14
 158 267 158 267 126 267 c 1,15,-1
 35 260 l 1,16,-1
 39 295 l 1,17,18
 70 297 70 297 83 308 c 128,-1,19
 96 319 96 319 96 346 c 2,20,-1
 96 555 l 2,21,22
 96 577 96 577 88.5 583.5 c 128,-1,23
 81 590 81 590 63 590 c 1,24,-1
 30 587 l 1,25,-1
 27 590 l 1,26,-1
 30 622 l 1,27,28
 83 629 83 629 98.5 631 c 128,-1,29
 114 633 114 633 123 634.5 c 128,-1,30
 132 636 132 636 139 637 c 128,-1,31
 146 638 146 638 152 639 c 128,-1,32
 158 640 158 640 162 640.5 c 128,-1,33
 166 641 166 641 169.5 642 c 128,-1,34
 173 643 173 643 175 643 c 2,0,-1
583 659 m 1,35,-1
 588 645 l 1,36,37
 414 386 414 386 326 245 c 2,38,-1
 111 -95 l 1,39,-1
 73 -76 l 1,40,-1
 68 -64 l 1,41,42
 201 138 201 138 544 678 c 1,43,-1
 583 659 l 1,35,-1
572 272 m 0,44,45
 572 318 572 318 519 318 c 128,-1,46
 466 318 466 318 429 256 c 1,47,-1
 422 256 l 1,48,-1
 412 297 l 1,49,50
 432 331 432 331 468 354 c 128,-1,51
 504 377 504 377 546 377 c 128,-1,52
 588 377 588 377 617.5 353.5 c 128,-1,53
 647 330 647 330 647 292 c 128,-1,54
 647 254 647 254 615 201.5 c 128,-1,55
 583 149 583 149 503 56 c 1,56,-1
 506 51 l 1,57,-1
 588 51 l 2,58,59
 620 51 620 51 633 62 c 128,-1,60
 646 73 646 73 654 108 c 1,61,-1
 692 112 l 1,62,63
 678 50 678 50 673 1 c 1,64,-1
 664 -5 l 1,65,66
 514 0 514 0 456 0 c 1,67,-1
 414 -7 l 1,68,-1
 408 18 l 1,69,-1
 477 95 l 1,70,71
 572 212 572 212 572 272 c 0,44,45
EndSplineSet
EndChar

StartChar: threequarters
Encoding: 190 190 127
Width: 689
GlyphClass: 2
Flags: W
LayerCount: 2
Fore
SplineSet
37 323 m 1,0,1
 64 315 64 315 97.5 315 c 128,-1,2
 131 315 131 315 158.5 333.5 c 128,-1,3
 186 352 186 352 186 381 c 0,4,5
 186 439 186 439 82 439 c 1,6,-1
 77 444 l 1,7,-1
 73 476 l 1,8,-1
 115 485 l 1,9,10
 168 511 168 511 168 551 c 0,11,12
 168 570 168 570 156 581 c 128,-1,13
 144 592 144 592 124 592 c 0,14,15
 87 592 87 592 52 564 c 1,16,-1
 45 564 l 1,17,-1
 35 601 l 1,18,19
 49 612 49 612 83.5 628 c 128,-1,20
 118 644 118 644 152.5 644 c 128,-1,21
 187 644 187 644 212 623 c 128,-1,22
 237 602 237 602 237 572 c 0,23,24
 237 514 237 514 167 481 c 1,25,-1
 167 476 l 1,26,27
 254 452 254 452 254 388 c 0,28,29
 254 342 254 342 197.5 300.5 c 128,-1,30
 141 259 141 259 78 259 c 0,31,32
 53 259 53 259 42.5 272 c 128,-1,33
 32 285 32 285 31 316 c 1,34,-1
 37 323 l 1,0,1
587 659 m 1,35,-1
 592 645 l 1,36,37
 418 386 418 386 330 245 c 2,38,-1
 115 -95 l 1,39,-1
 77 -76 l 1,40,-1
 72 -64 l 1,41,42
 205 138 205 138 548 678 c 1,43,-1
 587 659 l 1,35,-1
604 152 m 1,44,-1
 659 152 l 1,45,-1
 664 145 l 1,46,-1
 658 101 l 1,47,-1
 604 103 l 1,48,-1
 608 6 l 1,49,-1
 604 0 l 1,50,-1
 543 -7 l 1,51,-1
 538 -1 l 1,52,53
 542 57 542 57 542 104 c 1,54,-1
 388 107 l 1,55,-1
 390 141 l 1,56,-1
 562 376 l 1,57,-1
 565 377 l 1,58,-1
 604 371 l 1,59,-1
 604 152 l 1,44,-1
542 152 m 1,60,-1
 542 277 l 1,61,-1
 536 277 l 1,62,-1
 446 152 l 1,63,-1
 542 152 l 1,60,-1
EndSplineSet
EndChar

StartChar: questiondown
Encoding: 191 191 128
Width: 360
GlyphClass: 2
Flags: W
LayerCount: 2
Fore
SplineSet
97 -47 m 0,0,1
 97 -162 97 -162 300 -174 c 1,2,-1
 302 -185 l 1,3,-1
 269 -238 l 1,4,-1
 255 -242 l 1,5,6
 162 -239 162 -239 96.5 -191.5 c 128,-1,7
 31 -144 31 -144 31 -77 c 0,8,9
 31 -13 31 -13 70 28 c 0,10,11
 90 49 90 49 105 61 c 128,-1,12
 120 73 120 73 152 94 c 128,-1,13
 184 115 184 115 197 124 c 1,14,-1
 200 133 l 1,15,-1
 179 228 l 1,16,-1
 182 236 l 1,17,-1
 243 253 l 1,18,-1
 252 249 l 1,19,-1
 276 129 l 1,20,-1
 273 115 l 1,21,-1
 154 39 l 1,22,23
 97 0 97 0 97 -47 c 0,0,1
171.5 446 m 128,-1,25
 189 464 189 464 216.5 464 c 128,-1,26
 244 464 244 464 258.5 447.5 c 128,-1,27
 273 431 273 431 273 406 c 128,-1,28
 273 381 273 381 256 363 c 128,-1,29
 239 345 239 345 211.5 345 c 128,-1,30
 184 345 184 345 169 361.5 c 128,-1,31
 154 378 154 378 154 403 c 128,-1,24
 154 428 154 428 171.5 446 c 128,-1,25
EndSplineSet
EndChar

StartChar: Agrave
Encoding: 192 192 129
Width: 578
GlyphClass: 2
Flags: W
LayerCount: 2
Fore
SplineSet
329 -10 m 1,0,-1
 326 -3 l 1,1,-1
 330 36 l 1,2,3
 381 40 381 40 400 48 c 128,-1,4
 419 56 419 56 419 75 c 128,-1,5
 419 94 419 94 410 122 c 2,6,-1
 377 231 l 1,7,8
 353 232 353 232 289 232 c 128,-1,9
 225 232 225 232 164 224 c 1,10,-1
 127 120 l 2,11,12
 118 93 118 93 118 81 c 0,13,14
 118 40 118 40 178 40 c 2,15,-1
 235 40 l 1,16,-1
 237 36 l 1,17,-1
 231 -7 l 1,18,19
 158 0 158 0 92 0 c 1,20,-1
 -18 -3 l 1,21,-1
 -10 44 l 1,22,23
 18 47 18 47 35 63.5 c 128,-1,24
 52 80 52 80 68 121 c 2,25,-1
 263 632 l 1,26,-1
 326 649 l 1,27,-1
 334 649 l 1,28,29
 418 338 418 338 493 113 c 0,30,31
 505 76 505 76 525 61 c 128,-1,32
 545 46 545 46 589 42 c 1,33,-1
 591 38 l 1,34,-1
 584 -3 l 1,35,36
 512 0 512 0 460.5 0 c 128,-1,37
 409 0 409 0 329 -10 c 1,0,-1
270 273 m 2,38,39
 306 273 306 273 363 278 c 1,40,-1
 284 540 l 1,41,-1
 277 540 l 1,42,-1
 182 273 l 1,43,-1
 270 273 l 2,38,39
146 777 m 1,44,-1
 142 787 l 1,45,-1
 158 835 l 1,46,-1
 167 841 l 1,47,48
 272 781 272 781 366 732 c 1,49,-1
 360 708 l 1,50,-1
 352 703 l 1,51,-1
 146 777 l 1,44,-1
EndSplineSet
EndChar

StartChar: Aacute
Encoding: 193 193 130
Width: 578
GlyphClass: 2
Flags: W
LayerCount: 2
Fore
SplineSet
329 -10 m 1,0,-1
 326 -3 l 1,1,-1
 330 36 l 1,2,3
 381 40 381 40 400 48 c 128,-1,4
 419 56 419 56 419 75 c 128,-1,5
 419 94 419 94 410 122 c 2,6,-1
 377 231 l 1,7,8
 353 232 353 232 289 232 c 128,-1,9
 225 232 225 232 164 224 c 1,10,-1
 127 120 l 2,11,12
 118 93 118 93 118 81 c 0,13,14
 118 40 118 40 178 40 c 2,15,-1
 235 40 l 1,16,-1
 237 36 l 1,17,-1
 231 -7 l 1,18,19
 158 0 158 0 92 0 c 1,20,-1
 -18 -3 l 1,21,-1
 -10 44 l 1,22,23
 18 47 18 47 35 63.5 c 128,-1,24
 52 80 52 80 68 121 c 2,25,-1
 263 632 l 1,26,-1
 326 649 l 1,27,-1
 334 649 l 1,28,29
 418 338 418 338 493 113 c 0,30,31
 505 76 505 76 525 61 c 128,-1,32
 545 46 545 46 589 42 c 1,33,-1
 591 38 l 1,34,-1
 584 -3 l 1,35,36
 512 0 512 0 460.5 0 c 128,-1,37
 409 0 409 0 329 -10 c 1,0,-1
270 273 m 2,38,39
 306 273 306 273 363 278 c 1,40,-1
 284 540 l 1,41,-1
 277 540 l 1,42,-1
 182 273 l 1,43,-1
 270 273 l 2,38,39
455 787 m 1,44,-1
 451 777 l 1,45,46
 350 743 350 743 245 703 c 1,47,-1
 237 708 l 1,48,-1
 231 732 l 1,49,-1
 430 841 l 1,50,-1
 439 835 l 1,51,-1
 455 787 l 1,44,-1
EndSplineSet
EndChar

StartChar: Acircumflex
Encoding: 194 194 131
Width: 578
GlyphClass: 2
Flags: W
LayerCount: 2
Fore
SplineSet
329 -10 m 1,0,-1
 326 -3 l 1,1,-1
 330 36 l 1,2,3
 381 40 381 40 400 48 c 128,-1,4
 419 56 419 56 419 75 c 128,-1,5
 419 94 419 94 410 122 c 2,6,-1
 377 231 l 1,7,8
 353 232 353 232 289 232 c 128,-1,9
 225 232 225 232 164 224 c 1,10,-1
 127 120 l 2,11,12
 118 93 118 93 118 81 c 0,13,14
 118 40 118 40 178 40 c 2,15,-1
 235 40 l 1,16,-1
 237 36 l 1,17,-1
 231 -7 l 1,18,19
 158 0 158 0 92 0 c 1,20,-1
 -18 -3 l 1,21,-1
 -10 44 l 1,22,23
 18 47 18 47 35 63.5 c 128,-1,24
 52 80 52 80 68 121 c 2,25,-1
 263 632 l 1,26,-1
 326 649 l 1,27,-1
 334 649 l 1,28,29
 418 338 418 338 493 113 c 0,30,31
 505 76 505 76 525 61 c 128,-1,32
 545 46 545 46 589 42 c 1,33,-1
 591 38 l 1,34,-1
 584 -3 l 1,35,36
 512 0 512 0 460.5 0 c 128,-1,37
 409 0 409 0 329 -10 c 1,0,-1
270 273 m 2,38,39
 306 273 306 273 363 278 c 1,40,-1
 284 540 l 1,41,-1
 277 540 l 1,42,-1
 182 273 l 1,43,-1
 270 273 l 2,38,39
164 713 m 1,44,-1
 150 735 l 1,45,-1
 288 846 l 1,46,-1
 302 846 l 1,47,48
 375 784 375 784 440 735 c 1,49,-1
 426 713 l 1,50,-1
 417 712 l 1,51,52
 350 751 350 751 295 777 c 1,53,54
 243 753 243 753 173 712 c 1,55,-1
 164 713 l 1,44,-1
EndSplineSet
EndChar

StartChar: Atilde
Encoding: 195 195 132
Width: 578
GlyphClass: 2
Flags: W
LayerCount: 2
Fore
SplineSet
329 -10 m 1,0,-1
 326 -3 l 1,1,-1
 330 36 l 1,2,3
 381 40 381 40 400 48 c 128,-1,4
 419 56 419 56 419 75 c 128,-1,5
 419 94 419 94 410 122 c 2,6,-1
 377 231 l 1,7,8
 353 232 353 232 289 232 c 128,-1,9
 225 232 225 232 164 224 c 1,10,-1
 127 120 l 2,11,12
 118 93 118 93 118 81 c 0,13,14
 118 40 118 40 178 40 c 2,15,-1
 235 40 l 1,16,-1
 237 36 l 1,17,-1
 231 -7 l 1,18,19
 158 0 158 0 92 0 c 1,20,-1
 -18 -3 l 1,21,-1
 -10 44 l 1,22,23
 18 47 18 47 35 63.5 c 128,-1,24
 52 80 52 80 68 121 c 2,25,-1
 263 632 l 1,26,-1
 326 649 l 1,27,-1
 334 649 l 1,28,29
 418 338 418 338 493 113 c 0,30,31
 505 76 505 76 525 61 c 128,-1,32
 545 46 545 46 589 42 c 1,33,-1
 591 38 l 1,34,-1
 584 -3 l 1,35,36
 512 0 512 0 460.5 0 c 128,-1,37
 409 0 409 0 329 -10 c 1,0,-1
270 273 m 2,38,39
 306 273 306 273 363 278 c 1,40,-1
 284 540 l 1,41,-1
 277 540 l 1,42,-1
 182 273 l 1,43,-1
 270 273 l 2,38,39
299 791.5 m 128,-1,45
 357 775 357 775 368 775 c 0,46,47
 390 775 390 775 422 809 c 1,48,-1
 433 820 l 1,49,-1
 439 820 l 1,50,-1
 461 799 l 1,51,-1
 461 794 l 1,52,-1
 385 715 l 1,53,-1
 369 711 l 1,54,55
 352 711 352 711 294 727.5 c 128,-1,56
 236 744 236 744 224 744 c 0,57,58
 201 744 201 744 170 710 c 2,59,-1
 160 699 l 1,60,-1
 154 699 l 1,61,-1
 132 720 l 1,62,-1
 132 725 l 1,63,-1
 208 804 l 1,64,-1
 224 808 l 1,65,44
 241 808 241 808 299 791.5 c 128,-1,45
EndSplineSet
EndChar

StartChar: Adieresis
Encoding: 196 196 133
Width: 578
GlyphClass: 2
Flags: W
LayerCount: 2
Fore
SplineSet
329 -10 m 1,0,-1
 326 -3 l 1,1,-1
 330 36 l 1,2,3
 381 40 381 40 400 48 c 128,-1,4
 419 56 419 56 419 75 c 128,-1,5
 419 94 419 94 410 122 c 2,6,-1
 377 231 l 1,7,8
 353 232 353 232 289 232 c 128,-1,9
 225 232 225 232 164 224 c 1,10,-1
 127 120 l 2,11,12
 118 93 118 93 118 81 c 0,13,14
 118 40 118 40 178 40 c 2,15,-1
 235 40 l 1,16,-1
 237 36 l 1,17,-1
 231 -7 l 1,18,19
 158 0 158 0 92 0 c 1,20,-1
 -18 -3 l 1,21,-1
 -10 44 l 1,22,23
 18 47 18 47 35 63.5 c 128,-1,24
 52 80 52 80 68 121 c 2,25,-1
 263 632 l 1,26,-1
 326 649 l 1,27,-1
 334 649 l 1,28,29
 418 338 418 338 493 113 c 0,30,31
 505 76 505 76 525 61 c 128,-1,32
 545 46 545 46 589 42 c 1,33,-1
 591 38 l 1,34,-1
 584 -3 l 1,35,36
 512 0 512 0 460.5 0 c 128,-1,37
 409 0 409 0 329 -10 c 1,0,-1
270 273 m 2,38,39
 306 273 306 273 363 278 c 1,40,-1
 284 540 l 1,41,-1
 277 540 l 1,42,-1
 182 273 l 1,43,-1
 270 273 l 2,38,39
408.5 739.5 m 128,-1,45
 394 725 394 725 374 725 c 128,-1,46
 354 725 354 725 343 738 c 128,-1,47
 332 751 332 751 332 770 c 128,-1,48
 332 789 332 789 346.5 803.5 c 128,-1,49
 361 818 361 818 381 818 c 128,-1,50
 401 818 401 818 412 805.5 c 128,-1,51
 423 793 423 793 423 773.5 c 128,-1,44
 423 754 423 754 408.5 739.5 c 128,-1,45
242.5 739.5 m 128,-1,53
 228 725 228 725 208 725 c 128,-1,54
 188 725 188 725 177 738 c 128,-1,55
 166 751 166 751 166 770 c 128,-1,56
 166 789 166 789 180.5 803.5 c 128,-1,57
 195 818 195 818 215 818 c 128,-1,58
 235 818 235 818 246 805.5 c 128,-1,59
 257 793 257 793 257 773.5 c 128,-1,52
 257 754 257 754 242.5 739.5 c 128,-1,53
EndSplineSet
EndChar

StartChar: Aring
Encoding: 197 197 134
Width: 578
GlyphClass: 2
Flags: W
LayerCount: 2
Fore
SplineSet
329 -10 m 1,0,-1
 326 -3 l 1,1,-1
 330 36 l 1,2,3
 381 40 381 40 400 48 c 128,-1,4
 419 56 419 56 419 75 c 128,-1,5
 419 94 419 94 410 122 c 2,6,-1
 377 231 l 1,7,8
 353 232 353 232 289 232 c 128,-1,9
 225 232 225 232 164 224 c 1,10,-1
 127 120 l 2,11,12
 118 93 118 93 118 81 c 0,13,14
 118 40 118 40 178 40 c 2,15,-1
 235 40 l 1,16,-1
 237 36 l 1,17,-1
 231 -7 l 1,18,19
 158 0 158 0 92 0 c 1,20,-1
 -18 -3 l 1,21,-1
 -10 44 l 1,22,23
 18 47 18 47 35 63.5 c 128,-1,24
 52 80 52 80 68 121 c 2,25,-1
 263 632 l 1,26,-1
 326 649 l 1,27,-1
 334 649 l 1,28,29
 418 338 418 338 493 113 c 0,30,31
 505 76 505 76 525 61 c 128,-1,32
 545 46 545 46 589 42 c 1,33,-1
 591 38 l 1,34,-1
 584 -3 l 1,35,36
 512 0 512 0 460.5 0 c 128,-1,37
 409 0 409 0 329 -10 c 1,0,-1
270 273 m 2,38,39
 306 273 306 273 363 278 c 1,40,-1
 284 540 l 1,41,-1
 277 540 l 1,42,-1
 182 273 l 1,43,-1
 270 273 l 2,38,39
297 712 m 0,44,45
 341 712 341 712 341 751 c 0,46,47
 341 773 341 773 327.5 786 c 128,-1,48
 314 799 314 799 290 799 c 0,49,50
 246 799 246 799 246 760 c 0,51,52
 246 736 246 736 262 724 c 128,-1,53
 278 712 278 712 297 712 c 0,44,45
352 700 m 128,-1,55
 329 674 329 674 291.5 674 c 128,-1,56
 254 674 254 674 234 696 c 128,-1,57
 214 718 214 718 214 754.5 c 128,-1,58
 214 791 214 791 237 814.5 c 128,-1,59
 260 838 260 838 298 838 c 128,-1,60
 336 838 336 838 355.5 816 c 128,-1,61
 375 794 375 794 375 760 c 128,-1,54
 375 726 375 726 352 700 c 128,-1,55
EndSplineSet
EndChar

StartChar: AE
Encoding: 198 198 135
Width: 810
GlyphClass: 2
Flags: W
LayerCount: 2
Fore
SplineSet
379 50.5 m 128,-1,1
 398 60 398 60 398 81 c 0,2,3
 398 105 398 105 373 276 c 1,4,-1
 274 268 l 1,5,-1
 183 258 l 1,6,-1
 112 120 l 2,7,8
 96 89 96 89 96 74 c 0,9,10
 96 40 96 40 151 40 c 2,11,-1
 208 40 l 1,12,-1
 203 -7 l 1,13,14
 129 0 129 0 65 0 c 1,15,-1
 -3 -4 l 1,16,-1
 -10 31 l 1,17,18
 23 66 23 66 53 121 c 2,19,-1
 300 578 l 1,20,21
 296 594 296 594 275 594 c 1,22,-1
 241 592 l 1,23,-1
 239 596 l 1,24,-1
 246 640 l 1,25,26
 357 637 357 637 405 637 c 0,27,28
 623 637 623 637 703 649 c 1,29,-1
 706 643 l 1,30,31
 689 569 689 569 683 477 c 1,32,-1
 635 473 l 1,33,34
 637 502 637 502 637 516 c 0,35,36
 637 565 637 565 612 576 c 128,-1,37
 587 587 587 587 510 587 c 128,-1,38
 433 587 433 587 422 582 c 128,-1,39
 411 577 411 577 410 556 c 1,40,-1
 441 328 l 1,41,-1
 559 339 l 1,42,-1
 651 352 l 1,43,-1
 655 347 l 1,44,-1
 642 294 l 1,45,-1
 556 291 l 1,46,-1
 447 282 l 1,47,-1
 475 113 l 2,48,49
 481 75 481 75 499.5 60 c 128,-1,50
 518 45 518 45 559 45 c 0,51,52
 668 45 668 45 697 65 c 128,-1,53
 726 85 726 85 737 167 c 1,54,-1
 781 172 l 1,55,-1
 784 167 l 1,56,57
 766 84 766 84 757 -1 c 1,58,-1
 752 -7 l 1,59,60
 544 0 544 0 483 0 c 2,61,-1
 449 0 l 2,62,63
 381 0 381 0 301 -10 c 1,64,-1
 299 -3 l 1,65,-1
 301 36 l 1,66,0
 360 41 360 41 379 50.5 c 128,-1,1
210 310 m 1,67,-1
 367 321 l 1,68,-1
 337 539 l 1,69,-1
 328 539 l 1,70,-1
 210 310 l 1,67,-1
EndSplineSet
EndChar

StartChar: Ccedilla
Encoding: 199 199 136
Width: 629
GlyphClass: 2
Flags: W
LayerCount: 2
Fore
SplineSet
115.5 77.5 m 128,-1,1
 40 160 40 160 40 304.5 c 128,-1,2
 40 449 40 449 139 549 c 128,-1,3
 238 649 238 649 389 649 c 0,4,5
 463 649 463 649 563 625 c 1,6,-1
 567 619 l 1,7,8
 548 544 548 544 542 452 c 1,9,-1
 494 448 l 1,10,11
 497 475 497 475 497 497 c 0,12,13
 497 590 497 590 350 590 c 0,14,15
 249 590 249 590 189.5 519.5 c 128,-1,16
 130 449 130 449 130 323.5 c 128,-1,17
 130 198 130 198 192.5 118 c 128,-1,18
 255 38 255 38 359 38 c 0,19,20
 427 38 427 38 468.5 76.5 c 128,-1,21
 510 115 510 115 529 196 c 1,22,-1
 577 200 l 1,23,24
 557 109 557 109 550 37 c 1,25,-1
 544 28 l 1,26,27
 468 -7 468 -7 362 -11 c 1,28,-1
 349 -50 l 1,29,30
 353 -53 353 -53 366.5 -62 c 128,-1,31
 380 -71 380 -71 386.5 -75.5 c 128,-1,32
 393 -80 393 -80 403.5 -89 c 128,-1,33
 414 -98 414 -98 420 -105 c 0,34,35
 434 -123 434 -123 434 -139 c 0,36,37
 434 -177 434 -177 395.5 -205 c 128,-1,38
 357 -233 357 -233 323 -233 c 128,-1,39
 289 -233 289 -233 267.5 -223 c 128,-1,40
 246 -213 246 -213 246 -197 c 128,-1,41
 246 -181 246 -181 271 -141 c 1,42,-1
 280 -141 l 1,43,44
 281 -168 281 -168 295.5 -183 c 128,-1,45
 310 -198 310 -198 332.5 -198 c 128,-1,46
 355 -198 355 -198 369 -187.5 c 128,-1,47
 383 -177 383 -177 383 -160 c 0,48,49
 383 -134 383 -134 298 -85 c 1,50,-1
 320 -11 l 1,51,0
 191 -5 191 -5 115.5 77.5 c 128,-1,1
EndSplineSet
EndChar

StartChar: Egrave
Encoding: 200 200 137
Width: 591
GlyphClass: 2
Flags: W
LayerCount: 2
Fore
SplineSet
219 354 m 1,0,-1
 322 353 l 1,1,-1
 444 364 l 1,2,-1
 448 359 l 1,3,-1
 434 300 l 1,4,5
 348 303 348 303 302.5 303 c 128,-1,6
 257 303 257 303 217 296 c 1,7,8
 213 152 213 152 213 108 c 128,-1,9
 213 64 213 64 225.5 54.5 c 128,-1,10
 238 45 238 45 307 45 c 128,-1,11
 376 45 376 45 411 53.5 c 128,-1,12
 446 62 446 62 461.5 85.5 c 128,-1,13
 477 109 477 109 485 167 c 1,14,-1
 529 172 l 1,15,-1
 532 167 l 1,16,17
 514 84 514 84 505 -1 c 1,18,-1
 500 -7 l 1,19,20
 292 0 292 0 228 0 c 0,21,22
 130 0 130 0 58 -10 c 1,23,-1
 64 36 l 1,24,25
 109 42 109 42 125.5 59.5 c 128,-1,26
 142 77 142 77 142 120 c 2,27,-1
 143 540 l 2,28,29
 143 572 143 572 135.5 583 c 128,-1,30
 128 594 128 594 106 594 c 1,31,-1
 72 592 l 1,32,-1
 70 596 l 1,33,-1
 77 640 l 1,34,35
 156 637 156 637 292 637 c 128,-1,36
 428 637 428 637 516 649 c 1,37,-1
 519 643 l 1,38,39
 502 569 502 569 496 477 c 1,40,-1
 448 473 l 1,41,42
 450 502 450 502 450 516 c 0,43,44
 450 565 450 565 426.5 576 c 128,-1,45
 403 587 403 587 325.5 587 c 128,-1,46
 248 587 248 587 238 581.5 c 128,-1,47
 228 576 228 576 227 548 c 2,48,-1
 219 354 l 1,0,-1
161 777 m 1,49,-1
 157 787 l 1,50,-1
 173 835 l 1,51,-1
 182 841 l 1,52,53
 287 781 287 781 381 732 c 1,54,-1
 375 708 l 1,55,-1
 367 703 l 1,56,-1
 161 777 l 1,49,-1
EndSplineSet
EndChar

StartChar: Eacute
Encoding: 201 201 138
Width: 591
GlyphClass: 2
Flags: W
LayerCount: 2
Fore
SplineSet
219 354 m 1,0,-1
 322 353 l 1,1,-1
 444 364 l 1,2,-1
 448 359 l 1,3,-1
 434 300 l 1,4,5
 348 303 348 303 302.5 303 c 128,-1,6
 257 303 257 303 217 296 c 1,7,8
 213 152 213 152 213 108 c 128,-1,9
 213 64 213 64 225.5 54.5 c 128,-1,10
 238 45 238 45 307 45 c 128,-1,11
 376 45 376 45 411 53.5 c 128,-1,12
 446 62 446 62 461.5 85.5 c 128,-1,13
 477 109 477 109 485 167 c 1,14,-1
 529 172 l 1,15,-1
 532 167 l 1,16,17
 514 84 514 84 505 -1 c 1,18,-1
 500 -7 l 1,19,20
 292 0 292 0 228 0 c 0,21,22
 130 0 130 0 58 -10 c 1,23,-1
 64 36 l 1,24,25
 109 42 109 42 125.5 59.5 c 128,-1,26
 142 77 142 77 142 120 c 2,27,-1
 143 540 l 2,28,29
 143 572 143 572 135.5 583 c 128,-1,30
 128 594 128 594 106 594 c 1,31,-1
 72 592 l 1,32,-1
 70 596 l 1,33,-1
 77 640 l 1,34,35
 156 637 156 637 292 637 c 128,-1,36
 428 637 428 637 516 649 c 1,37,-1
 519 643 l 1,38,39
 502 569 502 569 496 477 c 1,40,-1
 448 473 l 1,41,42
 450 502 450 502 450 516 c 0,43,44
 450 565 450 565 426.5 576 c 128,-1,45
 403 587 403 587 325.5 587 c 128,-1,46
 248 587 248 587 238 581.5 c 128,-1,47
 228 576 228 576 227 548 c 2,48,-1
 219 354 l 1,0,-1
470 787 m 1,49,-1
 466 777 l 1,50,51
 365 743 365 743 260 703 c 1,52,-1
 252 708 l 1,53,-1
 246 732 l 1,54,-1
 445 841 l 1,55,-1
 454 835 l 1,56,-1
 470 787 l 1,49,-1
EndSplineSet
EndChar

StartChar: Ecircumflex
Encoding: 202 202 139
Width: 591
GlyphClass: 2
Flags: W
LayerCount: 2
Fore
SplineSet
219 354 m 1,0,-1
 322 353 l 1,1,-1
 444 364 l 1,2,-1
 448 359 l 1,3,-1
 434 300 l 1,4,5
 348 303 348 303 302.5 303 c 128,-1,6
 257 303 257 303 217 296 c 1,7,8
 213 152 213 152 213 108 c 128,-1,9
 213 64 213 64 225.5 54.5 c 128,-1,10
 238 45 238 45 307 45 c 128,-1,11
 376 45 376 45 411 53.5 c 128,-1,12
 446 62 446 62 461.5 85.5 c 128,-1,13
 477 109 477 109 485 167 c 1,14,-1
 529 172 l 1,15,-1
 532 167 l 1,16,17
 514 84 514 84 505 -1 c 1,18,-1
 500 -7 l 1,19,20
 292 0 292 0 228 0 c 0,21,22
 130 0 130 0 58 -10 c 1,23,-1
 64 36 l 1,24,25
 109 42 109 42 125.5 59.5 c 128,-1,26
 142 77 142 77 142 120 c 2,27,-1
 143 540 l 2,28,29
 143 572 143 572 135.5 583 c 128,-1,30
 128 594 128 594 106 594 c 1,31,-1
 72 592 l 1,32,-1
 70 596 l 1,33,-1
 77 640 l 1,34,35
 156 637 156 637 292 637 c 128,-1,36
 428 637 428 637 516 649 c 1,37,-1
 519 643 l 1,38,39
 502 569 502 569 496 477 c 1,40,-1
 448 473 l 1,41,42
 450 502 450 502 450 516 c 0,43,44
 450 565 450 565 426.5 576 c 128,-1,45
 403 587 403 587 325.5 587 c 128,-1,46
 248 587 248 587 238 581.5 c 128,-1,47
 228 576 228 576 227 548 c 2,48,-1
 219 354 l 1,0,-1
179 713 m 1,49,-1
 165 735 l 1,50,-1
 303 846 l 1,51,-1
 317 846 l 1,52,53
 390 784 390 784 455 735 c 1,54,-1
 441 713 l 1,55,-1
 432 712 l 1,56,57
 365 751 365 751 310 777 c 1,58,59
 258 753 258 753 188 712 c 1,60,-1
 179 713 l 1,49,-1
EndSplineSet
EndChar

StartChar: Edieresis
Encoding: 203 203 140
Width: 591
GlyphClass: 2
Flags: W
LayerCount: 2
Fore
SplineSet
219 354 m 1,0,-1
 322 353 l 1,1,-1
 444 364 l 1,2,-1
 448 359 l 1,3,-1
 434 300 l 1,4,5
 348 303 348 303 302.5 303 c 128,-1,6
 257 303 257 303 217 296 c 1,7,8
 213 152 213 152 213 108 c 128,-1,9
 213 64 213 64 225.5 54.5 c 128,-1,10
 238 45 238 45 307 45 c 128,-1,11
 376 45 376 45 411 53.5 c 128,-1,12
 446 62 446 62 461.5 85.5 c 128,-1,13
 477 109 477 109 485 167 c 1,14,-1
 529 172 l 1,15,-1
 532 167 l 1,16,17
 514 84 514 84 505 -1 c 1,18,-1
 500 -7 l 1,19,20
 292 0 292 0 228 0 c 0,21,22
 130 0 130 0 58 -10 c 1,23,-1
 64 36 l 1,24,25
 109 42 109 42 125.5 59.5 c 128,-1,26
 142 77 142 77 142 120 c 2,27,-1
 143 540 l 2,28,29
 143 572 143 572 135.5 583 c 128,-1,30
 128 594 128 594 106 594 c 1,31,-1
 72 592 l 1,32,-1
 70 596 l 1,33,-1
 77 640 l 1,34,35
 156 637 156 637 292 637 c 128,-1,36
 428 637 428 637 516 649 c 1,37,-1
 519 643 l 1,38,39
 502 569 502 569 496 477 c 1,40,-1
 448 473 l 1,41,42
 450 502 450 502 450 516 c 0,43,44
 450 565 450 565 426.5 576 c 128,-1,45
 403 587 403 587 325.5 587 c 128,-1,46
 248 587 248 587 238 581.5 c 128,-1,47
 228 576 228 576 227 548 c 2,48,-1
 219 354 l 1,0,-1
423.5 739.5 m 128,-1,50
 409 725 409 725 389 725 c 128,-1,51
 369 725 369 725 358 738 c 128,-1,52
 347 751 347 751 347 770 c 128,-1,53
 347 789 347 789 361.5 803.5 c 128,-1,54
 376 818 376 818 396 818 c 128,-1,55
 416 818 416 818 427 805.5 c 128,-1,56
 438 793 438 793 438 773.5 c 128,-1,49
 438 754 438 754 423.5 739.5 c 128,-1,50
257.5 739.5 m 128,-1,58
 243 725 243 725 223 725 c 128,-1,59
 203 725 203 725 192 738 c 128,-1,60
 181 751 181 751 181 770 c 128,-1,61
 181 789 181 789 195.5 803.5 c 128,-1,62
 210 818 210 818 230 818 c 128,-1,63
 250 818 250 818 261 805.5 c 128,-1,64
 272 793 272 793 272 773.5 c 128,-1,57
 272 754 272 754 257.5 739.5 c 128,-1,58
EndSplineSet
EndChar

StartChar: Igrave
Encoding: 204 204 141
Width: 361
GlyphClass: 2
Flags: W
LayerCount: 2
Fore
SplineSet
213 112 m 0,0,1
 213 71 213 71 222 57.5 c 128,-1,2
 231 44 231 44 257 44 c 1,3,-1
 310 47 l 1,4,-1
 312 43 l 1,5,-1
 303 -3 l 1,6,7
 219 0 219 0 184 0 c 0,8,9
 126 0 126 0 56 -12 c 1,10,-1
 62 34 l 1,11,12
 109 43 109 43 125.5 60.5 c 128,-1,13
 142 78 142 78 142 120 c 2,14,-1
 143 540 l 2,15,16
 143 572 143 572 135.5 583 c 128,-1,17
 128 594 128 594 106 594 c 1,18,-1
 64 592 l 1,19,-1
 62 596 l 1,20,-1
 69 640 l 1,21,22
 147 637 147 637 178 637 c 0,23,24
 220 637 220 637 303 646 c 1,25,-1
 299 601 l 1,26,27
 257 596 257 596 243 584.5 c 128,-1,28
 229 573 229 573 227 544 c 0,29,30
 213 254 213 254 213 112 c 0,0,1
35 777 m 1,31,-1
 31 787 l 1,32,-1
 47 835 l 1,33,-1
 56 841 l 1,34,35
 161 781 161 781 255 732 c 1,36,-1
 249 708 l 1,37,-1
 241 703 l 1,38,-1
 35 777 l 1,31,-1
EndSplineSet
EndChar

StartChar: Iacute
Encoding: 205 205 142
Width: 361
GlyphClass: 2
Flags: W
LayerCount: 2
Fore
SplineSet
213 112 m 0,0,1
 213 71 213 71 222 57.5 c 128,-1,2
 231 44 231 44 257 44 c 1,3,-1
 310 47 l 1,4,-1
 312 43 l 1,5,-1
 303 -3 l 1,6,7
 219 0 219 0 184 0 c 0,8,9
 126 0 126 0 56 -12 c 1,10,-1
 62 34 l 1,11,12
 109 43 109 43 125.5 60.5 c 128,-1,13
 142 78 142 78 142 120 c 2,14,-1
 143 540 l 2,15,16
 143 572 143 572 135.5 583 c 128,-1,17
 128 594 128 594 106 594 c 1,18,-1
 64 592 l 1,19,-1
 62 596 l 1,20,-1
 69 640 l 1,21,22
 147 637 147 637 178 637 c 0,23,24
 220 637 220 637 303 646 c 1,25,-1
 299 601 l 1,26,27
 257 596 257 596 243 584.5 c 128,-1,28
 229 573 229 573 227 544 c 0,29,30
 213 254 213 254 213 112 c 0,0,1
344 787 m 1,31,-1
 340 777 l 1,32,33
 239 743 239 743 134 703 c 1,34,-1
 126 708 l 1,35,-1
 120 732 l 1,36,-1
 319 841 l 1,37,-1
 328 835 l 1,38,-1
 344 787 l 1,31,-1
EndSplineSet
EndChar

StartChar: Icircumflex
Encoding: 206 206 143
Width: 361
GlyphClass: 2
Flags: W
LayerCount: 2
Fore
SplineSet
213 112 m 0,0,1
 213 71 213 71 222 57.5 c 128,-1,2
 231 44 231 44 257 44 c 1,3,-1
 310 47 l 1,4,-1
 312 43 l 1,5,-1
 303 -3 l 1,6,7
 219 0 219 0 184 0 c 0,8,9
 126 0 126 0 56 -12 c 1,10,-1
 62 34 l 1,11,12
 109 43 109 43 125.5 60.5 c 128,-1,13
 142 78 142 78 142 120 c 2,14,-1
 143 540 l 2,15,16
 143 572 143 572 135.5 583 c 128,-1,17
 128 594 128 594 106 594 c 1,18,-1
 64 592 l 1,19,-1
 62 596 l 1,20,-1
 69 640 l 1,21,22
 147 637 147 637 178 637 c 0,23,24
 220 637 220 637 303 646 c 1,25,-1
 299 601 l 1,26,27
 257 596 257 596 243 584.5 c 128,-1,28
 229 573 229 573 227 544 c 0,29,30
 213 254 213 254 213 112 c 0,0,1
53 713 m 1,31,-1
 39 735 l 1,32,-1
 177 846 l 1,33,-1
 191 846 l 1,34,35
 264 784 264 784 329 735 c 1,36,-1
 315 713 l 1,37,-1
 306 712 l 1,38,39
 239 751 239 751 184 777 c 1,40,41
 132 753 132 753 62 712 c 1,42,-1
 53 713 l 1,31,-1
EndSplineSet
EndChar

StartChar: Idieresis
Encoding: 207 207 144
Width: 361
GlyphClass: 2
Flags: W
LayerCount: 2
Fore
SplineSet
213 112 m 0,0,1
 213 71 213 71 222 57.5 c 128,-1,2
 231 44 231 44 257 44 c 1,3,-1
 310 47 l 1,4,-1
 312 43 l 1,5,-1
 303 -3 l 1,6,7
 219 0 219 0 184 0 c 0,8,9
 126 0 126 0 56 -12 c 1,10,-1
 62 34 l 1,11,12
 109 43 109 43 125.5 60.5 c 128,-1,13
 142 78 142 78 142 120 c 2,14,-1
 143 540 l 2,15,16
 143 572 143 572 135.5 583 c 128,-1,17
 128 594 128 594 106 594 c 1,18,-1
 64 592 l 1,19,-1
 62 596 l 1,20,-1
 69 640 l 1,21,22
 147 637 147 637 178 637 c 0,23,24
 220 637 220 637 303 646 c 1,25,-1
 299 601 l 1,26,27
 257 596 257 596 243 584.5 c 128,-1,28
 229 573 229 573 227 544 c 0,29,30
 213 254 213 254 213 112 c 0,0,1
297.5 739.5 m 128,-1,32
 283 725 283 725 263 725 c 128,-1,33
 243 725 243 725 232 738 c 128,-1,34
 221 751 221 751 221 770 c 128,-1,35
 221 789 221 789 235.5 803.5 c 128,-1,36
 250 818 250 818 270 818 c 128,-1,37
 290 818 290 818 301 805.5 c 128,-1,38
 312 793 312 793 312 773.5 c 128,-1,31
 312 754 312 754 297.5 739.5 c 128,-1,32
131.5 739.5 m 128,-1,40
 117 725 117 725 97 725 c 128,-1,41
 77 725 77 725 66 738 c 128,-1,42
 55 751 55 751 55 770 c 128,-1,43
 55 789 55 789 69.5 803.5 c 128,-1,44
 84 818 84 818 104 818 c 128,-1,45
 124 818 124 818 135 805.5 c 128,-1,46
 146 793 146 793 146 773.5 c 128,-1,39
 146 754 146 754 131.5 739.5 c 128,-1,40
EndSplineSet
EndChar

StartChar: Eth
Encoding: 208 208 145
Width: 713
GlyphClass: 2
Flags: W
LayerCount: 2
Fore
SplineSet
324 -12 m 1,0,1
 231 0 231 0 194 0 c 0,2,3
 135 0 135 0 65 -12 c 1,4,-1
 71 34 l 1,5,6
 123 44 123 44 136 64.5 c 128,-1,7
 149 85 149 85 149 157 c 2,8,-1
 149 304 l 1,9,-1
 16 304 l 1,10,-1
 9 311 l 1,11,-1
 16 343 l 1,12,-1
 149 343 l 1,13,-1
 150 540 l 2,14,15
 150 572 150 572 142.5 583 c 128,-1,16
 135 594 135 594 113 594 c 1,17,-1
 79 592 l 1,18,-1
 77 596 l 1,19,-1
 84 640 l 1,20,21
 151 637 151 637 189 637 c 2,22,-1
 341 641 l 1,23,24
 485 641 485 641 577.5 557 c 128,-1,25
 670 473 670 473 670 342 c 0,26,27
 670 193 670 193 570 90.5 c 128,-1,28
 470 -12 470 -12 324 -12 c 1,0,1
347 39 m 0,29,30
 455 39 455 39 517 113.5 c 128,-1,31
 579 188 579 188 579 319 c 128,-1,32
 579 450 579 450 499.5 521 c 128,-1,33
 420 592 420 592 272 592 c 0,34,35
 251 592 251 592 244 587.5 c 128,-1,36
 237 583 237 583 236 570 c 2,37,-1
 227 343 l 1,38,-1
 397 343 l 1,39,-1
 402 336 l 1,40,-1
 396 304 l 1,41,-1
 226 304 l 1,42,-1
 221 131 l 1,43,44
 221 76 221 76 246.5 57.5 c 128,-1,45
 272 39 272 39 347 39 c 0,29,30
EndSplineSet
EndChar

StartChar: Ntilde
Encoding: 209 209 146
Width: 719
GlyphClass: 2
Flags: W
LayerCount: 2
Fore
SplineSet
556 145 m 1,0,-1
 556 550 l 2,1,2
 556 593 556 593 523 593 c 2,3,-1
 485 592 l 1,4,-1
 483 596 l 1,5,-1
 492 641 l 1,6,7
 553 637 553 637 580 637 c 0,8,9
 624 637 624 637 686 645 c 1,10,-1
 681 599 l 1,11,12
 646 594 646 594 630 579.5 c 128,-1,13
 614 565 614 565 613 536 c 2,14,-1
 599 -26 l 1,15,-1
 570 -40 l 1,16,17
 389 241 389 241 198 511 c 1,18,-1
 193 511 l 1,19,-1
 188 84 l 2,20,21
 188 62 188 62 195 53 c 128,-1,22
 202 44 202 44 219 44 c 2,23,-1
 270 45 l 1,24,-1
 272 41 l 1,25,-1
 263 -4 l 1,26,27
 200 0 200 0 170 0 c 0,28,29
 122 0 122 0 64 -8 c 1,30,-1
 69 38 l 1,31,32
 130 45 130 45 131 101 c 2,33,-1
 144 538 l 2,34,35
 144 569 144 569 125.5 582 c 128,-1,36
 107 595 107 595 57 600 c 1,37,-1
 54 605 l 1,38,-1
 62 642 l 1,39,40
 120 637 120 637 148 637 c 1,41,-1
 215 641 l 1,42,43
 363 411 363 411 551 145 c 1,44,-1
 556 145 l 1,0,-1
375 791.5 m 128,-1,46
 433 775 433 775 444 775 c 0,47,48
 466 775 466 775 498 809 c 1,49,-1
 509 820 l 1,50,-1
 515 820 l 1,51,-1
 537 799 l 1,52,-1
 537 794 l 1,53,-1
 461 715 l 1,54,-1
 445 711 l 1,55,56
 428 711 428 711 370 727.5 c 128,-1,57
 312 744 312 744 300 744 c 0,58,59
 277 744 277 744 246 710 c 2,60,-1
 236 699 l 1,61,-1
 230 699 l 1,62,-1
 208 720 l 1,63,-1
 208 725 l 1,64,-1
 284 804 l 1,65,-1
 300 808 l 1,66,45
 317 808 317 808 375 791.5 c 128,-1,46
EndSplineSet
EndChar

StartChar: Ograve
Encoding: 210 210 147
Width: 692
GlyphClass: 2
Flags: W
LayerCount: 2
Fore
SplineSet
188 120 m 128,-1,1
 250 39 250 39 346.5 39 c 128,-1,2
 443 39 443 39 503 111.5 c 128,-1,3
 563 184 563 184 563 305.5 c 128,-1,4
 563 427 563 427 499.5 508 c 128,-1,5
 436 589 436 589 339 589 c 128,-1,6
 242 589 242 589 184 517 c 128,-1,7
 126 445 126 445 126 323 c 128,-1,0
 126 201 126 201 188 120 c 128,-1,1
317 -12 m 0,8,9
 194 -12 194 -12 117 74 c 128,-1,10
 40 160 40 160 40 302.5 c 128,-1,11
 40 445 40 445 135 547 c 128,-1,12
 230 649 230 649 362 649 c 128,-1,13
 494 649 494 649 573 563 c 128,-1,14
 652 477 652 477 652 334.5 c 128,-1,15
 652 192 652 192 555.5 90 c 128,-1,16
 459 -12 459 -12 317 -12 c 0,8,9
193 777 m 1,17,-1
 189 787 l 1,18,-1
 205 835 l 1,19,-1
 214 841 l 1,20,21
 319 781 319 781 413 732 c 1,22,-1
 407 708 l 1,23,-1
 399 703 l 1,24,-1
 193 777 l 1,17,-1
EndSplineSet
EndChar

StartChar: Oacute
Encoding: 211 211 148
Width: 692
GlyphClass: 2
Flags: W
LayerCount: 2
Fore
SplineSet
188 120 m 128,-1,1
 250 39 250 39 346.5 39 c 128,-1,2
 443 39 443 39 503 111.5 c 128,-1,3
 563 184 563 184 563 305.5 c 128,-1,4
 563 427 563 427 499.5 508 c 128,-1,5
 436 589 436 589 339 589 c 128,-1,6
 242 589 242 589 184 517 c 128,-1,7
 126 445 126 445 126 323 c 128,-1,0
 126 201 126 201 188 120 c 128,-1,1
317 -12 m 0,8,9
 194 -12 194 -12 117 74 c 128,-1,10
 40 160 40 160 40 302.5 c 128,-1,11
 40 445 40 445 135 547 c 128,-1,12
 230 649 230 649 362 649 c 128,-1,13
 494 649 494 649 573 563 c 128,-1,14
 652 477 652 477 652 334.5 c 128,-1,15
 652 192 652 192 555.5 90 c 128,-1,16
 459 -12 459 -12 317 -12 c 0,8,9
502 787 m 1,17,-1
 498 777 l 1,18,19
 397 743 397 743 292 703 c 1,20,-1
 284 708 l 1,21,-1
 278 732 l 1,22,-1
 477 841 l 1,23,-1
 486 835 l 1,24,-1
 502 787 l 1,17,-1
EndSplineSet
EndChar

StartChar: Ocircumflex
Encoding: 212 212 149
Width: 692
GlyphClass: 2
Flags: W
LayerCount: 2
Fore
SplineSet
188 120 m 128,-1,1
 250 39 250 39 346.5 39 c 128,-1,2
 443 39 443 39 503 111.5 c 128,-1,3
 563 184 563 184 563 305.5 c 128,-1,4
 563 427 563 427 499.5 508 c 128,-1,5
 436 589 436 589 339 589 c 128,-1,6
 242 589 242 589 184 517 c 128,-1,7
 126 445 126 445 126 323 c 128,-1,0
 126 201 126 201 188 120 c 128,-1,1
317 -12 m 0,8,9
 194 -12 194 -12 117 74 c 128,-1,10
 40 160 40 160 40 302.5 c 128,-1,11
 40 445 40 445 135 547 c 128,-1,12
 230 649 230 649 362 649 c 128,-1,13
 494 649 494 649 573 563 c 128,-1,14
 652 477 652 477 652 334.5 c 128,-1,15
 652 192 652 192 555.5 90 c 128,-1,16
 459 -12 459 -12 317 -12 c 0,8,9
211 713 m 1,17,-1
 197 735 l 1,18,-1
 335 846 l 1,19,-1
 349 846 l 1,20,21
 422 784 422 784 487 735 c 1,22,-1
 473 713 l 1,23,-1
 464 712 l 1,24,25
 397 751 397 751 342 777 c 1,26,27
 290 753 290 753 220 712 c 1,28,-1
 211 713 l 1,17,-1
EndSplineSet
EndChar

StartChar: Otilde
Encoding: 213 213 150
Width: 692
GlyphClass: 2
Flags: W
LayerCount: 2
Fore
SplineSet
188 120 m 128,-1,1
 250 39 250 39 346.5 39 c 128,-1,2
 443 39 443 39 503 111.5 c 128,-1,3
 563 184 563 184 563 305.5 c 128,-1,4
 563 427 563 427 499.5 508 c 128,-1,5
 436 589 436 589 339 589 c 128,-1,6
 242 589 242 589 184 517 c 128,-1,7
 126 445 126 445 126 323 c 128,-1,0
 126 201 126 201 188 120 c 128,-1,1
317 -12 m 0,8,9
 194 -12 194 -12 117 74 c 128,-1,10
 40 160 40 160 40 302.5 c 128,-1,11
 40 445 40 445 135 547 c 128,-1,12
 230 649 230 649 362 649 c 128,-1,13
 494 649 494 649 573 563 c 128,-1,14
 652 477 652 477 652 334.5 c 128,-1,15
 652 192 652 192 555.5 90 c 128,-1,16
 459 -12 459 -12 317 -12 c 0,8,9
346 791.5 m 128,-1,18
 404 775 404 775 416 775 c 0,19,20
 437 775 437 775 470 809 c 1,21,-1
 480 820 l 1,22,-1
 486 820 l 1,23,-1
 508 799 l 1,24,-1
 508 794 l 1,25,-1
 432 715 l 1,26,-1
 416 711 l 1,27,28
 399 711 399 711 341 727.5 c 128,-1,29
 283 744 283 744 271 744 c 0,30,31
 248 744 248 744 218 710 c 1,32,-1
 207 699 l 1,33,-1
 201 699 l 1,34,-1
 179 720 l 1,35,-1
 179 725 l 1,36,-1
 255 804 l 1,37,-1
 271 808 l 1,38,17
 288 808 288 808 346 791.5 c 128,-1,18
EndSplineSet
EndChar

StartChar: Odieresis
Encoding: 214 214 151
Width: 692
GlyphClass: 2
Flags: W
LayerCount: 2
Fore
SplineSet
188 120 m 128,-1,1
 250 39 250 39 346.5 39 c 128,-1,2
 443 39 443 39 503 111.5 c 128,-1,3
 563 184 563 184 563 305.5 c 128,-1,4
 563 427 563 427 499.5 508 c 128,-1,5
 436 589 436 589 339 589 c 128,-1,6
 242 589 242 589 184 517 c 128,-1,7
 126 445 126 445 126 323 c 128,-1,0
 126 201 126 201 188 120 c 128,-1,1
317 -12 m 0,8,9
 194 -12 194 -12 117 74 c 128,-1,10
 40 160 40 160 40 302.5 c 128,-1,11
 40 445 40 445 135 547 c 128,-1,12
 230 649 230 649 362 649 c 128,-1,13
 494 649 494 649 573 563 c 128,-1,14
 652 477 652 477 652 334.5 c 128,-1,15
 652 192 652 192 555.5 90 c 128,-1,16
 459 -12 459 -12 317 -12 c 0,8,9
455.5 739.5 m 128,-1,18
 441 725 441 725 421 725 c 128,-1,19
 401 725 401 725 390 738 c 128,-1,20
 379 751 379 751 379 770 c 128,-1,21
 379 789 379 789 393.5 803.5 c 128,-1,22
 408 818 408 818 428 818 c 128,-1,23
 448 818 448 818 459 805.5 c 128,-1,24
 470 793 470 793 470 773.5 c 128,-1,17
 470 754 470 754 455.5 739.5 c 128,-1,18
289.5 739.5 m 128,-1,26
 275 725 275 725 255 725 c 128,-1,27
 235 725 235 725 224 738 c 128,-1,28
 213 751 213 751 213 770 c 128,-1,29
 213 789 213 789 227.5 803.5 c 128,-1,30
 242 818 242 818 262 818 c 128,-1,31
 282 818 282 818 293 805.5 c 128,-1,32
 304 793 304 793 304 773.5 c 128,-1,25
 304 754 304 754 289.5 739.5 c 128,-1,26
EndSplineSet
EndChar

StartChar: multiply
Encoding: 215 215 152
Width: 506
GlyphClass: 2
Flags: W
LayerCount: 2
Fore
SplineSet
392 449 m 1,0,-1
 403 446 l 1,1,-1
 434 404 l 1,2,-1
 292 261 l 1,3,-1
 437 126 l 1,4,-1
 434 114 l 1,5,-1
 392 84 l 1,6,-1
 253 222 l 1,7,-1
 113 80 l 1,8,-1
 102 83 l 1,9,-1
 75 125 l 1,10,11
 151 199 151 199 213 261 c 1,12,-1
 68 405 l 1,13,-1
 70 416 l 1,14,-1
 113 442 l 1,15,16
 191 363 191 363 253 301 c 1,17,-1
 392 449 l 1,0,-1
EndSplineSet
EndChar

StartChar: Oslash
Encoding: 216 216 153
Width: 692
GlyphClass: 2
Flags: W
LayerCount: 2
Fore
SplineSet
40 297 m 0,0,1
 40 445 40 445 135 547 c 128,-1,2
 230 649 230 649 369 649 c 0,3,4
 428 649 428 649 478 628 c 1,5,-1
 520 708 l 1,6,-1
 549 701 l 1,7,-1
 552 689 l 1,8,-1
 511 613 l 1,9,10
 577 575 577 575 614.5 504 c 128,-1,11
 652 433 652 433 652 341 c 0,12,13
 652 192 652 192 555.5 90 c 128,-1,14
 459 -12 459 -12 317 -12 c 0,15,16
 254 -12 254 -12 196 14 c 1,17,-1
 136 -98 l 1,18,-1
 109 -92 l 1,19,-1
 107 -82 l 1,20,-1
 166 31 l 1,21,22
 106 70 106 70 73 139.5 c 128,-1,23
 40 209 40 209 40 297 c 0,0,1
348 39 m 0,24,25
 443 39 443 39 503 111.5 c 128,-1,26
 563 184 563 184 563 299 c 0,27,28
 563 456 563 456 471 538 c 1,29,-1
 229 78 l 1,30,31
 282 39 282 39 348 39 c 0,24,25
126 329 m 0,32,33
 126 182 126 182 203 102 c 1,34,-1
 442 559 l 1,35,36
 393 589 393 589 335 589 c 0,37,38
 242 589 242 589 184 517 c 128,-1,39
 126 445 126 445 126 329 c 0,32,33
EndSplineSet
EndChar

StartChar: Ugrave
Encoding: 217 217 154
Width: 681
GlyphClass: 2
Flags: W
LayerCount: 2
Fore
SplineSet
227 98 m 128,-1,1
 270 45 270 45 351.5 45 c 128,-1,2
 433 45 433 45 476 88.5 c 128,-1,3
 519 132 519 132 519 214 c 1,4,-1
 513 540 l 1,5,6
 511 575 511 575 504.5 584.5 c 128,-1,7
 498 594 498 594 476 594 c 1,8,-1
 433 592 l 1,9,-1
 431 596 l 1,10,-1
 438 640 l 1,11,12
 513 637 513 637 542 637 c 0,13,14
 583 637 583 637 648 646 c 1,15,-1
 644 601 l 1,16,17
 600 595 600 595 587.5 585 c 128,-1,18
 575 575 575 575 575 544 c 2,19,-1
 575 208 l 2,20,21
 575 103 575 103 510 45.5 c 128,-1,22
 445 -12 445 -12 333.5 -12 c 128,-1,23
 222 -12 222 -12 165 45.5 c 128,-1,24
 108 103 108 103 108 209 c 2,25,-1
 108 540 l 2,26,27
 108 572 108 572 100.5 583 c 128,-1,28
 93 594 93 594 71 594 c 1,29,-1
 37 592 l 1,30,-1
 35 596 l 1,31,-1
 42 640 l 1,32,33
 117 637 117 637 146 637 c 0,34,35
 186 637 186 637 260 646 c 1,36,-1
 256 601 l 1,37,38
 219 596 219 596 206.5 584.5 c 128,-1,39
 194 573 194 573 192 544 c 1,40,-1
 184 250 l 1,41,0
 184 151 184 151 227 98 c 128,-1,1
198 777 m 1,42,-1
 194 787 l 1,43,-1
 210 835 l 1,44,-1
 219 841 l 1,45,46
 324 781 324 781 418 732 c 1,47,-1
 412 708 l 1,48,-1
 404 703 l 1,49,-1
 198 777 l 1,42,-1
EndSplineSet
EndChar

StartChar: Uacute
Encoding: 218 218 155
Width: 681
GlyphClass: 2
Flags: W
LayerCount: 2
Fore
SplineSet
227 98 m 128,-1,1
 270 45 270 45 351.5 45 c 128,-1,2
 433 45 433 45 476 88.5 c 128,-1,3
 519 132 519 132 519 214 c 1,4,-1
 513 540 l 1,5,6
 511 575 511 575 504.5 584.5 c 128,-1,7
 498 594 498 594 476 594 c 1,8,-1
 433 592 l 1,9,-1
 431 596 l 1,10,-1
 438 640 l 1,11,12
 513 637 513 637 542 637 c 0,13,14
 583 637 583 637 648 646 c 1,15,-1
 644 601 l 1,16,17
 600 595 600 595 587.5 585 c 128,-1,18
 575 575 575 575 575 544 c 2,19,-1
 575 208 l 2,20,21
 575 103 575 103 510 45.5 c 128,-1,22
 445 -12 445 -12 333.5 -12 c 128,-1,23
 222 -12 222 -12 165 45.5 c 128,-1,24
 108 103 108 103 108 209 c 2,25,-1
 108 540 l 2,26,27
 108 572 108 572 100.5 583 c 128,-1,28
 93 594 93 594 71 594 c 1,29,-1
 37 592 l 1,30,-1
 35 596 l 1,31,-1
 42 640 l 1,32,33
 117 637 117 637 146 637 c 0,34,35
 186 637 186 637 260 646 c 1,36,-1
 256 601 l 1,37,38
 219 596 219 596 206.5 584.5 c 128,-1,39
 194 573 194 573 192 544 c 1,40,-1
 184 250 l 1,41,0
 184 151 184 151 227 98 c 128,-1,1
507 787 m 1,42,-1
 503 777 l 1,43,44
 402 743 402 743 297 703 c 1,45,-1
 289 708 l 1,46,-1
 283 732 l 1,47,-1
 482 841 l 1,48,-1
 491 835 l 1,49,-1
 507 787 l 1,42,-1
EndSplineSet
EndChar

StartChar: Ucircumflex
Encoding: 219 219 156
Width: 681
GlyphClass: 2
Flags: W
LayerCount: 2
Fore
SplineSet
227 98 m 128,-1,1
 270 45 270 45 351.5 45 c 128,-1,2
 433 45 433 45 476 88.5 c 128,-1,3
 519 132 519 132 519 214 c 1,4,-1
 513 540 l 1,5,6
 511 575 511 575 504.5 584.5 c 128,-1,7
 498 594 498 594 476 594 c 1,8,-1
 433 592 l 1,9,-1
 431 596 l 1,10,-1
 438 640 l 1,11,12
 513 637 513 637 542 637 c 0,13,14
 583 637 583 637 648 646 c 1,15,-1
 644 601 l 1,16,17
 600 595 600 595 587.5 585 c 128,-1,18
 575 575 575 575 575 544 c 2,19,-1
 575 208 l 2,20,21
 575 103 575 103 510 45.5 c 128,-1,22
 445 -12 445 -12 333.5 -12 c 128,-1,23
 222 -12 222 -12 165 45.5 c 128,-1,24
 108 103 108 103 108 209 c 2,25,-1
 108 540 l 2,26,27
 108 572 108 572 100.5 583 c 128,-1,28
 93 594 93 594 71 594 c 1,29,-1
 37 592 l 1,30,-1
 35 596 l 1,31,-1
 42 640 l 1,32,33
 117 637 117 637 146 637 c 0,34,35
 186 637 186 637 260 646 c 1,36,-1
 256 601 l 1,37,38
 219 596 219 596 206.5 584.5 c 128,-1,39
 194 573 194 573 192 544 c 1,40,-1
 184 250 l 1,41,0
 184 151 184 151 227 98 c 128,-1,1
216 713 m 1,42,-1
 202 735 l 1,43,-1
 340 846 l 1,44,-1
 354 846 l 1,45,46
 427 784 427 784 492 735 c 1,47,-1
 478 713 l 1,48,-1
 469 712 l 1,49,50
 402 751 402 751 347 777 c 1,51,52
 295 753 295 753 225 712 c 1,53,-1
 216 713 l 1,42,-1
EndSplineSet
EndChar

StartChar: Udieresis
Encoding: 220 220 157
Width: 681
GlyphClass: 2
Flags: W
LayerCount: 2
Fore
SplineSet
227 98 m 128,-1,1
 270 45 270 45 351.5 45 c 128,-1,2
 433 45 433 45 476 88.5 c 128,-1,3
 519 132 519 132 519 214 c 1,4,-1
 513 540 l 1,5,6
 511 575 511 575 504.5 584.5 c 128,-1,7
 498 594 498 594 476 594 c 1,8,-1
 433 592 l 1,9,-1
 431 596 l 1,10,-1
 438 640 l 1,11,12
 513 637 513 637 542 637 c 0,13,14
 583 637 583 637 648 646 c 1,15,-1
 644 601 l 1,16,17
 600 595 600 595 587.5 585 c 128,-1,18
 575 575 575 575 575 544 c 2,19,-1
 575 208 l 2,20,21
 575 103 575 103 510 45.5 c 128,-1,22
 445 -12 445 -12 333.5 -12 c 128,-1,23
 222 -12 222 -12 165 45.5 c 128,-1,24
 108 103 108 103 108 209 c 2,25,-1
 108 540 l 2,26,27
 108 572 108 572 100.5 583 c 128,-1,28
 93 594 93 594 71 594 c 1,29,-1
 37 592 l 1,30,-1
 35 596 l 1,31,-1
 42 640 l 1,32,33
 117 637 117 637 146 637 c 0,34,35
 186 637 186 637 260 646 c 1,36,-1
 256 601 l 1,37,38
 219 596 219 596 206.5 584.5 c 128,-1,39
 194 573 194 573 192 544 c 1,40,-1
 184 250 l 1,41,0
 184 151 184 151 227 98 c 128,-1,1
460.5 739.5 m 128,-1,43
 446 725 446 725 426 725 c 128,-1,44
 406 725 406 725 395 738 c 128,-1,45
 384 751 384 751 384 770 c 128,-1,46
 384 789 384 789 398.5 803.5 c 128,-1,47
 413 818 413 818 433 818 c 128,-1,48
 453 818 453 818 464 805.5 c 128,-1,49
 475 793 475 793 475 773.5 c 128,-1,42
 475 754 475 754 460.5 739.5 c 128,-1,43
294.5 739.5 m 128,-1,51
 280 725 280 725 260 725 c 128,-1,52
 240 725 240 725 229 738 c 128,-1,53
 218 751 218 751 218 770 c 128,-1,54
 218 789 218 789 232.5 803.5 c 128,-1,55
 247 818 247 818 267 818 c 128,-1,56
 287 818 287 818 298 805.5 c 128,-1,57
 309 793 309 793 309 773.5 c 128,-1,50
 309 754 309 754 294.5 739.5 c 128,-1,51
EndSplineSet
EndChar

StartChar: Yacute
Encoding: 221 221 158
Width: 538
GlyphClass: 2
Flags: W
LayerCount: 2
Fore
SplineSet
178.5 591.5 m 128,-1,1
 163 584 163 584 163 569 c 128,-1,2
 163 554 163 554 191 489.5 c 128,-1,3
 219 425 219 425 246.5 367 c 128,-1,4
 274 309 274 309 275 309 c 2,5,-1
 280 309 l 1,6,-1
 394 521 l 2,7,8
 410 550 410 550 410 571 c 0,9,10
 410 597 410 597 347 601 c 1,11,-1
 345 605 l 1,12,-1
 351 644 l 1,13,14
 425 637 425 637 462 637 c 1,15,-1
 554 641 l 1,16,-1
 558 634 l 1,17,-1
 552 597 l 1,18,19
 506 588 506 588 486.5 569 c 128,-1,20
 467 550 467 550 431 485 c 0,21,22
 429 481 429 481 428 479 c 2,23,-1
 321 291 l 2,24,25
 304 260 304 260 301 204 c 0,26,27
 299 163 299 163 299 117.5 c 128,-1,28
 299 72 299 72 308 58 c 128,-1,29
 317 44 317 44 343 44 c 1,30,-1
 392 47 l 1,31,-1
 394 43 l 1,32,-1
 385 -3 l 1,33,34
 302 0 302 0 269 0 c 0,35,36
 214 0 214 0 144 -12 c 1,37,-1
 150 34 l 1,38,39
 202 44 202 44 215 64 c 128,-1,40
 228 84 228 84 228 142 c 2,41,-1
 228 186 l 2,42,43
 228 241 228 241 199 299 c 2,44,-1
 109 482 l 2,45,46
 75 552 75 552 61 567 c 0,47,48
 38 592 38 592 -17 597 c 1,49,-1
 -19 601 l 1,50,-1
 -13 640 l 1,51,52
 51 637 51 637 97 637 c 1,53,-1
 239 645 l 1,54,-1
 242 638 l 1,55,-1
 239 603 l 1,56,0
 194 599 194 599 178.5 591.5 c 128,-1,1
445 787 m 1,57,-1
 441 777 l 1,58,59
 340 743 340 743 235 703 c 1,60,-1
 227 708 l 1,61,-1
 221 732 l 1,62,-1
 420 841 l 1,63,-1
 429 835 l 1,64,-1
 445 787 l 1,57,-1
EndSplineSet
EndChar

StartChar: Thorn
Encoding: 222 222 159
Width: 543
GlyphClass: 2
Flags: W
LayerCount: 2
Fore
SplineSet
227 544 m 2,0,1
 227 544 227 544 225 513 c 1,2,3
 225 513 225 513 225 503 c 1,4,-1
 307 503 l 2,5,6
 410 503 410 503 465.5 461 c 128,-1,7
 521 419 521 419 521 341 c 128,-1,8
 521 263 521 263 450 205.5 c 128,-1,9
 379 148 379 148 284 148 c 2,10,-1
 213 148 l 1,11,-1
 213 112 l 2,12,13
 213 71 213 71 222 57.5 c 128,-1,14
 231 44 231 44 257 44 c 1,15,-1
 310 47 l 1,16,-1
 312 43 l 1,17,-1
 303 -3 l 1,18,19
 219 0 219 0 184 0 c 0,20,21
 126 0 126 0 56 -12 c 1,22,-1
 62 34 l 1,23,24
 109 43 109 43 125.5 60.5 c 128,-1,25
 142 78 142 78 142 120 c 2,26,-1
 143 540 l 2,27,28
 143 572 143 572 135.5 583 c 128,-1,29
 128 594 128 594 106 594 c 1,30,-1
 64 592 l 1,31,-1
 62 596 l 1,32,-1
 69 640 l 1,33,34
 147 637 147 637 178 637 c 0,35,36
 220 637 220 637 303 646 c 1,37,-1
 299 601 l 1,38,39
 257 596 257 596 243 584.5 c 128,-1,40
 229 573 229 573 227 544 c 2,0,1
437 321 m 0,41,42
 437 390 437 390 392 422 c 128,-1,43
 347 454 347 454 249 454 c 0,44,45
 224 454 224 454 222 446 c 1,46,47
 216 306 216 306 214 209 c 1,48,49
 259 194 259 194 316 192 c 1,50,51
 437 207 437 207 437 321 c 0,41,42
EndSplineSet
EndChar

StartChar: germandbls
Encoding: 223 223 160
Width: 591
GlyphClass: 2
Flags: W
LayerCount: 2
Fore
SplineSet
288 41 m 0,0,1
 288 55 288 55 301 83.5 c 128,-1,2
 314 112 314 112 326 127 c 1,3,-1
 340 127 l 1,4,5
 340 82 340 82 365 57 c 128,-1,6
 390 32 390 32 427.5 32 c 128,-1,7
 465 32 465 32 488 57.5 c 128,-1,8
 511 83 511 83 511 113.5 c 128,-1,9
 511 144 511 144 488.5 169 c 128,-1,10
 466 194 466 194 433.5 214 c 128,-1,11
 401 234 401 234 368.5 255.5 c 128,-1,12
 336 277 336 277 313.5 308.5 c 128,-1,13
 291 340 291 340 291 374.5 c 128,-1,14
 291 409 291 409 311.5 439.5 c 128,-1,15
 332 470 332 470 356.5 490 c 128,-1,16
 381 510 381 510 401.5 536.5 c 128,-1,17
 422 563 422 563 422 588 c 0,18,19
 422 632 422 632 387.5 657.5 c 128,-1,20
 353 683 353 683 295.5 683 c 128,-1,21
 238 683 238 683 210.5 638 c 128,-1,22
 183 593 183 593 182 498 c 2,23,-1
 176 98 l 1,24,25
 174 43 174 43 215 43 c 2,26,-1
 262 44 l 1,27,-1
 264 40 l 1,28,-1
 257 -2 l 1,29,30
 188 0 188 0 158 0 c 1,31,-1
 46 -4 l 1,32,-1
 51 35 l 1,33,34
 86 39 86 39 97 54.5 c 128,-1,35
 108 70 108 70 108 108 c 2,36,-1
 108 364 l 1,37,38
 107 386 107 386 93.5 394.5 c 128,-1,39
 80 403 80 403 45 405 c 1,40,-1
 41 411 l 1,41,-1
 48 445 l 1,42,-1
 108 456 l 1,43,44
 108 591 108 591 169 666.5 c 128,-1,45
 230 742 230 742 339 742 c 0,46,47
 398 742 398 742 444.5 704.5 c 128,-1,48
 491 667 491 667 491 624.5 c 128,-1,49
 491 582 491 582 471.5 548.5 c 128,-1,50
 452 515 452 515 428 494 c 0,51,52
 365 441 365 441 365 397 c 0,53,54
 365 348 365 348 474 290 c 0,55,56
 514 269 514 269 548 231 c 128,-1,57
 582 193 582 193 582 147 c 0,58,59
 582 83 582 83 529 35.5 c 128,-1,60
 476 -12 476 -12 404 -12 c 0,61,62
 355 -12 355 -12 321.5 3.5 c 128,-1,63
 288 19 288 19 288 41 c 0,0,1
EndSplineSet
EndChar

StartChar: agrave
Encoding: 224 224 161
Width: 466
GlyphClass: 2
Flags: W
LayerCount: 2
Fore
SplineSet
262 370 m 128,-1,1
 239 398 239 398 203.5 398 c 128,-1,2
 168 398 168 398 138 385.5 c 128,-1,3
 108 373 108 373 92 360 c 2,4,-1
 77 348 l 1,5,-1
 72 351 l 1,6,-1
 60 394 l 1,7,8
 180 464 180 464 223 464 c 0,9,10
 288 464 288 464 325 430 c 128,-1,11
 362 396 362 396 362 335 c 0,12,13
 362 320 362 320 353 228.5 c 128,-1,14
 344 137 344 137 344 105 c 0,15,16
 344 59 344 59 385 59 c 0,17,18
 412 59 412 59 445 84 c 1,19,-1
 459 68 l 1,20,21
 445 44 445 44 419.5 20 c 128,-1,22
 394 -4 394 -4 372 -12 c 1,23,24
 290 -12 290 -12 283 69 c 1,25,-1
 279 70 l 1,26,27
 201 -8 201 -8 169 -8 c 0,28,29
 113 -8 113 -8 77 27 c 128,-1,30
 41 62 41 62 41 116 c 0,31,32
 41 145 41 145 55.5 167 c 128,-1,33
 70 189 70 189 94 196 c 2,34,-1
 283 248 l 1,35,-1
 285 292 l 1,36,0
 285 342 285 342 262 370 c 128,-1,1
146 169 m 2,37,38
 117 160 117 160 117 129 c 128,-1,39
 117 98 117 98 136.5 79 c 128,-1,40
 156 60 156 60 186 60 c 0,41,42
 229 60 229 60 277 108 c 1,43,-1
 281 210 l 1,44,-1
 146 169 l 2,37,38
93 660 m 1,45,-1
 92 671 l 1,46,-1
 130 712 l 1,47,-1
 140 714 l 1,48,49
 218 620 218 620 290 542 c 1,50,-1
 270 523 l 1,51,-1
 261 521 l 1,52,53
 194 583 194 583 93 660 c 1,45,-1
EndSplineSet
EndChar

StartChar: aacute
Encoding: 225 225 162
Width: 466
GlyphClass: 2
Flags: W
LayerCount: 2
Fore
SplineSet
262 370 m 128,-1,1
 239 398 239 398 203.5 398 c 128,-1,2
 168 398 168 398 138 385.5 c 128,-1,3
 108 373 108 373 92 360 c 2,4,-1
 77 348 l 1,5,-1
 72 351 l 1,6,-1
 60 394 l 1,7,8
 180 464 180 464 223 464 c 0,9,10
 288 464 288 464 325 430 c 128,-1,11
 362 396 362 396 362 335 c 0,12,13
 362 320 362 320 353 228.5 c 128,-1,14
 344 137 344 137 344 105 c 0,15,16
 344 59 344 59 385 59 c 0,17,18
 412 59 412 59 445 84 c 1,19,-1
 459 68 l 1,20,21
 445 44 445 44 419.5 20 c 128,-1,22
 394 -4 394 -4 372 -12 c 1,23,24
 290 -12 290 -12 283 69 c 1,25,-1
 279 70 l 1,26,27
 201 -8 201 -8 169 -8 c 0,28,29
 113 -8 113 -8 77 27 c 128,-1,30
 41 62 41 62 41 116 c 0,31,32
 41 145 41 145 55.5 167 c 128,-1,33
 70 189 70 189 94 196 c 2,34,-1
 283 248 l 1,35,-1
 285 292 l 1,36,0
 285 342 285 342 262 370 c 128,-1,1
146 169 m 2,37,38
 117 160 117 160 117 129 c 128,-1,39
 117 98 117 98 136.5 79 c 128,-1,40
 156 60 156 60 186 60 c 0,41,42
 229 60 229 60 277 108 c 1,43,-1
 281 210 l 1,44,-1
 146 169 l 2,37,38
347 672 m 1,45,-1
 346 661 l 1,46,47
 262 597 262 597 178 521 c 1,48,-1
 169 523 l 1,49,-1
 149 542 l 1,50,51
 222 621 222 621 299 715 c 1,52,-1
 309 713 l 1,53,-1
 347 672 l 1,45,-1
EndSplineSet
EndChar

StartChar: acircumflex
Encoding: 226 226 163
Width: 466
GlyphClass: 2
Flags: W
LayerCount: 2
Fore
SplineSet
262 370 m 128,-1,1
 239 398 239 398 203.5 398 c 128,-1,2
 168 398 168 398 138 385.5 c 128,-1,3
 108 373 108 373 92 360 c 2,4,-1
 77 348 l 1,5,-1
 72 351 l 1,6,-1
 60 394 l 1,7,8
 180 464 180 464 223 464 c 0,9,10
 288 464 288 464 325 430 c 128,-1,11
 362 396 362 396 362 335 c 0,12,13
 362 320 362 320 353 228.5 c 128,-1,14
 344 137 344 137 344 105 c 0,15,16
 344 59 344 59 385 59 c 0,17,18
 412 59 412 59 445 84 c 1,19,-1
 459 68 l 1,20,21
 445 44 445 44 419.5 20 c 128,-1,22
 394 -4 394 -4 372 -12 c 1,23,24
 290 -12 290 -12 283 69 c 1,25,-1
 279 70 l 1,26,27
 201 -8 201 -8 169 -8 c 0,28,29
 113 -8 113 -8 77 27 c 128,-1,30
 41 62 41 62 41 116 c 0,31,32
 41 145 41 145 55.5 167 c 128,-1,33
 70 189 70 189 94 196 c 2,34,-1
 283 248 l 1,35,-1
 285 292 l 1,36,0
 285 342 285 342 262 370 c 128,-1,1
146 169 m 2,37,38
 117 160 117 160 117 129 c 128,-1,39
 117 98 117 98 136.5 79 c 128,-1,40
 156 60 156 60 186 60 c 0,41,42
 229 60 229 60 277 108 c 1,43,-1
 281 210 l 1,44,-1
 146 169 l 2,37,38
87 528 m 1,45,-1
 73 550 l 1,46,47
 122 601 122 601 211 703 c 1,48,-1
 225 703 l 1,49,50
 298 618 298 618 363 550 c 1,51,-1
 349 528 l 1,52,-1
 340 527 l 1,53,54
 318 546 318 546 218 624 c 1,55,56
 140 566 140 566 96 527 c 1,57,-1
 87 528 l 1,45,-1
EndSplineSet
EndChar

StartChar: atilde
Encoding: 227 227 164
Width: 466
GlyphClass: 2
Flags: W
LayerCount: 2
Fore
SplineSet
262 370 m 128,-1,1
 239 398 239 398 203.5 398 c 128,-1,2
 168 398 168 398 138 385.5 c 128,-1,3
 108 373 108 373 92 360 c 2,4,-1
 77 348 l 1,5,-1
 72 351 l 1,6,-1
 60 394 l 1,7,8
 180 464 180 464 223 464 c 0,9,10
 288 464 288 464 325 430 c 128,-1,11
 362 396 362 396 362 335 c 0,12,13
 362 320 362 320 353 228.5 c 128,-1,14
 344 137 344 137 344 105 c 0,15,16
 344 59 344 59 385 59 c 0,17,18
 412 59 412 59 445 84 c 1,19,-1
 459 68 l 1,20,21
 445 44 445 44 419.5 20 c 128,-1,22
 394 -4 394 -4 372 -12 c 1,23,24
 290 -12 290 -12 283 69 c 1,25,-1
 279 70 l 1,26,27
 201 -8 201 -8 169 -8 c 0,28,29
 113 -8 113 -8 77 27 c 128,-1,30
 41 62 41 62 41 116 c 0,31,32
 41 145 41 145 55.5 167 c 128,-1,33
 70 189 70 189 94 196 c 2,34,-1
 283 248 l 1,35,-1
 285 292 l 1,36,0
 285 342 285 342 262 370 c 128,-1,1
146 169 m 2,37,38
 117 160 117 160 117 129 c 128,-1,39
 117 98 117 98 136.5 79 c 128,-1,40
 156 60 156 60 186 60 c 0,41,42
 229 60 229 60 277 108 c 1,43,-1
 281 210 l 1,44,-1
 146 169 l 2,37,38
220 653.5 m 128,-1,46
 278 637 278 637 289.5 637 c 128,-1,47
 301 637 301 637 317 650.5 c 128,-1,48
 333 664 333 664 354 692 c 1,49,-1
 360 692 l 1,50,-1
 382 671 l 1,51,-1
 382 666 l 1,52,-1
 306 577 l 1,53,-1
 290 573 l 1,54,55
 273 573 273 573 215 589.5 c 128,-1,56
 157 606 157 606 145 606 c 0,57,58
 124 606 124 606 92 564 c 1,59,-1
 81 551 l 1,60,-1
 75 551 l 1,61,-1
 53 572 l 1,62,-1
 53 577 l 1,63,-1
 129 666 l 1,64,-1
 145 670 l 1,65,45
 162 670 162 670 220 653.5 c 128,-1,46
EndSplineSet
EndChar

StartChar: adieresis
Encoding: 228 228 165
Width: 466
GlyphClass: 2
Flags: W
LayerCount: 2
Fore
SplineSet
262 370 m 128,-1,1
 239 398 239 398 203.5 398 c 128,-1,2
 168 398 168 398 138 385.5 c 128,-1,3
 108 373 108 373 92 360 c 2,4,-1
 77 348 l 1,5,-1
 72 351 l 1,6,-1
 60 394 l 1,7,8
 180 464 180 464 223 464 c 0,9,10
 288 464 288 464 325 430 c 128,-1,11
 362 396 362 396 362 335 c 0,12,13
 362 320 362 320 353 228.5 c 128,-1,14
 344 137 344 137 344 105 c 0,15,16
 344 59 344 59 385 59 c 0,17,18
 412 59 412 59 445 84 c 1,19,-1
 459 68 l 1,20,21
 445 44 445 44 419.5 20 c 128,-1,22
 394 -4 394 -4 372 -12 c 1,23,24
 290 -12 290 -12 283 69 c 1,25,-1
 279 70 l 1,26,27
 201 -8 201 -8 169 -8 c 0,28,29
 113 -8 113 -8 77 27 c 128,-1,30
 41 62 41 62 41 116 c 0,31,32
 41 145 41 145 55.5 167 c 128,-1,33
 70 189 70 189 94 196 c 2,34,-1
 283 248 l 1,35,-1
 285 292 l 1,36,0
 285 342 285 342 262 370 c 128,-1,1
146 169 m 2,37,38
 117 160 117 160 117 129 c 128,-1,39
 117 98 117 98 136.5 79 c 128,-1,40
 156 60 156 60 186 60 c 0,41,42
 229 60 229 60 277 108 c 1,43,-1
 281 210 l 1,44,-1
 146 169 l 2,37,38
330.5 580.5 m 128,-1,46
 316 566 316 566 296 566 c 128,-1,47
 276 566 276 566 265 579 c 128,-1,48
 254 592 254 592 254 611 c 128,-1,49
 254 630 254 630 268.5 644.5 c 128,-1,50
 283 659 283 659 303 659 c 128,-1,51
 323 659 323 659 334 646.5 c 128,-1,52
 345 634 345 634 345 614.5 c 128,-1,45
 345 595 345 595 330.5 580.5 c 128,-1,46
164.5 580.5 m 128,-1,54
 150 566 150 566 130 566 c 128,-1,55
 110 566 110 566 99 579 c 128,-1,56
 88 592 88 592 88 611 c 128,-1,57
 88 630 88 630 102.5 644.5 c 128,-1,58
 117 659 117 659 137 659 c 128,-1,59
 157 659 157 659 168 646.5 c 128,-1,60
 179 634 179 634 179 614.5 c 128,-1,53
 179 595 179 595 164.5 580.5 c 128,-1,54
EndSplineSet
EndChar

StartChar: aring
Encoding: 229 229 166
Width: 466
GlyphClass: 2
Flags: W
LayerCount: 2
Fore
SplineSet
262 370 m 128,-1,1
 239 398 239 398 203.5 398 c 128,-1,2
 168 398 168 398 138 385.5 c 128,-1,3
 108 373 108 373 92 360 c 2,4,-1
 77 348 l 1,5,-1
 72 351 l 1,6,-1
 60 394 l 1,7,8
 180 464 180 464 223 464 c 0,9,10
 288 464 288 464 325 430 c 128,-1,11
 362 396 362 396 362 335 c 0,12,13
 362 320 362 320 353 228.5 c 128,-1,14
 344 137 344 137 344 105 c 0,15,16
 344 59 344 59 385 59 c 0,17,18
 412 59 412 59 445 84 c 1,19,-1
 459 68 l 1,20,21
 445 44 445 44 419.5 20 c 128,-1,22
 394 -4 394 -4 372 -12 c 1,23,24
 290 -12 290 -12 283 69 c 1,25,-1
 279 70 l 1,26,27
 201 -8 201 -8 169 -8 c 0,28,29
 113 -8 113 -8 77 27 c 128,-1,30
 41 62 41 62 41 116 c 0,31,32
 41 145 41 145 55.5 167 c 128,-1,33
 70 189 70 189 94 196 c 2,34,-1
 283 248 l 1,35,-1
 285 292 l 1,36,0
 285 342 285 342 262 370 c 128,-1,1
146 169 m 2,37,38
 117 160 117 160 117 129 c 128,-1,39
 117 98 117 98 136.5 79 c 128,-1,40
 156 60 156 60 186 60 c 0,41,42
 229 60 229 60 277 108 c 1,43,-1
 281 210 l 1,44,-1
 146 169 l 2,37,38
220 582 m 0,45,46
 264 582 264 582 264 621 c 0,47,48
 264 643 264 643 250.5 656 c 128,-1,49
 237 669 237 669 213 669 c 0,50,51
 169 669 169 669 169 630 c 0,52,53
 169 606 169 606 185 594 c 128,-1,54
 201 582 201 582 220 582 c 0,45,46
275 570 m 128,-1,56
 252 544 252 544 214.5 544 c 128,-1,57
 177 544 177 544 157 566 c 128,-1,58
 137 588 137 588 137 624.5 c 128,-1,59
 137 661 137 661 160 684.5 c 128,-1,60
 183 708 183 708 221.5 708 c 128,-1,61
 260 708 260 708 279 686 c 128,-1,62
 298 664 298 664 298 630 c 128,-1,55
 298 596 298 596 275 570 c 128,-1,56
EndSplineSet
EndChar

StartChar: ae
Encoding: 230 230 167
Width: 653
GlyphClass: 2
Flags: W
LayerCount: 2
Fore
SplineSet
480 -12 m 0,0,1
 417 -12 417 -12 369 16 c 128,-1,2
 321 44 321 44 297 95 c 1,3,4
 213 6 213 6 158 -8 c 1,5,6
 102 -8 102 -8 66 27 c 128,-1,7
 30 62 30 62 30 116 c 0,8,9
 30 145 30 145 44.5 166.5 c 128,-1,10
 59 188 59 188 83 195 c 2,11,-1
 274 247 l 1,12,-1
 275 297 l 1,13,14
 275 401 275 401 189 401 c 0,15,16
 160 401 160 401 129.5 387.5 c 128,-1,17
 99 374 99 374 66 348 c 1,18,-1
 61 351 l 1,19,-1
 49 394 l 1,20,21
 170 464 170 464 212 464 c 0,22,23
 310 464 310 464 336 384 c 1,24,25
 397 464 397 464 488 464 c 0,26,27
 552 464 552 464 588.5 426.5 c 128,-1,28
 625 389 625 389 625 322 c 1,29,-1
 623 303 l 1,30,-1
 614 289 l 1,31,-1
 344 225 l 1,32,33
 349 148 349 148 390.5 100 c 128,-1,34
 432 52 432 52 493 52 c 0,35,36
 544 52 544 52 598 78 c 2,37,-1
 616 87 l 1,38,-1
 622 85 l 1,39,-1
 633 56 l 1,40,41
 604 33 604 33 555.5 10.5 c 128,-1,42
 507 -12 507 -12 480 -12 c 0,0,1
135 169 m 2,43,44
 103 160 103 160 103 129.5 c 128,-1,45
 103 99 103 99 123 78 c 128,-1,46
 143 57 143 57 170 57 c 0,47,48
 212 57 212 57 285 125 c 1,49,50
 273 162 273 162 273 210 c 1,51,-1
 135 169 l 2,43,44
343 269 m 2,52,-1
 343 262 l 1,53,-1
 518 312 l 2,54,55
 538 318 538 318 538 330 c 0,56,57
 538 363 538 363 517 385.5 c 128,-1,58
 496 408 496 408 465 408 c 0,59,60
 410 408 410 408 376.5 369.5 c 128,-1,61
 343 331 343 331 343 269 c 2,52,-1
EndSplineSet
EndChar

StartChar: ccedilla
Encoding: 231 231 168
Width: 424
GlyphClass: 2
Flags: W
LayerCount: 2
Fore
SplineSet
83.5 58.5 m 128,-1,1
 36 117 36 117 36 217 c 128,-1,2
 36 317 36 317 102.5 390.5 c 128,-1,3
 169 464 169 464 267 464 c 0,4,5
 321 464 321 464 384 445 c 1,6,-1
 387 438 l 1,7,8
 369 378 369 378 366 300 c 1,9,-1
 325 297 l 1,10,-1
 325 328 l 2,11,12
 325 365 325 365 302.5 387.5 c 128,-1,13
 280 410 280 410 243 410 c 0,14,15
 182 410 182 410 149 366.5 c 128,-1,16
 116 323 116 323 116 239.5 c 128,-1,17
 116 156 116 156 152.5 105.5 c 128,-1,18
 189 55 189 55 252 55 c 0,19,20
 299 55 299 55 349 80 c 2,21,-1
 365 88 l 1,22,-1
 371 86 l 1,23,-1
 382 55 l 1,24,25
 304 -4 304 -4 254 -11 c 1,26,-1
 241 -50 l 1,27,28
 245 -53 245 -53 258.5 -62 c 128,-1,29
 272 -71 272 -71 278.5 -75.5 c 128,-1,30
 285 -80 285 -80 295.5 -89 c 128,-1,31
 306 -98 306 -98 312 -105 c 0,32,33
 326 -123 326 -123 326 -139 c 0,34,35
 326 -177 326 -177 287.5 -205 c 128,-1,36
 249 -233 249 -233 215 -233 c 128,-1,37
 181 -233 181 -233 159.5 -223 c 128,-1,38
 138 -213 138 -213 138 -197 c 128,-1,39
 138 -181 138 -181 163 -141 c 1,40,-1
 172 -141 l 1,41,42
 173 -168 173 -168 187.5 -183 c 128,-1,43
 202 -198 202 -198 224.5 -198 c 128,-1,44
 247 -198 247 -198 261 -187.5 c 128,-1,45
 275 -177 275 -177 275 -160 c 0,46,47
 275 -134 275 -134 190 -85 c 1,48,-1
 213 -10 l 1,49,0
 131 0 131 0 83.5 58.5 c 128,-1,1
EndSplineSet
EndChar

StartChar: egrave
Encoding: 232 232 169
Width: 448
GlyphClass: 2
Flags: W
LayerCount: 2
Fore
SplineSet
321 331 m 0,0,1
 321 371 321 371 299.5 392 c 128,-1,2
 278 413 278 413 234.5 413 c 128,-1,3
 191 413 191 413 157.5 381 c 128,-1,4
 124 349 124 349 115 295 c 1,5,-1
 296 304 l 1,6,7
 311 306 311 306 316 311 c 128,-1,8
 321 316 321 316 321 331 c 0,0,1
111 258 m 1,9,-1
 111 242 l 2,10,11
 111 158 111 158 151.5 107 c 128,-1,12
 192 56 192 56 259 56 c 0,13,14
 312 56 312 56 382 87 c 1,15,-1
 388 85 l 1,16,-1
 399 56 l 1,17,18
 372 35 372 35 322.5 11.5 c 128,-1,19
 273 -12 273 -12 246 -12 c 0,20,21
 152 -12 152 -12 94 49 c 128,-1,22
 36 110 36 110 36 211 c 128,-1,23
 36 312 36 312 102 388 c 128,-1,24
 168 464 168 464 257 464 c 0,25,26
 406 464 406 464 406 319 c 1,27,-1
 400 270 l 1,28,-1
 387 258 l 1,29,-1
 111 258 l 1,9,-1
117 660 m 1,30,-1
 116 671 l 1,31,-1
 154 712 l 1,32,-1
 164 714 l 1,33,34
 242 620 242 620 314 542 c 1,35,-1
 294 523 l 1,36,-1
 285 521 l 1,37,38
 218 583 218 583 117 660 c 1,30,-1
EndSplineSet
EndChar

StartChar: eacute
Encoding: 233 233 170
Width: 448
GlyphClass: 2
Flags: W
LayerCount: 2
Fore
SplineSet
321 331 m 0,0,1
 321 371 321 371 299.5 392 c 128,-1,2
 278 413 278 413 234.5 413 c 128,-1,3
 191 413 191 413 157.5 381 c 128,-1,4
 124 349 124 349 115 295 c 1,5,-1
 296 304 l 1,6,7
 311 306 311 306 316 311 c 128,-1,8
 321 316 321 316 321 331 c 0,0,1
111 258 m 1,9,-1
 111 242 l 2,10,11
 111 158 111 158 151.5 107 c 128,-1,12
 192 56 192 56 259 56 c 0,13,14
 312 56 312 56 382 87 c 1,15,-1
 388 85 l 1,16,-1
 399 56 l 1,17,18
 372 35 372 35 322.5 11.5 c 128,-1,19
 273 -12 273 -12 246 -12 c 0,20,21
 152 -12 152 -12 94 49 c 128,-1,22
 36 110 36 110 36 211 c 128,-1,23
 36 312 36 312 102 388 c 128,-1,24
 168 464 168 464 257 464 c 0,25,26
 406 464 406 464 406 319 c 1,27,-1
 400 270 l 1,28,-1
 387 258 l 1,29,-1
 111 258 l 1,9,-1
371 672 m 1,30,-1
 370 661 l 1,31,32
 286 597 286 597 202 521 c 1,33,-1
 193 523 l 1,34,-1
 173 542 l 1,35,36
 246 621 246 621 323 715 c 1,37,-1
 333 713 l 1,38,-1
 371 672 l 1,30,-1
EndSplineSet
EndChar

StartChar: ecircumflex
Encoding: 234 234 171
Width: 448
GlyphClass: 2
Flags: W
LayerCount: 2
Fore
SplineSet
321 331 m 0,0,1
 321 371 321 371 299.5 392 c 128,-1,2
 278 413 278 413 234.5 413 c 128,-1,3
 191 413 191 413 157.5 381 c 128,-1,4
 124 349 124 349 115 295 c 1,5,-1
 296 304 l 1,6,7
 311 306 311 306 316 311 c 128,-1,8
 321 316 321 316 321 331 c 0,0,1
111 258 m 1,9,-1
 111 242 l 2,10,11
 111 158 111 158 151.5 107 c 128,-1,12
 192 56 192 56 259 56 c 0,13,14
 312 56 312 56 382 87 c 1,15,-1
 388 85 l 1,16,-1
 399 56 l 1,17,18
 372 35 372 35 322.5 11.5 c 128,-1,19
 273 -12 273 -12 246 -12 c 0,20,21
 152 -12 152 -12 94 49 c 128,-1,22
 36 110 36 110 36 211 c 128,-1,23
 36 312 36 312 102 388 c 128,-1,24
 168 464 168 464 257 464 c 0,25,26
 406 464 406 464 406 319 c 1,27,-1
 400 270 l 1,28,-1
 387 258 l 1,29,-1
 111 258 l 1,9,-1
111 528 m 1,30,-1
 97 550 l 1,31,32
 146 601 146 601 235 703 c 1,33,-1
 249 703 l 1,34,35
 322 618 322 618 387 550 c 1,36,-1
 373 528 l 1,37,-1
 364 527 l 1,38,39
 342 546 342 546 242 624 c 1,40,41
 164 566 164 566 120 527 c 1,42,-1
 111 528 l 1,30,-1
EndSplineSet
EndChar

StartChar: edieresis
Encoding: 235 235 172
Width: 448
GlyphClass: 2
Flags: W
LayerCount: 2
Fore
SplineSet
321 331 m 0,0,1
 321 371 321 371 299.5 392 c 128,-1,2
 278 413 278 413 234.5 413 c 128,-1,3
 191 413 191 413 157.5 381 c 128,-1,4
 124 349 124 349 115 295 c 1,5,-1
 296 304 l 1,6,7
 311 306 311 306 316 311 c 128,-1,8
 321 316 321 316 321 331 c 0,0,1
111 258 m 1,9,-1
 111 242 l 2,10,11
 111 158 111 158 151.5 107 c 128,-1,12
 192 56 192 56 259 56 c 0,13,14
 312 56 312 56 382 87 c 1,15,-1
 388 85 l 1,16,-1
 399 56 l 1,17,18
 372 35 372 35 322.5 11.5 c 128,-1,19
 273 -12 273 -12 246 -12 c 0,20,21
 152 -12 152 -12 94 49 c 128,-1,22
 36 110 36 110 36 211 c 128,-1,23
 36 312 36 312 102 388 c 128,-1,24
 168 464 168 464 257 464 c 0,25,26
 406 464 406 464 406 319 c 1,27,-1
 400 270 l 1,28,-1
 387 258 l 1,29,-1
 111 258 l 1,9,-1
354.5 580.5 m 128,-1,31
 340 566 340 566 320 566 c 128,-1,32
 300 566 300 566 289 579 c 128,-1,33
 278 592 278 592 278 611 c 128,-1,34
 278 630 278 630 292.5 644.5 c 128,-1,35
 307 659 307 659 327 659 c 128,-1,36
 347 659 347 659 358 646.5 c 128,-1,37
 369 634 369 634 369 614.5 c 128,-1,30
 369 595 369 595 354.5 580.5 c 128,-1,31
188.5 580.5 m 128,-1,39
 174 566 174 566 154 566 c 128,-1,40
 134 566 134 566 123 579 c 128,-1,41
 112 592 112 592 112 611 c 128,-1,42
 112 630 112 630 126.5 644.5 c 128,-1,43
 141 659 141 659 161 659 c 128,-1,44
 181 659 181 659 192 646.5 c 128,-1,45
 203 634 203 634 203 614.5 c 128,-1,38
 203 595 203 595 188.5 580.5 c 128,-1,39
EndSplineSet
EndChar

StartChar: igrave
Encoding: 236 236 173
Width: 282
GlyphClass: 2
Flags: W
LayerCount: 2
Fore
SplineSet
104 94 m 2,0,-1
 104 348 l 2,1,2
 104 402 104 402 67 402 c 1,3,-1
 42 398 l 1,4,-1
 46 435 l 1,5,6
 96 442 96 442 190 464 c 1,7,-1
 195 452 l 1,8,9
 186 431 186 431 179 323.5 c 128,-1,10
 172 216 172 216 172 98 c 0,11,12
 172 42 172 42 207 42 c 1,13,-1
 242 44 l 1,14,-1
 244 40 l 1,15,-1
 236 -3 l 1,16,17
 184 0 184 0 156 0 c 0,18,19
 110 0 110 0 44 -12 c 1,20,-1
 48 29 l 1,21,22
 104 44 104 44 104 94 c 2,0,-1
7 660 m 1,23,-1
 6 671 l 1,24,-1
 44 712 l 1,25,-1
 54 714 l 1,26,27
 132 620 132 620 204 542 c 1,28,-1
 184 523 l 1,29,-1
 175 521 l 1,30,31
 108 583 108 583 7 660 c 1,23,-1
EndSplineSet
EndChar

StartChar: iacute
Encoding: 237 237 174
Width: 282
GlyphClass: 2
Flags: W
LayerCount: 2
Fore
SplineSet
104 94 m 2,0,-1
 104 348 l 2,1,2
 104 402 104 402 67 402 c 1,3,-1
 42 398 l 1,4,-1
 46 435 l 1,5,6
 96 442 96 442 190 464 c 1,7,-1
 195 452 l 1,8,9
 186 431 186 431 179 323.5 c 128,-1,10
 172 216 172 216 172 98 c 0,11,12
 172 42 172 42 207 42 c 1,13,-1
 242 44 l 1,14,-1
 244 40 l 1,15,-1
 236 -3 l 1,16,17
 184 0 184 0 156 0 c 0,18,19
 110 0 110 0 44 -12 c 1,20,-1
 48 29 l 1,21,22
 104 44 104 44 104 94 c 2,0,-1
268 672 m 1,23,-1
 267 661 l 1,24,25
 183 597 183 597 99 521 c 1,26,-1
 90 523 l 1,27,-1
 70 542 l 1,28,29
 143 621 143 621 220 715 c 1,30,-1
 230 713 l 1,31,-1
 268 672 l 1,23,-1
EndSplineSet
EndChar

StartChar: icircumflex
Encoding: 238 238 175
Width: 282
GlyphClass: 2
Flags: W
LayerCount: 2
Fore
SplineSet
104 94 m 2,0,-1
 104 348 l 2,1,2
 104 402 104 402 67 402 c 1,3,-1
 42 398 l 1,4,-1
 46 435 l 1,5,6
 96 442 96 442 190 464 c 1,7,-1
 195 452 l 1,8,9
 186 431 186 431 179 323.5 c 128,-1,10
 172 216 172 216 172 98 c 0,11,12
 172 42 172 42 207 42 c 1,13,-1
 242 44 l 1,14,-1
 244 40 l 1,15,-1
 236 -3 l 1,16,17
 184 0 184 0 156 0 c 0,18,19
 110 0 110 0 44 -12 c 1,20,-1
 48 29 l 1,21,22
 104 44 104 44 104 94 c 2,0,-1
12 527 m 1,23,-1
 -2 549 l 1,24,25
 47 600 47 600 136 702 c 1,26,-1
 150 702 l 1,27,28
 223 617 223 617 288 549 c 1,29,-1
 274 527 l 1,30,-1
 265 526 l 1,31,32
 243 545 243 545 143 623 c 1,33,34
 65 564 65 564 21 526 c 1,35,-1
 12 527 l 1,23,-1
EndSplineSet
EndChar

StartChar: idieresis
Encoding: 239 239 176
Width: 282
GlyphClass: 2
Flags: W
LayerCount: 2
Fore
SplineSet
104 94 m 2,0,-1
 104 348 l 2,1,2
 104 402 104 402 67 402 c 1,3,-1
 42 398 l 1,4,-1
 46 435 l 1,5,6
 96 442 96 442 190 464 c 1,7,-1
 195 452 l 1,8,9
 186 431 186 431 179 323.5 c 128,-1,10
 172 216 172 216 172 98 c 0,11,12
 172 42 172 42 207 42 c 1,13,-1
 242 44 l 1,14,-1
 244 40 l 1,15,-1
 236 -3 l 1,16,17
 184 0 184 0 156 0 c 0,18,19
 110 0 110 0 44 -12 c 1,20,-1
 48 29 l 1,21,22
 104 44 104 44 104 94 c 2,0,-1
253.5 580.5 m 128,-1,24
 239 566 239 566 219 566 c 128,-1,25
 199 566 199 566 188 579 c 128,-1,26
 177 592 177 592 177 611 c 128,-1,27
 177 630 177 630 191.5 644.5 c 128,-1,28
 206 659 206 659 226 659 c 128,-1,29
 246 659 246 659 257 646.5 c 128,-1,30
 268 634 268 634 268 614.5 c 128,-1,23
 268 595 268 595 253.5 580.5 c 128,-1,24
87.5 580.5 m 128,-1,32
 73 566 73 566 53 566 c 128,-1,33
 33 566 33 566 22 579 c 128,-1,34
 11 592 11 592 11 611 c 128,-1,35
 11 630 11 630 25.5 644.5 c 128,-1,36
 40 659 40 659 60 659 c 128,-1,37
 80 659 80 659 91 646.5 c 128,-1,38
 102 634 102 634 102 614.5 c 128,-1,31
 102 595 102 595 87.5 580.5 c 128,-1,32
EndSplineSet
EndChar

StartChar: eth
Encoding: 240 240 177
Width: 508
GlyphClass: 2
Flags: W
LayerCount: 2
Fore
SplineSet
465 242 m 0,0,1
 465 135 465 135 401 61.5 c 128,-1,2
 337 -12 337 -12 245.5 -12 c 128,-1,3
 154 -12 154 -12 98.5 48.5 c 128,-1,4
 43 109 43 109 43 208.5 c 128,-1,5
 43 308 43 308 108.5 380.5 c 128,-1,6
 174 453 174 453 266 453 c 0,7,8
 294 453 294 453 340 427 c 1,9,-1
 342 429 l 1,10,11
 306 511 306 511 247 572 c 1,12,-1
 114 508 l 1,13,-1
 105 511 l 1,14,-1
 101 541 l 1,15,-1
 219 599 l 1,16,17
 149 659 149 659 53 704 c 1,18,-1
 68 737 l 1,19,-1
 78 741 l 1,20,21
 189 693 189 693 272 625 c 1,22,-1
 410 692 l 1,23,-1
 418 687 l 1,24,-1
 422 658 l 1,25,-1
 301 599 l 1,26,27
 465 446 465 446 465 242 c 0,0,1
353 82.5 m 128,-1,29
 383 128 383 128 383 208 c 128,-1,30
 383 288 383 288 365 358 c 1,31,32
 321 399 321 399 256 399 c 128,-1,33
 191 399 191 399 157 355.5 c 128,-1,34
 123 312 123 312 123 229.5 c 128,-1,35
 123 147 123 147 164.5 92 c 128,-1,36
 206 37 206 37 264.5 37 c 128,-1,28
 323 37 323 37 353 82.5 c 128,-1,29
EndSplineSet
EndChar

StartChar: ntilde
Encoding: 241 241 178
Width: 562
GlyphClass: 2
Flags: W
LayerCount: 2
Fore
SplineSet
385 292 m 1,0,1
 385 396 385 396 295 396 c 0,2,3
 248 396 248 396 179 344 c 1,4,5
 170 137 170 137 170 102 c 128,-1,6
 170 67 170 67 178 54.5 c 128,-1,7
 186 42 186 42 206 42 c 1,8,-1
 241 44 l 1,9,-1
 243 40 l 1,10,-1
 234 -3 l 1,11,12
 180 0 180 0 143 0 c 1,13,-1
 44 -6 l 1,14,-1
 49 35 l 1,15,16
 78 40 78 40 90 53 c 128,-1,17
 102 66 102 66 102 94 c 2,18,-1
 102 338 l 2,19,20
 102 372 102 372 91 385.5 c 128,-1,21
 80 399 80 399 53 399 c 2,22,-1
 42 399 l 1,23,-1
 39 403 l 1,24,-1
 42 436 l 1,25,-1
 182 465 l 1,26,-1
 188 457 l 1,27,28
 179 425 179 425 177 391 c 1,29,-1
 179 388 l 1,30,31
 293 464 293 464 326 464 c 0,32,33
 389 464 389 464 426 429 c 128,-1,34
 463 394 463 394 463 335 c 0,35,36
 463 320 463 320 456 225 c 128,-1,37
 449 130 449 130 449 98 c 0,38,39
 449 42 449 42 484 42 c 1,40,-1
 519 44 l 1,41,-1
 521 40 l 1,42,-1
 513 -3 l 1,43,44
 461 0 461 0 433 0 c 0,45,46
 387 0 387 0 321 -12 c 1,47,-1
 325 29 l 1,48,49
 381 44 381 44 381 94 c 1,50,-1
 385 292 l 1,0,1
290 653.5 m 128,-1,52
 348 637 348 637 359.5 637 c 128,-1,53
 371 637 371 637 387 650.5 c 128,-1,54
 403 664 403 664 424 692 c 1,55,-1
 430 692 l 1,56,-1
 452 671 l 1,57,-1
 452 666 l 1,58,-1
 376 577 l 1,59,-1
 360 573 l 1,60,61
 343 573 343 573 285 589.5 c 128,-1,62
 227 606 227 606 215 606 c 0,63,64
 194 606 194 606 162 564 c 1,65,-1
 151 551 l 1,66,-1
 145 551 l 1,67,-1
 123 572 l 1,68,-1
 123 577 l 1,69,-1
 199 666 l 1,70,-1
 215 670 l 1,71,51
 232 670 232 670 290 653.5 c 128,-1,52
EndSplineSet
EndChar

StartChar: ograve
Encoding: 242 242 179
Width: 498
GlyphClass: 2
Flags: W
LayerCount: 2
Fore
SplineSet
395 61.5 m 128,-1,1
 328 -12 328 -12 236 -12 c 128,-1,2
 144 -12 144 -12 90 50 c 128,-1,3
 36 112 36 112 36 214.5 c 128,-1,4
 36 317 36 317 103 390.5 c 128,-1,5
 170 464 170 464 262 464 c 128,-1,6
 354 464 354 464 408 402 c 128,-1,7
 462 340 462 340 462 237.5 c 128,-1,0
 462 135 462 135 395 61.5 c 128,-1,1
155.5 93 m 128,-1,9
 195 37 195 37 254.5 37 c 128,-1,10
 314 37 314 37 347 82.5 c 128,-1,11
 380 128 380 128 380 212 c 128,-1,12
 380 296 380 296 340.5 353 c 128,-1,13
 301 410 301 410 241.5 410 c 128,-1,14
 182 410 182 410 149 364 c 128,-1,15
 116 318 116 318 116 233.5 c 128,-1,8
 116 149 116 149 155.5 93 c 128,-1,9
126 660 m 1,16,-1
 125 671 l 1,17,-1
 163 712 l 1,18,-1
 173 714 l 1,19,20
 251 620 251 620 323 542 c 1,21,-1
 303 523 l 1,22,-1
 294 521 l 1,23,24
 227 583 227 583 126 660 c 1,16,-1
EndSplineSet
EndChar

StartChar: oacute
Encoding: 243 243 180
Width: 498
GlyphClass: 2
Flags: W
LayerCount: 2
Fore
SplineSet
395 61.5 m 128,-1,1
 328 -12 328 -12 236 -12 c 128,-1,2
 144 -12 144 -12 90 50 c 128,-1,3
 36 112 36 112 36 214.5 c 128,-1,4
 36 317 36 317 103 390.5 c 128,-1,5
 170 464 170 464 262 464 c 128,-1,6
 354 464 354 464 408 402 c 128,-1,7
 462 340 462 340 462 237.5 c 128,-1,0
 462 135 462 135 395 61.5 c 128,-1,1
155.5 93 m 128,-1,9
 195 37 195 37 254.5 37 c 128,-1,10
 314 37 314 37 347 82.5 c 128,-1,11
 380 128 380 128 380 212 c 128,-1,12
 380 296 380 296 340.5 353 c 128,-1,13
 301 410 301 410 241.5 410 c 128,-1,14
 182 410 182 410 149 364 c 128,-1,15
 116 318 116 318 116 233.5 c 128,-1,8
 116 149 116 149 155.5 93 c 128,-1,9
380 672 m 1,16,-1
 379 661 l 1,17,18
 295 597 295 597 211 521 c 1,19,-1
 202 523 l 1,20,-1
 182 542 l 1,21,22
 255 621 255 621 332 715 c 1,23,-1
 342 713 l 1,24,-1
 380 672 l 1,16,-1
EndSplineSet
EndChar

StartChar: ocircumflex
Encoding: 244 244 181
Width: 498
GlyphClass: 2
Flags: W
LayerCount: 2
Fore
SplineSet
395 61.5 m 128,-1,1
 328 -12 328 -12 236 -12 c 128,-1,2
 144 -12 144 -12 90 50 c 128,-1,3
 36 112 36 112 36 214.5 c 128,-1,4
 36 317 36 317 103 390.5 c 128,-1,5
 170 464 170 464 262 464 c 128,-1,6
 354 464 354 464 408 402 c 128,-1,7
 462 340 462 340 462 237.5 c 128,-1,0
 462 135 462 135 395 61.5 c 128,-1,1
155.5 93 m 128,-1,9
 195 37 195 37 254.5 37 c 128,-1,10
 314 37 314 37 347 82.5 c 128,-1,11
 380 128 380 128 380 212 c 128,-1,12
 380 296 380 296 340.5 353 c 128,-1,13
 301 410 301 410 241.5 410 c 128,-1,14
 182 410 182 410 149 364 c 128,-1,15
 116 318 116 318 116 233.5 c 128,-1,8
 116 149 116 149 155.5 93 c 128,-1,9
120 528 m 1,16,-1
 106 550 l 1,17,18
 155 601 155 601 244 703 c 1,19,-1
 258 703 l 1,20,21
 331 618 331 618 396 550 c 1,22,-1
 382 528 l 1,23,-1
 373 527 l 1,24,25
 351 546 351 546 251 624 c 1,26,27
 173 566 173 566 129 527 c 1,28,-1
 120 528 l 1,16,-1
EndSplineSet
EndChar

StartChar: otilde
Encoding: 245 245 182
Width: 498
GlyphClass: 2
Flags: W
LayerCount: 2
Fore
SplineSet
395 61.5 m 128,-1,1
 328 -12 328 -12 236 -12 c 128,-1,2
 144 -12 144 -12 90 50 c 128,-1,3
 36 112 36 112 36 214.5 c 128,-1,4
 36 317 36 317 103 390.5 c 128,-1,5
 170 464 170 464 262 464 c 128,-1,6
 354 464 354 464 408 402 c 128,-1,7
 462 340 462 340 462 237.5 c 128,-1,0
 462 135 462 135 395 61.5 c 128,-1,1
155.5 93 m 128,-1,9
 195 37 195 37 254.5 37 c 128,-1,10
 314 37 314 37 347 82.5 c 128,-1,11
 380 128 380 128 380 212 c 128,-1,12
 380 296 380 296 340.5 353 c 128,-1,13
 301 410 301 410 241.5 410 c 128,-1,14
 182 410 182 410 149 364 c 128,-1,15
 116 318 116 318 116 233.5 c 128,-1,8
 116 149 116 149 155.5 93 c 128,-1,9
253 653.5 m 128,-1,17
 311 637 311 637 322.5 637 c 128,-1,18
 334 637 334 637 350 650.5 c 128,-1,19
 366 664 366 664 387 692 c 1,20,-1
 393 692 l 1,21,-1
 415 671 l 1,22,-1
 415 666 l 1,23,-1
 339 577 l 1,24,-1
 323 573 l 1,25,26
 306 573 306 573 248 589.5 c 128,-1,27
 190 606 190 606 178 606 c 0,28,29
 157 606 157 606 124 564 c 2,30,-1
 114 551 l 1,31,-1
 108 551 l 1,32,-1
 86 572 l 1,33,-1
 86 577 l 1,34,-1
 162 666 l 1,35,-1
 178 670 l 1,36,16
 195 670 195 670 253 653.5 c 128,-1,17
EndSplineSet
EndChar

StartChar: odieresis
Encoding: 246 246 183
Width: 498
GlyphClass: 2
Flags: W
LayerCount: 2
Fore
SplineSet
395 61.5 m 128,-1,1
 328 -12 328 -12 236 -12 c 128,-1,2
 144 -12 144 -12 90 50 c 128,-1,3
 36 112 36 112 36 214.5 c 128,-1,4
 36 317 36 317 103 390.5 c 128,-1,5
 170 464 170 464 262 464 c 128,-1,6
 354 464 354 464 408 402 c 128,-1,7
 462 340 462 340 462 237.5 c 128,-1,0
 462 135 462 135 395 61.5 c 128,-1,1
155.5 93 m 128,-1,9
 195 37 195 37 254.5 37 c 128,-1,10
 314 37 314 37 347 82.5 c 128,-1,11
 380 128 380 128 380 212 c 128,-1,12
 380 296 380 296 340.5 353 c 128,-1,13
 301 410 301 410 241.5 410 c 128,-1,14
 182 410 182 410 149 364 c 128,-1,15
 116 318 116 318 116 233.5 c 128,-1,8
 116 149 116 149 155.5 93 c 128,-1,9
363.5 580.5 m 128,-1,17
 349 566 349 566 329 566 c 128,-1,18
 309 566 309 566 298 579 c 128,-1,19
 287 592 287 592 287 611 c 128,-1,20
 287 630 287 630 301.5 644.5 c 128,-1,21
 316 659 316 659 336 659 c 128,-1,22
 356 659 356 659 367 646.5 c 128,-1,23
 378 634 378 634 378 614.5 c 128,-1,16
 378 595 378 595 363.5 580.5 c 128,-1,17
197.5 580.5 m 128,-1,25
 183 566 183 566 163 566 c 128,-1,26
 143 566 143 566 132 579 c 128,-1,27
 121 592 121 592 121 611 c 128,-1,28
 121 630 121 630 135.5 644.5 c 128,-1,29
 150 659 150 659 170 659 c 128,-1,30
 190 659 190 659 201 646.5 c 128,-1,31
 212 634 212 634 212 614.5 c 128,-1,24
 212 595 212 595 197.5 580.5 c 128,-1,25
EndSplineSet
EndChar

StartChar: divide
Encoding: 247 247 184
Width: 506
GlyphClass: 2
Flags: W
LayerCount: 2
Fore
SplineSet
482 297 m 1,0,-1
 488 287 l 1,1,-1
 480 236 l 1,2,-1
 24 234 l 1,3,-1
 18 243 l 1,4,-1
 29 292 l 1,5,6
 179 291 179 291 268 291 c 1,7,-1
 482 297 l 1,0,-1
290.5 47 m 128,-1,9
 273 29 273 29 245.5 29 c 128,-1,10
 218 29 218 29 203.5 45.5 c 128,-1,11
 189 62 189 62 189 87 c 128,-1,12
 189 112 189 112 206 130 c 128,-1,13
 223 148 223 148 250.5 148 c 128,-1,14
 278 148 278 148 293 131.5 c 128,-1,15
 308 115 308 115 308 90 c 128,-1,8
 308 65 308 65 290.5 47 c 128,-1,9
290.5 396 m 128,-1,17
 273 378 273 378 245.5 378 c 128,-1,18
 218 378 218 378 203.5 394.5 c 128,-1,19
 189 411 189 411 189 436 c 128,-1,20
 189 461 189 461 206 479 c 128,-1,21
 223 497 223 497 250.5 497 c 128,-1,22
 278 497 278 497 293 480.5 c 128,-1,23
 308 464 308 464 308 439 c 128,-1,16
 308 414 308 414 290.5 396 c 128,-1,17
EndSplineSet
EndChar

StartChar: oslash
Encoding: 248 248 185
Width: 498
GlyphClass: 2
Flags: W
LayerCount: 2
Fore
SplineSet
36 210 m 0,0,1
 36 317 36 317 103 390.5 c 128,-1,2
 170 464 170 464 268 464 c 0,3,4
 307 464 307 464 341 450 c 1,5,-1
 388 539 l 1,6,-1
 417 532 l 1,7,-1
 420 520 l 1,8,-1
 373 433 l 1,9,10
 462 372 462 372 462 242 c 0,11,12
 462 135 462 135 395 61.5 c 128,-1,13
 328 -12 328 -12 230 -12 c 0,14,15
 190 -12 190 -12 149 5 c 1,16,-1
 94 -98 l 1,17,-1
 67 -92 l 1,18,-1
 65 -82 l 1,19,-1
 119 22 l 1,20,21
 36 83 36 83 36 210 c 0,0,1
180 65 m 1,22,23
 214 37 214 37 264 37 c 128,-1,24
 314 37 314 37 347 82.5 c 128,-1,25
 380 128 380 128 380 215 c 128,-1,26
 380 302 380 302 335 360 c 1,27,-1
 180 65 l 1,22,23
149 364 m 128,-1,29
 116 318 116 318 116 232.5 c 128,-1,30
 116 147 116 147 156 92 c 1,31,-1
 308 386 l 1,32,33
 276 410 276 410 238 410 c 0,34,28
 182 410 182 410 149 364 c 128,-1,29
EndSplineSet
EndChar

StartChar: ugrave
Encoding: 249 249 186
Width: 541
GlyphClass: 2
Flags: W
LayerCount: 2
Fore
SplineSet
155 155 m 0,0,1
 155 57 155 57 235 57 c 0,2,3
 256 57 256 57 281.5 68 c 128,-1,4
 307 79 307 79 318 86.5 c 128,-1,5
 329 94 329 94 356 114 c 1,6,-1
 356 346 l 2,7,8
 356 376 356 376 345 388 c 128,-1,9
 334 400 334 400 306 400 c 1,10,-1
 282 399 l 1,11,-1
 286 435 l 1,12,-1
 440 464 l 1,13,-1
 446 452 l 1,14,15
 437 429 437 429 430.5 327 c 128,-1,16
 424 225 424 225 424 105 c 0,17,18
 424 59 424 59 465 59 c 0,19,20
 492 59 492 59 525 84 c 1,21,-1
 539 68 l 1,22,23
 517 34 517 34 492 11 c 128,-1,24
 467 -12 467 -12 452 -12 c 0,25,26
 370 -12 370 -12 363 69 c 1,27,-1
 358 71 l 1,28,29
 250 -12 250 -12 219 -12 c 0,30,31
 155 -12 155 -12 120.5 18 c 128,-1,32
 86 48 86 48 86 104 c 2,33,-1
 90 347 l 2,34,35
 90 401 90 401 53 401 c 1,36,-1
 28 397 l 1,37,-1
 32 434 l 1,38,-1
 175 464 l 1,39,-1
 181 452 l 1,40,41
 171 426 171 426 163 334 c 128,-1,42
 155 242 155 242 155 155 c 0,0,1
131 660 m 1,43,-1
 130 671 l 1,44,-1
 168 712 l 1,45,-1
 178 714 l 1,46,47
 256 620 256 620 328 542 c 1,48,-1
 308 523 l 1,49,-1
 299 521 l 1,50,51
 232 583 232 583 131 660 c 1,43,-1
EndSplineSet
EndChar

StartChar: uacute
Encoding: 250 250 187
Width: 541
GlyphClass: 2
Flags: W
LayerCount: 2
Fore
SplineSet
155 155 m 0,0,1
 155 57 155 57 235 57 c 0,2,3
 256 57 256 57 281.5 68 c 128,-1,4
 307 79 307 79 318 86.5 c 128,-1,5
 329 94 329 94 356 114 c 1,6,-1
 356 346 l 2,7,8
 356 376 356 376 345 388 c 128,-1,9
 334 400 334 400 306 400 c 1,10,-1
 282 399 l 1,11,-1
 286 435 l 1,12,-1
 440 464 l 1,13,-1
 446 452 l 1,14,15
 437 429 437 429 430.5 327 c 128,-1,16
 424 225 424 225 424 105 c 0,17,18
 424 59 424 59 465 59 c 0,19,20
 492 59 492 59 525 84 c 1,21,-1
 539 68 l 1,22,23
 517 34 517 34 492 11 c 128,-1,24
 467 -12 467 -12 452 -12 c 0,25,26
 370 -12 370 -12 363 69 c 1,27,-1
 358 71 l 1,28,29
 250 -12 250 -12 219 -12 c 0,30,31
 155 -12 155 -12 120.5 18 c 128,-1,32
 86 48 86 48 86 104 c 2,33,-1
 90 347 l 2,34,35
 90 401 90 401 53 401 c 1,36,-1
 28 397 l 1,37,-1
 32 434 l 1,38,-1
 175 464 l 1,39,-1
 181 452 l 1,40,41
 171 426 171 426 163 334 c 128,-1,42
 155 242 155 242 155 155 c 0,0,1
385 672 m 1,43,-1
 384 661 l 1,44,45
 300 597 300 597 216 521 c 1,46,-1
 207 523 l 1,47,-1
 187 542 l 1,48,49
 260 621 260 621 337 715 c 1,50,-1
 347 713 l 1,51,-1
 385 672 l 1,43,-1
EndSplineSet
EndChar

StartChar: ucircumflex
Encoding: 251 251 188
Width: 541
GlyphClass: 2
Flags: W
LayerCount: 2
Fore
SplineSet
155 155 m 0,0,1
 155 57 155 57 235 57 c 0,2,3
 256 57 256 57 281.5 68 c 128,-1,4
 307 79 307 79 318 86.5 c 128,-1,5
 329 94 329 94 356 114 c 1,6,-1
 356 346 l 2,7,8
 356 376 356 376 345 388 c 128,-1,9
 334 400 334 400 306 400 c 1,10,-1
 282 399 l 1,11,-1
 286 435 l 1,12,-1
 440 464 l 1,13,-1
 446 452 l 1,14,15
 437 429 437 429 430.5 327 c 128,-1,16
 424 225 424 225 424 105 c 0,17,18
 424 59 424 59 465 59 c 0,19,20
 492 59 492 59 525 84 c 1,21,-1
 539 68 l 1,22,23
 517 34 517 34 492 11 c 128,-1,24
 467 -12 467 -12 452 -12 c 0,25,26
 370 -12 370 -12 363 69 c 1,27,-1
 358 71 l 1,28,29
 250 -12 250 -12 219 -12 c 0,30,31
 155 -12 155 -12 120.5 18 c 128,-1,32
 86 48 86 48 86 104 c 2,33,-1
 90 347 l 2,34,35
 90 401 90 401 53 401 c 1,36,-1
 28 397 l 1,37,-1
 32 434 l 1,38,-1
 175 464 l 1,39,-1
 181 452 l 1,40,41
 171 426 171 426 163 334 c 128,-1,42
 155 242 155 242 155 155 c 0,0,1
125 528 m 1,43,-1
 111 550 l 1,44,45
 160 601 160 601 249 703 c 1,46,-1
 263 703 l 1,47,48
 336 618 336 618 401 550 c 1,49,-1
 387 528 l 1,50,-1
 378 527 l 1,51,52
 356 546 356 546 256 624 c 1,53,54
 178 566 178 566 134 527 c 1,55,-1
 125 528 l 1,43,-1
EndSplineSet
EndChar

StartChar: udieresis
Encoding: 252 252 189
Width: 541
GlyphClass: 2
Flags: W
LayerCount: 2
Fore
SplineSet
155 155 m 0,0,1
 155 57 155 57 235 57 c 0,2,3
 256 57 256 57 281.5 68 c 128,-1,4
 307 79 307 79 318 86.5 c 128,-1,5
 329 94 329 94 356 114 c 1,6,-1
 356 346 l 2,7,8
 356 376 356 376 345 388 c 128,-1,9
 334 400 334 400 306 400 c 1,10,-1
 282 399 l 1,11,-1
 286 435 l 1,12,-1
 440 464 l 1,13,-1
 446 452 l 1,14,15
 437 429 437 429 430.5 327 c 128,-1,16
 424 225 424 225 424 105 c 0,17,18
 424 59 424 59 465 59 c 0,19,20
 492 59 492 59 525 84 c 1,21,-1
 539 68 l 1,22,23
 517 34 517 34 492 11 c 128,-1,24
 467 -12 467 -12 452 -12 c 0,25,26
 370 -12 370 -12 363 69 c 1,27,-1
 358 71 l 1,28,29
 250 -12 250 -12 219 -12 c 0,30,31
 155 -12 155 -12 120.5 18 c 128,-1,32
 86 48 86 48 86 104 c 2,33,-1
 90 347 l 2,34,35
 90 401 90 401 53 401 c 1,36,-1
 28 397 l 1,37,-1
 32 434 l 1,38,-1
 175 464 l 1,39,-1
 181 452 l 1,40,41
 171 426 171 426 163 334 c 128,-1,42
 155 242 155 242 155 155 c 0,0,1
368.5 580.5 m 128,-1,44
 354 566 354 566 334 566 c 128,-1,45
 314 566 314 566 303 579 c 128,-1,46
 292 592 292 592 292 611 c 128,-1,47
 292 630 292 630 306.5 644.5 c 128,-1,48
 321 659 321 659 341 659 c 128,-1,49
 361 659 361 659 372 646.5 c 128,-1,50
 383 634 383 634 383 614.5 c 128,-1,43
 383 595 383 595 368.5 580.5 c 128,-1,44
202.5 580.5 m 128,-1,52
 188 566 188 566 168 566 c 128,-1,53
 148 566 148 566 137 579 c 128,-1,54
 126 592 126 592 126 611 c 128,-1,55
 126 630 126 630 140.5 644.5 c 128,-1,56
 155 659 155 659 175 659 c 128,-1,57
 195 659 195 659 206 646.5 c 128,-1,58
 217 634 217 634 217 614.5 c 128,-1,51
 217 595 217 595 202.5 580.5 c 128,-1,52
EndSplineSet
EndChar

StartChar: yacute
Encoding: 253 253 190
Width: 446
GlyphClass: 2
Flags: W
LayerCount: 2
Fore
SplineSet
230 91 m 1,0,1
 347 371 347 371 347 395 c 128,-1,2
 347 419 347 419 309 419 c 2,3,-1
 263 419 l 1,4,-1
 261 423 l 1,5,-1
 267 456 l 1,6,7
 319 452 319 452 368 452 c 2,8,-1
 453 453 l 1,9,-1
 446 416 l 1,10,11
 424 412 424 412 412.5 400.5 c 128,-1,12
 401 389 401 389 390 359 c 1,13,-1
 261 55 l 1,14,15
 180 -131 180 -131 140 -186 c 128,-1,16
 100 -241 100 -241 38 -241 c 0,17,18
 37 -241 37 -241 36 -241 c 0,19,20
 28 -241 28 -241 10 -217.5 c 128,-1,21
 -8 -194 -8 -194 -8 -184 c 1,22,-1
 -3 -177 l 1,23,24
 55 -177 55 -177 106.5 -130.5 c 128,-1,25
 158 -84 158 -84 192 -1 c 1,26,27
 129 197 129 197 61 368 c 1,28,29
 38 415 38 415 -7 416 c 1,30,-1
 -9 420 l 1,31,-1
 -3 453 l 1,32,33
 57 452 57 452 82 452 c 0,34,35
 121 452 121 452 200 459 c 1,36,-1
 202 454 l 1,37,-1
 196 423 l 1,38,39
 162 422 162 422 149.5 416.5 c 128,-1,40
 137 411 137 411 137 396 c 0,41,42
 137 368 137 368 226 91 c 1,43,-1
 230 91 l 1,0,1
359 672 m 1,44,-1
 358 661 l 1,45,46
 274 597 274 597 190 521 c 1,47,-1
 181 523 l 1,48,-1
 161 542 l 1,49,50
 234 621 234 621 311 715 c 1,51,-1
 321 713 l 1,52,-1
 359 672 l 1,44,-1
EndSplineSet
EndChar

StartChar: thorn
Encoding: 254 254 191
Width: 510
GlyphClass: 2
Flags: W
LayerCount: 2
Fore
SplineSet
85 626 m 2,0,1
 85 680 85 680 48 680 c 1,2,-1
 23 676 l 1,3,-1
 27 713 l 1,4,5
 97 722 97 722 175 742 c 1,6,-1
 181 729 l 1,7,8
 166 706 166 706 158 394 c 1,9,10
 256 464 256 464 280 464 c 0,11,12
 376 464 376 464 430 390 c 0,13,14
 472 333 472 333 472 250 c 0,15,16
 472 142 472 142 399 65 c 128,-1,17
 326 -12 326 -12 223 -12 c 0,18,19
 187 -12 187 -12 152 -8 c 1,20,21
 152 -132 152 -132 156 -151 c 1,22,23
 171 -187 171 -187 200 -190 c 1,24,-1
 234 -189 l 1,25,-1
 236 -192 l 1,26,-1
 228 -230 l 1,27,-1
 165 -230 l 2,28,29
 107 -230 107 -230 64 -233 c 128,-1,30
 21 -236 21 -236 21 -237 c 2,31,-1
 26 -198 l 1,32,33
 58 -194 58 -194 65.5 -185 c 128,-1,34
 73 -176 73 -176 76 -172.5 c 128,-1,35
 79 -169 79 -169 80 -152 c 0,36,37
 83 -125 83 -125 83 -97 c 2,38,-1
 85 94 l 1,39,-1
 85 626 l 2,0,1
153 64 m 1,40,41
 195 43 195 43 256.5 43 c 128,-1,42
 318 43 318 43 356.5 89 c 128,-1,43
 395 135 395 135 395 212.5 c 128,-1,44
 395 290 395 290 356.5 343 c 128,-1,45
 318 396 318 396 269 396 c 128,-1,46
 220 396 220 396 156 342 c 1,47,-1
 153 64 l 1,40,41
EndSplineSet
EndChar

StartChar: ydieresis
Encoding: 255 255 192
Width: 446
GlyphClass: 2
Flags: W
LayerCount: 2
Fore
SplineSet
230 91 m 1,0,1
 347 371 347 371 347 395 c 128,-1,2
 347 419 347 419 309 419 c 2,3,-1
 263 419 l 1,4,-1
 261 423 l 1,5,-1
 267 456 l 1,6,7
 319 452 319 452 368 452 c 2,8,-1
 453 453 l 1,9,-1
 446 416 l 1,10,11
 424 412 424 412 412.5 400.5 c 128,-1,12
 401 389 401 389 390 359 c 1,13,-1
 261 55 l 1,14,15
 180 -131 180 -131 140 -186 c 128,-1,16
 100 -241 100 -241 38 -241 c 0,17,18
 37 -241 37 -241 36 -241 c 0,19,20
 28 -241 28 -241 10 -217.5 c 128,-1,21
 -8 -194 -8 -194 -8 -184 c 1,22,-1
 -3 -177 l 1,23,24
 55 -177 55 -177 106.5 -130.5 c 128,-1,25
 158 -84 158 -84 192 -1 c 1,26,27
 129 197 129 197 61 368 c 1,28,29
 38 415 38 415 -7 416 c 1,30,-1
 -9 420 l 1,31,-1
 -3 453 l 1,32,33
 57 452 57 452 82 452 c 0,34,35
 121 452 121 452 200 459 c 1,36,-1
 202 454 l 1,37,-1
 196 423 l 1,38,39
 162 422 162 422 149.5 416.5 c 128,-1,40
 137 411 137 411 137 396 c 0,41,42
 137 368 137 368 226 91 c 1,43,-1
 230 91 l 1,0,1
342.5 580.5 m 128,-1,45
 328 566 328 566 308 566 c 128,-1,46
 288 566 288 566 277 579 c 128,-1,47
 266 592 266 592 266 611 c 128,-1,48
 266 630 266 630 280.5 644.5 c 128,-1,49
 295 659 295 659 315 659 c 128,-1,50
 335 659 335 659 346 646.5 c 128,-1,51
 357 634 357 634 357 614.5 c 128,-1,44
 357 595 357 595 342.5 580.5 c 128,-1,45
176.5 580.5 m 128,-1,53
 162 566 162 566 142 566 c 128,-1,54
 122 566 122 566 111 579 c 128,-1,55
 100 592 100 592 100 611 c 128,-1,56
 100 630 100 630 114.5 644.5 c 128,-1,57
 129 659 129 659 149 659 c 128,-1,58
 169 659 169 659 180 646.5 c 128,-1,59
 191 634 191 634 191 614.5 c 128,-1,52
 191 595 191 595 176.5 580.5 c 128,-1,53
EndSplineSet
EndChar

StartChar: Amacron
Encoding: 256 256 193
Width: 578
GlyphClass: 2
Flags: W
LayerCount: 2
Fore
SplineSet
329 -10 m 1,0,-1
 326 -3 l 1,1,-1
 330 36 l 1,2,3
 381 40 381 40 400 48 c 128,-1,4
 419 56 419 56 419 75 c 128,-1,5
 419 94 419 94 410 122 c 2,6,-1
 377 231 l 1,7,8
 353 232 353 232 289 232 c 128,-1,9
 225 232 225 232 164 224 c 1,10,-1
 127 120 l 2,11,12
 118 93 118 93 118 81 c 0,13,14
 118 40 118 40 178 40 c 2,15,-1
 235 40 l 1,16,-1
 237 36 l 1,17,-1
 231 -7 l 1,18,19
 158 0 158 0 92 0 c 1,20,-1
 -18 -3 l 1,21,-1
 -10 44 l 1,22,23
 18 47 18 47 35 63.5 c 128,-1,24
 52 80 52 80 68 121 c 2,25,-1
 263 632 l 1,26,-1
 326 649 l 1,27,-1
 334 649 l 1,28,29
 418 338 418 338 493 113 c 0,30,31
 505 76 505 76 525 61 c 128,-1,32
 545 46 545 46 589 42 c 1,33,-1
 591 38 l 1,34,-1
 584 -3 l 1,35,36
 512 0 512 0 460.5 0 c 128,-1,37
 409 0 409 0 329 -10 c 1,0,-1
270 273 m 2,38,39
 306 273 306 273 363 278 c 1,40,-1
 284 540 l 1,41,-1
 277 540 l 1,42,-1
 182 273 l 1,43,-1
 270 273 l 2,38,39
438 778 m 1,44,-1
 444 768 l 1,45,-1
 437 721 l 1,46,-1
 151 719 l 1,47,-1
 145 728 l 1,48,-1
 155 773 l 1,49,50
 250 772 250 772 309 772 c 1,51,-1
 438 778 l 1,44,-1
EndSplineSet
EndChar

StartChar: amacron
Encoding: 257 257 194
Width: 466
GlyphClass: 2
Flags: W
LayerCount: 2
Fore
SplineSet
262 370 m 128,-1,1
 239 398 239 398 203.5 398 c 128,-1,2
 168 398 168 398 138 385.5 c 128,-1,3
 108 373 108 373 92 360 c 2,4,-1
 77 348 l 1,5,-1
 72 351 l 1,6,-1
 60 394 l 1,7,8
 180 464 180 464 223 464 c 0,9,10
 288 464 288 464 325 430 c 128,-1,11
 362 396 362 396 362 335 c 0,12,13
 362 320 362 320 353 228.5 c 128,-1,14
 344 137 344 137 344 105 c 0,15,16
 344 59 344 59 385 59 c 0,17,18
 412 59 412 59 445 84 c 1,19,-1
 459 68 l 1,20,21
 445 44 445 44 419.5 20 c 128,-1,22
 394 -4 394 -4 372 -12 c 1,23,24
 290 -12 290 -12 283 69 c 1,25,-1
 279 70 l 1,26,27
 201 -8 201 -8 169 -8 c 0,28,29
 113 -8 113 -8 77 27 c 128,-1,30
 41 62 41 62 41 116 c 0,31,32
 41 145 41 145 55.5 167 c 128,-1,33
 70 189 70 189 94 196 c 2,34,-1
 283 248 l 1,35,-1
 285 292 l 1,36,0
 285 342 285 342 262 370 c 128,-1,1
146 169 m 2,37,38
 117 160 117 160 117 129 c 128,-1,39
 117 98 117 98 136.5 79 c 128,-1,40
 156 60 156 60 186 60 c 0,41,42
 229 60 229 60 277 108 c 1,43,-1
 281 210 l 1,44,-1
 146 169 l 2,37,38
361 653 m 1,45,-1
 367 643 l 1,46,-1
 360 596 l 1,47,-1
 74 594 l 1,48,-1
 68 603 l 1,49,-1
 78 648 l 1,50,51
 173 647 173 647 232 647 c 1,52,-1
 361 653 l 1,45,-1
EndSplineSet
EndChar

StartChar: Abreve
Encoding: 258 258 195
Width: 578
GlyphClass: 2
Flags: W
LayerCount: 2
Fore
SplineSet
329 -10 m 1,0,-1
 326 -3 l 1,1,-1
 330 36 l 1,2,3
 381 40 381 40 400 48 c 128,-1,4
 419 56 419 56 419 75 c 128,-1,5
 419 94 419 94 410 122 c 2,6,-1
 377 231 l 1,7,8
 353 232 353 232 289 232 c 128,-1,9
 225 232 225 232 164 224 c 1,10,-1
 127 120 l 2,11,12
 118 93 118 93 118 81 c 0,13,14
 118 40 118 40 178 40 c 2,15,-1
 235 40 l 1,16,-1
 237 36 l 1,17,-1
 231 -7 l 1,18,19
 158 0 158 0 92 0 c 1,20,-1
 -18 -3 l 1,21,-1
 -10 44 l 1,22,23
 18 47 18 47 35 63.5 c 128,-1,24
 52 80 52 80 68 121 c 2,25,-1
 263 632 l 1,26,-1
 326 649 l 1,27,-1
 334 649 l 1,28,29
 418 338 418 338 493 113 c 0,30,31
 505 76 505 76 525 61 c 128,-1,32
 545 46 545 46 589 42 c 1,33,-1
 591 38 l 1,34,-1
 584 -3 l 1,35,36
 512 0 512 0 460.5 0 c 128,-1,37
 409 0 409 0 329 -10 c 1,0,-1
270 273 m 2,38,39
 306 273 306 273 363 278 c 1,40,-1
 284 540 l 1,41,-1
 277 540 l 1,42,-1
 182 273 l 1,43,-1
 270 273 l 2,38,39
294 768 m 128,-1,45
 364 768 364 768 390 818 c 1,46,-1
 398 818 l 1,47,-1
 414 808 l 1,48,49
 402 766 402 766 372 738 c 128,-1,50
 342 710 342 710 294 710 c 128,-1,51
 246 710 246 710 216 738 c 128,-1,52
 186 766 186 766 174 808 c 1,53,-1
 190 818 l 1,54,-1
 198 818 l 1,55,44
 224 768 224 768 294 768 c 128,-1,45
EndSplineSet
EndChar

